# 3ds Max Wavefront OBJ Exporter v0.97b - (c)2007 guruware
# File Created: 21.07.2018 03:05:31

#
# object 10_Wood_Medium_4
#

v  -0.6637 19.6102 -1.3904
v  -0.6317 0.0098 -1.1852
v  -0.8297 0.0098 1.2770
v  -0.6637 19.6102 1.3904
v  0.8995 19.6102 1.3904
v  0.8995 0.0098 1.3904
v  0.8995 0.0098 -1.3904
v  0.8995 19.6102 -1.3904
v  -0.8995 32.0067 -1.3904
v  -0.7692 32.0067 1.0487
v  0.8995 32.0067 1.1236
v  0.8995 32.0067 -1.3904
# 12 vertices

vn -1.0000 -0.0058 -0.0032
vn -0.9968 -0.0025 -0.0802
vn -0.9973 -0.0015 -0.0730
vn -1.0000 -0.0044 0.0033
vn 1.0000 0.0000 -0.0000
vn -0.0018 0.0136 0.9999
vn -0.0654 -0.0052 0.9978
vn -0.0621 -0.0050 0.9981
vn -0.0019 0.0135 0.9999
vn -0.0033 -0.0003 -1.0000
vn 0.0000 0.0000 -1.0000
vn -0.1262 -0.0101 -0.9920
vn -0.1328 -0.0106 -0.9911
vn 0.0000 1.0000 -0.0000
vn -0.9986 -0.0070 0.0533
vn -0.9989 -0.0087 0.0458
vn -0.0448 0.0215 0.9988
vn -0.0412 0.0220 0.9989
vn 0.0000 -1.0000 -0.0000
# 19 vertex normals

vt 0.3413 0.7891 0.0000
vt 0.3419 0.7211 0.0000
vt 0.3505 0.7211 0.0000
vt 0.3509 0.7891 0.0000
vt 0.4523 0.4888 0.0000
vt 0.3843 0.4888 0.0000
vt 0.3843 0.4791 0.0000
vt 0.4523 0.4791 0.0000
vt 0.4520 0.4981 0.0000
vt 0.3843 0.4987 0.0000
vt 0.3843 0.4927 0.0000
vt 0.4520 0.4927 0.0000
vt 0.4525 0.4710 0.0000
vt 0.4525 0.4764 0.0000
vt 0.3843 0.4764 0.0000
vt 0.3843 0.4711 0.0000
vt 0.5338 0.6092 0.0000
vt 0.5422 0.6097 0.0000
vt 0.5425 0.6155 0.0000
vt 0.5338 0.6155 0.0000
vt 0.3497 0.8321 0.0000
vt 0.3413 0.8321 0.0000
vt 0.4953 0.4791 0.0000
vt 0.4953 0.4879 0.0000
vt 0.4948 0.4927 0.0000
vt 0.4948 0.4984 0.0000
vt 0.4956 0.4701 0.0000
vt 0.4956 0.4764 0.0000
vt 0.7352 0.4865 0.0000
vt 0.7358 0.4918 0.0000
vt 0.7262 0.4918 0.0000
vt 0.7266 0.4858 0.0000
# 32 texture coords

g 10_Wood_Medium_4
s 1
f 1/1/1 2/2/2 3/3/3 4/4/4 
f 5/5/5 6/6/5 7/7/5 8/8/5 
s 2
f 4/9/6 3/10/7 6/11/8 5/12/9 
f 1/13/10 8/14/11 7/15/12 2/16/13 
s 4
f 9/17/14 10/18/14 11/19/14 12/20/14 
s 1
f 4/4/4 10/21/15 9/22/16 1/1/1 
f 8/8/5 12/23/5 11/24/5 5/5/5 
s 2
f 5/12/9 11/25/17 10/26/18 4/9/6 
f 1/13/10 9/27/11 12/28/11 8/14/11 
s 4
f 2/29/19 7/30/19 6/31/19 3/32/19 
# 10 polygons

