# 3ds Max Wavefront OBJ Exporter v0.97b - (c)2007 guruware
# File Created: 21.07.2018 03:09:29

#
# object 
#

v  1.4146 0.0062 1.2790
v  -1.4146 0.0062 1.2790
v  -1.4146 0.0062 -1.1309
v  1.4146 0.0000 -1.1309
v  1.4146 25.6790 1.2790
v  1.4146 25.9249 -0.8517
v  -1.4146 25.9249 -0.8517
v  -1.4146 25.6790 1.2790
v  1.2148 7.0715 -1.2790
v  1.2148 7.0715 1.1905
v  -1.4146 7.0715 -1.2790
v  -1.4146 7.0715 1.1905
v  1.1886 22.3954 -1.1309
v  1.1886 22.3954 1.2790
v  -1.4146 22.3954 -1.1309
v  -1.4146 22.3954 1.2790
v  0.9906 12.0074 -1.1309
v  0.9906 12.0074 1.0911
v  -1.4146 12.0074 -1.1309
v  -1.4146 12.0074 1.0911
# 20 vertices

vn -0.0012 -1.0000 0.0014
vn 0.0000 -1.0000 -0.0000
vn -0.0010 -1.0000 0.0012
vn -0.0022 -1.0000 0.0026
vn 0.0000 0.9934 0.1146
vn 0.9996 0.0283 -0.0001
vn 0.9993 0.0368 -0.0000
vn 0.9993 0.0367 -0.0000
vn -0.0000 -0.0210 -0.9998
vn -0.0000 0.0045 -1.0000
vn 0.0000 0.0039 -1.0000
vn -1.0000 0.0000 -0.0000
vn 0.0000 0.0125 0.9999
vn 0.0000 0.0162 0.9999
vn 0.0000 0.0163 0.9999
vn 0.9991 -0.0423 -0.0013
vn 0.9980 -0.0634 -0.0073
vn 0.9979 -0.0654 -0.0046
vn 0.9990 -0.0440 -0.0000
vn 0.0000 0.0395 -0.9992
vn 0.0000 0.0789 -0.9969
vn 0.0000 0.0405 -0.9992
vn 0.0000 -0.0088 1.0000
vn 0.0000 0.0000 1.0000
vn 0.0000 -0.0090 1.0000
vn 0.9999 0.0135 -0.0000
vn 0.9999 0.0132 -0.0000
vn 0.0000 0.0150 -0.9999
vn 0.0000 0.0151 -0.9999
vn 0.0000 0.0012 1.0000
vn 0.0000 0.0010 1.0000
# 31 vertex normals

vt 0.6405 0.4777 0.0000
vt 0.6405 0.4679 0.0000
vt 0.6488 0.4679 0.0000
vt 0.6488 0.4777 0.0000
vt 0.6674 0.4690 0.0000
vt 0.6674 0.4764 0.0000
vt 0.6575 0.4764 0.0000
vt 0.6575 0.4690 0.0000
vt 0.5212 0.5902 0.0000
vt 0.5212 0.5819 0.0000
vt 0.5459 0.5813 0.0000
vt 0.5459 0.5899 0.0000
vt 0.8818 0.2438 0.0000
vt 0.8818 0.2536 0.0000
vt 0.8573 0.2536 0.0000
vt 0.8573 0.2445 0.0000
vt 0.4989 0.6434 0.0000
vt 0.4906 0.6434 0.0000
vt 0.4909 0.6190 0.0000
vt 0.4994 0.6190 0.0000
vt 0.5057 0.5786 0.0000
vt 0.5155 0.5786 0.0000
vt 0.5148 0.6031 0.0000
vt 0.5057 0.6031 0.0000
vt 0.5990 0.5819 0.0000
vt 0.6114 0.5828 0.0000
vt 0.6105 0.5902 0.0000
vt 0.5990 0.5902 0.0000
vt 0.8043 0.2536 0.0000
vt 0.7921 0.2536 0.0000
vt 0.7921 0.2438 0.0000
vt 0.8043 0.2446 0.0000
vt 0.4906 0.5658 0.0000
vt 0.4906 0.5545 0.0000
vt 0.4980 0.5536 0.0000
vt 0.4989 0.5658 0.0000
vt 0.5148 0.6563 0.0000
vt 0.5155 0.6677 0.0000
vt 0.5057 0.6677 0.0000
vt 0.5057 0.6563 0.0000
vt 0.5629 0.5819 0.0000
vt 0.5629 0.5896 0.0000
vt 0.8403 0.2536 0.0000
vt 0.8403 0.2453 0.0000
vt 0.4912 0.6018 0.0000
vt 0.4989 0.6018 0.0000
vt 0.5140 0.6202 0.0000
vt 0.5057 0.6202 0.0000
# 48 texture coords

g 
s 1
f 1/1/1 2/2/2 3/3/3 4/4/4 
f 5/5/5 6/6/5 7/7/5 8/8/5 
s 2
f 1/9/6 4/10/6 9/11/7 10/12/8 
s 4
f 4/13/9 3/14/9 11/15/10 9/16/11 
s 2
f 3/17/12 2/18/12 12/19/12 11/20/12 
s 4
f 2/21/13 1/22/13 10/23/14 12/24/15 
s 2
f 13/25/16 6/26/17 5/27/18 14/28/19 
s 4
f 15/29/20 7/30/21 6/31/21 13/32/22 
s 2
f 16/33/12 8/34/12 7/35/12 15/36/12 
s 4
f 14/37/23 5/38/24 8/39/24 16/40/25 
s 2
f 17/41/26 13/25/16 14/28/19 18/42/27 
s 4
f 19/43/28 15/29/20 13/32/22 17/44/29 
s 2
f 20/45/12 16/33/12 15/36/12 19/46/12 
s 4
f 18/47/30 14/37/23 16/40/25 20/48/31 
s 2
f 9/11/7 17/41/26 18/42/27 10/12/8 
s 4
f 11/15/10 19/43/28 17/44/29 9/16/11 
s 2
f 12/19/12 20/45/12 19/46/12 11/20/12 
s 4
f 10/23/14 18/47/30 20/48/31 12/24/15 
# 18 polygons

