# 3ds Max Wavefront OBJ Exporter v0.97b - (c)2007 guruware
# File Created: 21.07.2018 03:09:47

#
# object 13_Wood_small_3
#

v  -1.3484 0.0062 1.0267
v  1.3484 0.0062 1.0267
v  1.1575 10.7107 0.5202
v  -0.8669 8.9405 0.5049
v  0.8731 15.6167 -0.8447
v  1.0387 21.0318 -0.5962
v  1.0114 21.0318 1.0267
v  -1.0315 12.7840 -0.7524
v  -1.3484 21.0318 -0.5895
v  -1.0047 21.0318 0.9529
v  -1.3484 0.0062 -1.0267
v  1.3484 0.0062 -1.0267
# 12 vertices

vn -0.0071 0.0489 0.9988
vn 0.0000 0.0473 0.9989
vn 0.0018 -0.0114 0.9999
vn -0.0383 0.0351 0.9987
vn 0.9932 0.0168 -0.1155
vn 0.9994 -0.0313 0.0168
vn 0.9997 -0.0216 -0.0113
vn 0.9953 0.0295 -0.0927
vn -0.0802 0.0259 -0.9964
vn -0.0028 0.0197 -0.9998
vn -0.0195 0.0238 -0.9995
vn -0.1093 0.0436 -0.9930
vn -0.9484 0.0593 0.3115
vn -0.9759 -0.0192 0.2175
vn -0.9789 -0.0206 0.2035
vn -0.9991 -0.0290 0.0317
vn 0.0000 1.0000 -0.0000
vn 0.0000 -1.0000 -0.0000
vn 0.9998 0.0178 -0.0000
vn 0.9998 0.0190 -0.0080
vn -0.0365 -0.0495 0.9981
vn -0.0289 -0.0479 0.9984
vn 0.0000 0.0117 -0.9999
vn -0.0063 0.0126 -0.9999
vn -0.9997 0.0248 -0.0000
vn -0.9994 0.0274 0.0190
# 26 vertex normals

vt 0.1465 0.8088 0.0000
vt 0.1465 0.7995 0.0000
vt 0.1836 0.8001 0.0000
vt 0.1774 0.8072 0.0000
vt 0.6596 0.2902 0.0000
vt 0.6785 0.2910 0.0000
vt 0.6785 0.2967 0.0000
vt 0.6426 0.2949 0.0000
vt 0.4060 0.7511 0.0000
vt 0.4346 0.7500 0.0000
vt 0.4346 0.7583 0.0000
vt 0.4158 0.7578 0.0000
vt 0.2673 0.8070 0.0000
vt 0.2249 0.8086 0.0000
vt 0.2249 0.8032 0.0000
vt 0.2539 0.8026 0.0000
vt 0.5564 0.6149 0.0000
vt 0.5563 0.6092 0.0000
vt 0.5646 0.6093 0.0000
vt 0.5634 0.6146 0.0000
vt 0.6200 0.5200 0.0000
vt 0.6200 0.5129 0.0000
vt 0.6293 0.5129 0.0000
vt 0.6293 0.5200 0.0000
vt 0.6056 0.2967 0.0000
vt 0.6056 0.2895 0.0000
vt 0.2194 0.8006 0.0000
vt 0.2194 0.8076 0.0000
vt 0.3617 0.7594 0.0000
vt 0.3617 0.7500 0.0000
vt 0.2987 0.8016 0.0000
vt 0.2987 0.8088 0.0000
# 32 texture coords

g 13_Wood_small_3
s 1
f 1/1/1 2/2/2 3/3/3 4/4/4 
s 2
f 5/5/5 6/6/6 7/7/7 3/8/8 
s 1
f 8/9/9 9/10/10 6/11/11 5/12/12 
s 2
f 4/13/13 10/14/14 9/15/15 8/16/16 
s 4
f 7/17/17 6/18/17 9/19/17 10/20/17 
f 1/21/18 11/22/18 12/23/18 2/24/18 
s 2
f 3/8/8 2/25/19 12/26/20 5/5/5 
s 1
f 3/3/3 7/27/21 10/28/22 
f 5/12/12 12/29/23 11/30/24 8/9/9 
s 2
f 8/16/16 11/31/25 1/32/26 4/13/13 
s 1
f 3/3/3 10/28/22 4/4/4 
# 9 polygons - 2 triangles

