# 3ds Max Wavefront OBJ Exporter v0.97b - (c)2007 guruware
# File Created: 21.07.2018 03:10:27

#
# object 15_Wood_Longest
#

v  0.8635 0.0062 -0.0000
v  0.6106 0.0062 -0.6106
v  0.6106 32.7428 -0.6106
v  0.8635 32.7428 -0.0000
v  0.0000 0.0062 -0.8635
v  0.0000 32.7428 -0.8635
v  -0.6106 0.0062 -0.6106
v  -0.6106 32.7428 -0.6106
v  -0.8635 0.0062 -0.0000
v  -0.8635 32.7428 -0.0000
v  -0.6106 0.0062 0.6106
v  -0.6106 32.7428 0.6106
v  0.0000 0.0062 0.8635
v  0.0000 32.7428 0.8635
v  0.6106 0.0062 0.6106
v  0.6106 32.7428 0.6106
v  0.7760 46.0869 -0.7760
v  1.0974 46.0869 -0.0000
v  0.0000 46.0869 -1.0974
v  -0.7760 46.0869 -0.7760
v  -1.0974 46.0869 -0.0000
v  -0.7760 46.0869 0.7760
v  0.0000 46.0869 1.0974
v  0.7760 46.0869 0.7760
v  0.0000 46.0869 -0.0000
# 25 vertices

vn 1.0000 0.0000 -0.0000
vn 0.7071 0.0000 -0.7071
vn 0.7071 -0.0088 -0.7071
vn 1.0000 -0.0088 -0.0000
vn -0.0000 0.0000 -1.0000
vn -0.0000 -0.0088 -1.0000
vn -0.7071 0.0000 -0.7071
vn -0.7071 -0.0088 -0.7071
vn -1.0000 0.0000 -0.0000
vn -1.0000 -0.0088 -0.0000
vn -0.7071 0.0000 0.7071
vn -0.7071 -0.0088 0.7071
vn -0.0000 0.0000 1.0000
vn -0.0000 -0.0088 1.0000
vn 0.7071 0.0000 0.7071
vn 0.7071 -0.0088 0.7071
vn 0.7070 -0.0175 -0.7070
vn 0.9998 -0.0175 -0.0000
vn -0.0000 -0.0175 -0.9998
vn -0.7070 -0.0175 -0.7070
vn -0.9998 -0.0175 0.0000
vn -0.7070 -0.0175 0.7070
vn -0.0000 -0.0175 0.9998
vn 0.7070 -0.0175 0.7070
vn 0.0000 1.0000 -0.0000
# 25 vertex normals

vt 0.4793 0.3030 0.0000
vt 0.4816 0.3030 0.0000
vt 0.4816 0.4157 0.0000
vt 0.4793 0.4157 0.0000
vt 0.4627 0.3030 0.0000
vt 0.4650 0.3030 0.0000
vt 0.4649 0.4157 0.0000
vt 0.4627 0.4157 0.0000
vt 0.4672 0.3030 0.0000
vt 0.4672 0.4157 0.0000
vt 0.4696 0.3030 0.0000
vt 0.4695 0.4157 0.0000
vt 0.4721 0.3030 0.0000
vt 0.4720 0.4157 0.0000
vt 0.4745 0.3030 0.0000
vt 0.4745 0.4157 0.0000
vt 0.4769 0.3030 0.0000
vt 0.4769 0.4157 0.0000
vt 0.4820 0.4617 0.0000
vt 0.4793 0.4617 0.0000
vt 0.4640 0.4617 0.0000
vt 0.4611 0.4616 0.0000
vt 0.4668 0.4617 0.0000
vt 0.4695 0.4617 0.0000
vt 0.4720 0.4617 0.0000
vt 0.4745 0.4617 0.0000
vt 0.4769 0.4617 0.0000
vt 0.5057 0.5573 0.0000
vt 0.5077 0.5553 0.0000
vt 0.5092 0.5588 0.0000
vt 0.5107 0.5552 0.0000
vt 0.5127 0.5573 0.0000
vt 0.5128 0.5602 0.0000
vt 0.5107 0.5622 0.0000
vt 0.5078 0.5623 0.0000
vt 0.5058 0.5602 0.0000
# 36 texture coords

g 15_Wood_Longest
s 1
f 1/1/1 2/2/2 3/3/3 4/4/4 
f 2/5/2 5/6/5 6/7/6 3/8/3 
f 5/6/5 7/9/7 8/10/8 6/7/6 
f 7/9/7 9/11/9 10/12/10 8/10/8 
f 9/11/9 11/13/11 12/14/12 10/12/10 
f 11/13/11 13/15/13 14/16/14 12/14/12 
f 13/15/13 15/17/15 16/18/16 14/16/14 
f 15/17/15 1/1/1 4/4/4 16/18/16 
f 3/3/3 17/19/17 18/20/18 4/4/4 
f 6/7/6 19/21/19 17/22/17 3/8/3 
f 8/10/8 20/23/20 19/21/19 6/7/6 
f 10/12/10 21/24/21 20/23/20 8/10/8 
f 12/14/12 22/25/22 21/24/21 10/12/10 
f 14/16/14 23/26/23 22/25/22 12/14/12 
f 16/18/16 24/27/24 23/26/23 14/16/14 
f 4/4/4 18/20/18 24/27/24 16/18/16 
s 2
f 18/28/25 17/29/25 25/30/25 
f 17/29/25 19/31/25 25/30/25 
f 19/31/25 20/32/25 25/30/25 
f 20/32/25 21/33/25 25/30/25 
f 21/33/25 22/34/25 25/30/25 
f 22/34/25 23/35/25 25/30/25 
f 23/35/25 24/36/25 25/30/25 
f 24/36/25 18/28/25 25/30/25 
# 16 polygons - 8 triangles

