# 3ds Max Wavefront OBJ Exporter v0.97b - (c)2007 guruware
# File Created: 21.07.2018 02:52:48

#
# object 1_Bridge
#

v  1.4675 -0.0000 -11.8123
v  0.7338 -0.0000 -13.0832
v  0.7338 12.5747 -13.0832
v  1.4675 12.5747 -11.8123
v  -0.7337 -0.0000 -13.0832
v  -0.7337 12.5747 -13.0832
v  -1.4675 -0.0000 -11.8123
v  -1.4675 12.5747 -11.8123
v  -0.7337 -0.0000 -10.5414
v  -0.7337 12.5747 -10.5414
v  0.7338 -0.0000 -10.5414
v  0.7338 12.5747 -10.5414
v  1.4675 71.7061 -11.8123
v  0.7338 71.7061 -13.0832
v  0.0000 71.7061 -11.8123
v  -0.7337 71.7061 -13.0832
v  -1.4675 71.7061 -11.8123
v  -0.7337 71.7061 -10.5414
v  0.7338 71.7061 -10.5414
v  0.0000 -0.0000 -11.8123
v  0.7338 20.8693 -13.0832
v  1.4675 20.8693 -11.8123
v  -0.7337 20.8693 -13.0832
v  -1.4675 20.8693 -11.8123
v  -0.7337 20.8693 -10.5414
v  0.7338 20.8693 -10.5414
v  0.7338 28.1182 -13.0832
v  1.4675 28.1182 -11.8123
v  -0.7337 28.1182 -13.0832
v  -1.4675 28.1182 -11.8123
v  -0.7337 28.1182 -10.5414
v  0.7338 28.1182 -10.5414
v  -0.6635 0.5027 13.0832
v  -0.6635 -0.2244 11.5239
v  0.6735 -0.2244 11.5239
v  0.6735 0.5027 13.0832
v  -0.6635 50.0346 -10.6538
v  0.6735 50.0346 -10.6538
v  0.6735 49.3075 -12.2131
v  -0.6635 49.3075 -12.2131
# 40 vertices

vn 1.0000 0.0000 0.0000
vn 0.5000 0.0000 -0.8660
vn -0.5000 0.0000 -0.8660
vn -1.0000 0.0000 0.0000
vn -0.5000 0.0000 0.8660
vn 0.5000 0.0000 0.8660
vn 0.0000 1.0000 -0.0000
vn 0.0000 -1.0000 -0.0000
vn 0.0000 -0.9063 0.4226
vn 0.0000 0.9063 -0.4226
vn 0.0000 0.4322 0.9018
vn 1.0000 0.0000 -0.0000
vn 0.0000 -0.4322 -0.9018
vn -1.0000 0.0000 -0.0000
# 14 vertex normals

vt 0.4298 0.2878 0.0000
vt 0.4298 0.2929 0.0000
vt 0.3861 0.2929 0.0000
vt 0.3861 0.2878 0.0000
vt 0.4298 0.2624 0.0000
vt 0.4298 0.2675 0.0000
vt 0.3861 0.2675 0.0000
vt 0.3861 0.2624 0.0000
vt 0.4298 0.2726 0.0000
vt 0.3861 0.2726 0.0000
vt 0.4298 0.2777 0.0000
vt 0.3861 0.2777 0.0000
vt 0.4298 0.2827 0.0000
vt 0.3861 0.2827 0.0000
vt 0.6119 0.5190 0.0000
vt 0.6068 0.5190 0.0000
vt 0.6094 0.5146 0.0000
vt 0.6043 0.5146 0.0000
vt 0.6068 0.5101 0.0000
vt 0.6119 0.5101 0.0000
vt 0.6144 0.5146 0.0000
vt 0.6337 0.4951 0.0000
vt 0.6337 0.4900 0.0000
vt 0.6381 0.4926 0.0000
vt 0.6381 0.4977 0.0000
vt 0.6425 0.4951 0.0000
vt 0.6425 0.4900 0.0000
vt 0.6381 0.4875 0.0000
vt 0.3574 0.2929 0.0000
vt 0.3574 0.2878 0.0000
vt 0.3574 0.2675 0.0000
vt 0.3574 0.2624 0.0000
vt 0.3574 0.2726 0.0000
vt 0.3574 0.2777 0.0000
vt 0.3574 0.2827 0.0000
vt 0.3322 0.2929 0.0000
vt 0.3322 0.2878 0.0000
vt 0.3322 0.2675 0.0000
vt 0.3322 0.2624 0.0000
vt 0.3322 0.2726 0.0000
vt 0.3322 0.2777 0.0000
vt 0.3322 0.2827 0.0000
vt 0.1811 0.2929 0.0000
vt 0.1811 0.2878 0.0000
vt 0.1811 0.2675 0.0000
vt 0.1811 0.2624 0.0000
vt 0.1811 0.2726 0.0000
vt 0.1811 0.2777 0.0000
vt 0.1811 0.2827 0.0000
vt 0.6420 0.5380 0.0000
vt 0.6477 0.5380 0.0000
vt 0.6477 0.5429 0.0000
vt 0.6420 0.5429 0.0000
vt 0.6484 0.5551 0.0000
vt 0.6484 0.5505 0.0000
vt 0.6544 0.5505 0.0000
vt 0.6544 0.5551 0.0000
vt 0.0068 0.9979 0.0000
vt 0.0021 0.9979 0.0000
vt 0.0021 0.8071 0.0000
vt 0.0068 0.8071 0.0000
vt 0.3723 0.2954 0.0000
vt 0.3722 0.3012 0.0000
vt 0.1811 0.3000 0.0000
vt 0.1812 0.2940 0.0000
vt 0.1811 0.3077 0.0000
vt 0.1811 0.3030 0.0000
vt 0.3718 0.3030 0.0000
vt 0.3718 0.3077 0.0000
vt 0.9889 0.6608 0.0000
vt 0.9949 0.6607 0.0000
vt 0.9961 0.8510 0.0000
vt 0.9902 0.8511 0.0000
# 73 texture coords

g 1_Bridge
s 128
f 1/1/1 2/2/2 3/3/2 4/4/1 
f 2/5/2 5/6/3 6/7/3 3/8/2 
f 5/6/3 7/9/4 8/10/4 6/7/3 
f 7/9/4 9/11/5 10/12/5 8/10/4 
f 9/11/5 11/13/6 12/14/6 10/12/5 
f 11/13/6 1/1/1 4/4/1 12/14/6 
s 4
f 13/15/7 14/16/7 15/17/7 
f 14/16/7 16/18/7 15/17/7 
f 16/18/7 17/19/7 15/17/7 
f 17/19/7 18/20/7 15/17/7 
f 18/20/7 19/21/7 15/17/7 
f 19/21/7 13/15/7 15/17/7 
f 2/22/8 1/23/8 20/24/8 
f 5/25/8 2/22/8 20/24/8 
f 7/26/8 5/25/8 20/24/8 
f 9/27/8 7/26/8 20/24/8 
f 11/28/8 9/27/8 20/24/8 
f 1/23/8 11/28/8 20/24/8 
s 128
f 3/3/2 21/29/2 22/30/1 4/4/1 
f 6/7/3 23/31/3 21/32/2 3/8/2 
f 8/10/4 24/33/4 23/31/3 6/7/3 
f 10/12/5 25/34/5 24/33/4 8/10/4 
f 12/14/6 26/35/6 25/34/5 10/12/5 
f 4/4/1 22/30/1 26/35/6 12/14/6 
f 21/29/2 27/36/2 28/37/1 22/30/1 
f 23/31/3 29/38/3 27/39/2 21/32/2 
f 24/33/4 30/40/4 29/38/3 23/31/3 
f 25/34/5 31/41/5 30/40/4 24/33/4 
f 26/35/6 32/42/6 31/41/5 25/34/5 
f 22/30/1 28/37/1 32/42/6 26/35/6 
f 27/36/2 14/43/2 13/44/1 28/37/1 
f 29/38/3 16/45/3 14/46/2 27/39/2 
f 30/40/4 17/47/4 16/45/3 29/38/3 
f 31/41/5 18/48/5 17/47/4 30/40/4 
f 32/42/6 19/49/6 18/48/5 31/41/5 
f 28/37/1 13/44/1 19/49/6 32/42/6 
s 1
f 33/50/9 34/51/9 35/52/9 36/53/9 
f 37/54/10 38/55/10 39/56/10 40/57/10 
s 2
f 33/58/11 36/59/11 38/60/11 37/61/11 
s 4
f 36/62/12 35/63/12 39/64/12 38/65/12 
s 2
f 35/66/13 34/67/13 40/68/13 39/69/13 
s 4
f 34/70/14 33/71/14 37/72/14 40/73/14 
# 30 polygons - 12 triangles

