# 3ds Max Wavefront OBJ Exporter v0.97b - (c)2007 guruware
# File Created: 21.07.2018 03:41:15

#
# object 28_plastic_long_3
#

v  -1.5634 40.7754 2.7079
v  -0.0000 40.7754 3.1268
v  -0.0000 40.7754 -0.0000
v  -2.7079 40.7754 1.5634
v  -3.1268 40.7754 -0.0000
v  -2.7079 40.7754 -1.5634
v  -1.5634 40.7754 -2.7079
v  -0.0000 40.7754 -3.1268
v  1.5634 40.7754 -2.7079
v  2.7079 40.7754 -1.5634
v  3.1268 40.7754 -0.0000
v  2.7079 40.7754 1.5634
v  1.5634 40.7754 2.7079
v  -0.0000 38.7331 3.6713
v  -1.8357 38.7331 3.1795
v  -3.1795 38.7331 1.8356
v  -3.6713 38.7331 -0.0000
v  -3.1795 38.7331 -1.8356
v  -1.8357 38.7331 -3.1794
v  -0.0000 38.7331 -3.6713
v  1.8357 38.7331 -3.1794
v  3.1795 38.7331 -1.8356
v  3.6713 38.7331 -0.0000
v  3.1795 38.7331 1.8356
v  1.8357 38.7331 3.1795
v  -1.8357 0.0044 3.1795
v  -0.0000 0.0044 3.6713
v  -3.1795 0.0044 1.8356
v  -3.6713 0.0044 -0.0000
v  -3.1795 0.0044 -1.8356
v  -1.8357 0.0044 -3.1794
v  -0.0000 0.0044 -3.6713
v  1.8357 0.0044 -3.1794
v  3.1795 0.0044 -1.8356
v  3.6713 0.0044 -0.0000
v  3.1795 0.0044 1.8356
v  1.8357 0.0044 3.1795
# 37 vertices

vn 0.0000 1.0000 -0.0000
vn -0.0000 0.1272 0.9919
vn -0.0000 0.2576 0.9662
vn -0.4831 0.2576 0.8368
vn -0.4959 0.1272 0.8590
vn -0.8368 0.2576 0.4831
vn -0.8590 0.1272 0.4959
vn -0.9662 0.2576 -0.0000
vn -0.9919 0.1272 -0.0000
vn -0.8368 0.2576 -0.4831
vn -0.8590 0.1272 -0.4959
vn -0.4831 0.2576 -0.8368
vn -0.4959 0.1272 -0.8590
vn -0.0000 0.2576 -0.9662
vn -0.0000 0.1272 -0.9919
vn 0.4831 0.2576 -0.8368
vn 0.4959 0.1272 -0.8590
vn 0.8368 0.2576 -0.4831
vn 0.8590 0.1272 -0.4959
vn 0.9662 0.2576 0.0000
vn 0.9919 0.1272 0.0000
vn 0.8368 0.2576 0.4831
vn 0.8590 0.1272 0.4959
vn 0.4831 0.2576 0.8368
vn 0.4959 0.1272 0.8590
vn -0.5000 0.0000 0.8660
vn -0.0000 0.0000 1.0000
vn -0.8660 0.0000 0.5000
vn -1.0000 0.0000 -0.0000
vn -0.8660 0.0000 -0.5000
vn -0.5000 0.0000 -0.8660
vn -0.0000 0.0000 -1.0000
vn 0.5000 0.0000 -0.8660
vn 0.8660 0.0000 -0.5000
vn 1.0000 0.0000 0.0000
vn 0.8660 0.0000 0.5000
vn 0.5000 0.0000 0.8660
# 37 vertex normals

vt 0.5788 0.4674 0.0000
vt 0.5816 0.4724 0.0000
vt 0.5710 0.4750 0.0000
vt 0.5740 0.4645 0.0000
vt 0.5684 0.4644 0.0000
vt 0.5635 0.4671 0.0000
vt 0.5606 0.4720 0.0000
vt 0.5605 0.4776 0.0000
vt 0.5632 0.4825 0.0000
vt 0.5680 0.4854 0.0000
vt 0.5737 0.4855 0.0000
vt 0.5785 0.4828 0.0000
vt 0.5814 0.4779 0.0000
vt 0.8296 0.6764 0.0000
vt 0.8324 0.6696 0.0000
vt 0.8377 0.6714 0.0000
vt 0.8359 0.6784 0.0000
vt 0.8432 0.6724 0.0000
vt 0.8423 0.6798 0.0000
vt 0.8488 0.6727 0.0000
vt 0.8488 0.6801 0.0000
vt 0.8545 0.6723 0.0000
vt 0.8554 0.6796 0.0000
vt 0.8599 0.6712 0.0000
vt 0.8619 0.6782 0.0000
vt 0.8651 0.6694 0.0000
vt 0.8681 0.6761 0.0000
vt 0.8701 0.6668 0.0000
vt 0.8739 0.6730 0.0000
vt 0.8748 0.6636 0.0000
vt 0.8794 0.6693 0.0000
vt 0.8789 0.6597 0.0000
vt 0.8842 0.6648 0.0000
vt 0.8133 0.6654 0.0000
vt 0.8186 0.6602 0.0000
vt 0.8227 0.6640 0.0000
vt 0.8183 0.6698 0.0000
vt 0.8274 0.6671 0.0000
vt 0.8237 0.6734 0.0000
vt 0.7840 0.8550 0.0000
vt 0.7906 0.8550 0.0000
vt 0.7906 0.9893 0.0000
vt 0.7840 0.9893 0.0000
vt 0.7972 0.8550 0.0000
vt 0.7972 0.9893 0.0000
vt 0.8038 0.8550 0.0000
vt 0.8038 0.9893 0.0000
vt 0.8104 0.8550 0.0000
vt 0.8104 0.9893 0.0000
vt 0.8169 0.8550 0.0000
vt 0.8169 0.9893 0.0000
vt 0.8236 0.8550 0.0000
vt 0.8236 0.9893 0.0000
vt 0.8301 0.8550 0.0000
vt 0.8301 0.9893 0.0000
vt 0.8368 0.8550 0.0000
vt 0.8368 0.9893 0.0000
vt 0.8433 0.8550 0.0000
vt 0.8433 0.9893 0.0000
vt 0.7642 0.8550 0.0000
vt 0.7709 0.8550 0.0000
vt 0.7709 0.9893 0.0000
vt 0.7642 0.9893 0.0000
vt 0.7774 0.8550 0.0000
vt 0.7774 0.9893 0.0000
# 65 texture coords

g 28_plastic_long_3
s 1
f 1/1/1 2/2/1 3/3/1 
f 4/4/1 1/1/1 3/3/1 
f 5/5/1 4/4/1 3/3/1 
f 6/6/1 5/5/1 3/3/1 
f 7/7/1 6/6/1 3/3/1 
f 8/8/1 7/7/1 3/3/1 
f 9/9/1 8/8/1 3/3/1 
f 10/10/1 9/9/1 3/3/1 
f 11/11/1 10/10/1 3/3/1 
f 12/12/1 11/11/1 3/3/1 
f 13/13/1 12/12/1 3/3/1 
f 2/2/1 13/13/1 3/3/1 
s 2
f 14/14/2 2/15/3 1/16/4 15/17/5 
f 15/17/5 1/16/4 4/18/6 16/19/7 
f 16/19/7 4/18/6 5/20/8 17/21/9 
f 17/21/9 5/20/8 6/22/10 18/23/11 
f 18/23/11 6/22/10 7/24/12 19/25/13 
f 19/25/13 7/24/12 8/26/14 20/27/15 
f 20/27/15 8/26/14 9/28/16 21/29/17 
f 21/29/17 9/28/16 10/30/18 22/31/19 
f 22/31/19 10/30/18 11/32/20 23/33/21 
f 23/34/21 11/35/20 12/36/22 24/37/23 
f 24/37/23 12/36/22 13/38/24 25/39/25 
f 25/39/25 13/38/24 2/15/3 14/14/2 
f 14/40/2 15/41/5 26/42/26 27/43/27 
f 15/41/5 16/44/7 28/45/28 26/42/26 
f 16/44/7 17/46/9 29/47/29 28/45/28 
f 17/46/9 18/48/11 30/49/30 29/47/29 
f 18/48/11 19/50/13 31/51/31 30/49/30 
f 19/50/13 20/52/15 32/53/32 31/51/31 
f 20/52/15 21/54/17 33/55/33 32/53/32 
f 21/54/17 22/56/19 34/57/34 33/55/33 
f 22/56/19 23/58/21 35/59/35 34/57/34 
f 23/60/21 24/61/23 36/62/36 35/63/35 
f 24/61/23 25/64/25 37/65/37 36/62/36 
f 25/64/25 14/40/2 27/43/27 37/65/37 
# 24 polygons - 12 triangles

