# 3ds Max Wavefront OBJ Exporter v0.97b - (c)2007 guruware
# File Created: 21.07.2018 02:54:20

#
# object 2_Wood_fat_1
#

v  2.0752 45.5809 -0.0000
v  1.4675 45.5809 -1.4675
v  -0.0001 45.5809 -0.0000
v  -0.0001 45.5809 -2.0753
v  -1.4675 45.5809 -1.4675
v  -2.0752 45.5809 -0.0000
v  -1.4675 45.5809 1.4674
v  -0.0001 45.5809 2.0753
v  1.4675 45.5809 1.4674
v  2.0752 -0.0000 -0.0000
v  1.4675 -0.0000 -1.4675
v  -0.0001 -0.0000 -2.0753
v  -1.4675 -0.0000 -1.4675
v  -2.0752 -0.0000 -0.0000
v  -1.4675 -0.0000 1.4674
v  -0.0001 -0.0000 2.0753
v  1.4675 -0.0000 1.4674
v  -0.0001 -0.0000 -0.0000
# 18 vertices

vn 0.0000 1.0000 -0.0000
vn 1.0000 0.0000 0.0000
vn 0.7071 0.0000 -0.7071
vn 0.3827 0.0000 -0.9239
vn -0.3827 0.0000 -0.9239
vn -0.7071 0.0000 -0.7071
vn -1.0000 0.0000 0.0000
vn -0.7071 0.0000 0.7071
vn -0.3827 0.0000 0.9239
vn 0.3827 0.0000 0.9239
vn 0.7071 0.0000 0.7071
vn 0.0000 -1.0000 -0.0000
# 12 vertex normals

vt 0.3460 0.5248 0.0000
vt 0.3421 0.5286 0.0000
vt 0.3394 0.5220 0.0000
vt 0.3367 0.5286 0.0000
vt 0.3327 0.5248 0.0000
vt 0.3327 0.5193 0.0000
vt 0.3367 0.5153 0.0000
vt 0.3421 0.5153 0.0000
vt 0.3460 0.5192 0.0000
vt 0.1748 0.5412 0.0000
vt 0.1748 0.5357 0.0000
vt 0.3327 0.5357 0.0000
vt 0.3327 0.5412 0.0000
vt 0.1748 0.5303 0.0000
vt 0.3327 0.5303 0.0000
vt 0.1748 0.5248 0.0000
vt 0.1748 0.5193 0.0000
vt 0.1748 0.5137 0.0000
vt 0.3327 0.5137 0.0000
vt 0.1748 0.5082 0.0000
vt 0.3327 0.5082 0.0000
vt 0.1748 0.5523 0.0000
vt 0.1748 0.5468 0.0000
vt 0.3327 0.5468 0.0000
vt 0.3327 0.5523 0.0000
vt 0.5959 0.3934 0.0000
vt 0.6013 0.3933 0.0000
vt 0.5987 0.4001 0.0000
vt 0.5920 0.3974 0.0000
vt 0.5921 0.4029 0.0000
vt 0.5960 0.4067 0.0000
vt 0.6015 0.4066 0.0000
vt 0.6054 0.4028 0.0000
vt 0.6053 0.3972 0.0000
# 34 texture coords

g 2_Wood_fat_1
s 1
f 1/1/1 2/2/1 3/3/1 
f 2/2/1 4/4/1 3/3/1 
f 4/4/1 5/5/1 3/3/1 
f 5/5/1 6/6/1 3/3/1 
f 6/6/1 7/7/1 3/3/1 
f 7/7/1 8/8/1 3/3/1 
f 8/8/1 9/9/1 3/3/1 
f 9/9/1 1/1/1 3/3/1 
s 2
f 10/10/2 11/11/3 2/12/3 1/13/2 
f 11/11/3 12/14/4 4/15/4 2/12/3 
s 4
f 12/14/5 13/16/6 5/5/6 4/15/5 
f 13/16/6 14/17/7 6/6/7 5/5/6 
f 14/17/7 15/18/8 7/19/8 6/6/7 
f 15/18/8 16/20/9 8/21/9 7/19/8 
s 2
f 16/22/10 17/23/11 9/24/11 8/25/10 
f 17/23/11 10/10/2 1/13/2 9/24/11 
s 1
f 11/26/12 10/27/12 18/28/12 
f 12/29/12 11/26/12 18/28/12 
f 13/30/12 12/29/12 18/28/12 
f 14/31/12 13/30/12 18/28/12 
f 15/32/12 14/31/12 18/28/12 
f 16/33/12 15/32/12 18/28/12 
f 17/34/12 16/33/12 18/28/12 
f 10/27/12 17/34/12 18/28/12 
# 8 polygons - 16 triangles

