# 3ds Max Wavefront OBJ Exporter v0.97b - (c)2007 guruware
# File Created: 21.07.2018 02:55:17

#
# object 2_Wood_fat_2
#

v  2.0753 25.3521 -0.0000
v  1.4674 25.3521 -1.4674
v  0.0000 25.3521 -0.0000
v  0.0000 25.3521 -2.0752
v  -1.4674 25.3521 -1.4674
v  -2.0753 25.3521 -0.0000
v  -1.4674 25.3521 1.4675
v  0.0000 25.3521 2.0753
v  1.4674 25.3521 1.4675
v  2.0753 -0.0000 -0.0000
v  1.4674 -0.0000 -1.4674
v  0.0000 -0.0000 -2.0752
v  -1.4674 -0.0000 -1.4674
v  -2.0753 -0.0000 -0.0000
v  -1.4674 -0.0000 1.4675
v  0.0000 -0.0000 2.0753
v  1.4674 -0.0000 1.4675
v  0.0000 -0.0000 -0.0000
# 18 vertices

vn 0.0000 1.0000 -0.0000
vn 1.0000 0.0000 -0.0000
vn 0.7071 0.0000 -0.7071
vn 0.3827 0.0000 -0.9239
vn -0.3827 0.0000 -0.9239
vn -0.7071 0.0000 -0.7071
vn -1.0000 0.0000 -0.0000
vn -0.7071 0.0000 0.7071
vn -0.3827 0.0000 0.9239
vn 0.3827 0.0000 0.9239
vn 0.7071 0.0000 0.7071
vn 0.0000 -1.0000 -0.0000
# 12 vertex normals

vt 0.4908 0.7540 0.0000
vt 0.4947 0.7578 0.0000
vt 0.4881 0.7606 0.0000
vt 0.4948 0.7633 0.0000
vt 0.4909 0.7673 0.0000
vt 0.4854 0.7673 0.0000
vt 0.4815 0.7634 0.0000
vt 0.4814 0.7579 0.0000
vt 0.4853 0.7540 0.0000
vt 0.9706 0.6620 0.0000
vt 0.9761 0.6620 0.0000
vt 0.9761 0.7500 0.0000
vt 0.9706 0.7500 0.0000
vt 0.9817 0.6620 0.0000
vt 0.9817 0.7500 0.0000
vt 0.9376 0.6620 0.0000
vt 0.9431 0.6620 0.0000
vt 0.9431 0.7500 0.0000
vt 0.9376 0.7500 0.0000
vt 0.9486 0.6620 0.0000
vt 0.9486 0.7500 0.0000
vt 0.9541 0.6620 0.0000
vt 0.9541 0.7500 0.0000
vt 0.9596 0.6620 0.0000
vt 0.9596 0.7500 0.0000
vt 0.9651 0.6620 0.0000
vt 0.9651 0.7500 0.0000
vt 0.6656 0.7607 0.0000
vt 0.6711 0.7607 0.0000
vt 0.6684 0.7674 0.0000
vt 0.6617 0.7647 0.0000
vt 0.6618 0.7702 0.0000
vt 0.6658 0.7740 0.0000
vt 0.6712 0.7740 0.0000
vt 0.6751 0.7701 0.0000
vt 0.6750 0.7646 0.0000
# 36 texture coords

g 2_Wood_fat_2
s 1
f 1/1/1 2/2/1 3/3/1 
f 2/2/1 4/4/1 3/3/1 
f 4/4/1 5/5/1 3/3/1 
f 5/5/1 6/6/1 3/3/1 
f 6/6/1 7/7/1 3/3/1 
f 7/7/1 8/8/1 3/3/1 
f 8/8/1 9/9/1 3/3/1 
f 9/9/1 1/1/1 3/3/1 
s 2
f 10/10/2 11/11/3 2/12/3 1/13/2 
f 11/11/3 12/14/4 4/15/4 2/12/3 
s 4
f 12/16/5 13/17/6 5/18/6 4/19/5 
f 13/17/6 14/20/7 6/21/7 5/18/6 
f 14/20/7 15/22/8 7/23/8 6/21/7 
f 15/22/8 16/24/9 8/25/9 7/23/8 
s 2
f 16/24/10 17/26/11 9/27/11 8/25/10 
f 17/26/11 10/10/2 1/13/2 9/27/11 
s 1
f 11/28/12 10/29/12 18/30/12 
f 12/31/12 11/28/12 18/30/12 
f 13/32/12 12/31/12 18/30/12 
f 14/33/12 13/32/12 18/30/12 
f 15/34/12 14/33/12 18/30/12 
f 16/35/12 15/34/12 18/30/12 
f 17/36/12 16/35/12 18/30/12 
f 10/29/12 17/36/12 18/30/12 
# 8 polygons - 16 triangles

