# 3ds Max Wavefront OBJ Exporter v0.97b - (c)2007 guruware
# File Created: 21.07.2018 03:42:07

#
# object 30_plastic_mid
#

v  -1.5634 25.2333 2.7079
v  0.0000 25.2333 3.1268
v  0.0000 25.2333 0.0000
v  -2.7079 25.2333 1.5634
v  -3.1268 25.2333 0.0000
v  -2.7079 25.2333 -1.5634
v  -1.5634 25.2333 -2.7079
v  0.0000 25.2333 -3.1268
v  1.5634 25.2333 -2.7079
v  2.7079 25.2333 -1.5634
v  3.1268 25.2333 0.0000
v  2.7079 25.2333 1.5634
v  1.5634 25.2333 2.7079
v  0.0000 23.1911 3.6714
v  -1.8357 23.1911 3.1794
v  -3.1795 23.1911 1.8356
v  -3.6713 23.1911 0.0000
v  -3.1795 23.1911 -1.8356
v  -1.8357 23.1911 -3.1794
v  0.0000 23.1911 -3.6714
v  1.8356 23.1911 -3.1794
v  3.1794 23.1911 -1.8356
v  3.6713 23.1911 0.0000
v  3.1794 23.1911 1.8356
v  1.8356 23.1911 3.1794
v  0.0000 14.7823 3.6714
v  0.0000 19.3260 3.6714
v  -1.8357 19.3260 3.1794
v  -1.8357 14.7823 3.1794
v  -3.1795 19.3260 1.8356
v  -3.1795 14.7823 1.8356
v  -3.6713 19.3260 0.0000
v  -3.6713 14.7823 0.0000
v  -3.1795 19.3260 -1.8356
v  -3.1795 14.7823 -1.8356
v  -1.8357 19.3260 -3.1794
v  -1.8357 14.7823 -3.1794
v  0.0000 19.3260 -3.6714
v  0.0000 14.7823 -3.6714
v  1.8356 19.3260 -3.1794
v  1.8356 14.7823 -3.1794
v  3.1794 19.3260 -1.8356
v  3.1794 14.7823 -1.8356
v  3.6713 19.3260 0.0000
v  3.6713 14.7823 0.0000
v  3.1794 19.3260 1.8356
v  3.1795 14.7823 1.8356
v  1.8356 19.3260 3.1794
v  1.8356 14.7823 3.1794
v  -1.8357 0.0044 3.1794
v  0.0000 0.0044 3.6714
v  -3.1795 0.0044 1.8356
v  -3.6713 0.0044 0.0000
v  -3.1795 0.0044 -1.8356
v  -1.8357 0.0044 -3.1794
v  0.0000 0.0044 -3.6714
v  1.8356 0.0044 -3.1794
v  3.1794 0.0044 -1.8356
v  3.6713 0.0044 0.0000
v  3.1794 0.0044 1.8356
v  1.8356 0.0044 3.1794
# 61 vertices

vn 0.0000 1.0000 -0.0000
vn 0.0000 0.1272 0.9919
vn 0.0000 0.2576 0.9662
vn -0.4831 0.2576 0.8368
vn -0.4959 0.1272 0.8590
vn -0.8368 0.2576 0.4831
vn -0.8590 0.1272 0.4959
vn -0.9662 0.2576 0.0000
vn -0.9919 0.1272 0.0000
vn -0.8368 0.2576 -0.4831
vn -0.8590 0.1273 -0.4959
vn -0.4831 0.2576 -0.8368
vn -0.4959 0.1273 -0.8590
vn -0.0000 0.2577 -0.9662
vn 0.0000 0.1273 -0.9919
vn 0.4831 0.2576 -0.8368
vn 0.4959 0.1272 -0.8590
vn 0.8368 0.2576 -0.4831
vn 0.8590 0.1272 -0.4959
vn 0.9662 0.2576 0.0000
vn 0.9919 0.1272 0.0000
vn 0.8368 0.2576 0.4831
vn 0.8590 0.1272 0.4959
vn 0.4831 0.2576 0.8368
vn 0.4959 0.1272 0.8590
vn 0.0000 0.0000 1.0000
vn -0.5000 0.0000 0.8660
vn -0.8660 0.0000 0.5000
vn -1.0000 0.0000 0.0000
vn -0.8660 0.0000 -0.5000
vn -0.5000 0.0000 -0.8660
vn 0.0000 0.0000 -1.0000
vn 0.5000 0.0000 -0.8660
vn 0.8660 0.0000 -0.5000
vn 1.0000 0.0000 0.0000
vn 1.0000 0.0000 -0.0000
vn 0.8660 0.0000 0.5000
vn 0.5000 0.0000 0.8660
vn 0.5000 -0.0000 0.8660
vn 1.0000 -0.0000 0.0000
vn 0.8660 -0.0000 0.5000
# 41 vertex normals

vt 0.6383 0.6065 0.0000
vt 0.6383 0.6009 0.0000
vt 0.6488 0.6035 0.0000
vt 0.6412 0.6113 0.0000
vt 0.6462 0.6140 0.0000
vt 0.6518 0.6139 0.0000
vt 0.6566 0.6110 0.0000
vt 0.6593 0.6061 0.0000
vt 0.6592 0.6005 0.0000
vt 0.6563 0.5957 0.0000
vt 0.6514 0.5930 0.0000
vt 0.6458 0.5931 0.0000
vt 0.6410 0.5960 0.0000
vt 0.9583 0.8274 0.0000
vt 0.9574 0.8347 0.0000
vt 0.9519 0.8345 0.0000
vt 0.9517 0.8271 0.0000
vt 0.9463 0.8350 0.0000
vt 0.9451 0.8277 0.0000
vt 0.9408 0.8362 0.0000
vt 0.9388 0.8292 0.0000
vt 0.9355 0.8381 0.0000
vt 0.9326 0.8314 0.0000
vt 0.9304 0.8406 0.0000
vt 0.9267 0.8343 0.0000
vt 0.9258 0.8438 0.0000
vt 0.9213 0.8380 0.0000
vt 0.9216 0.8475 0.0000
vt 0.9164 0.8424 0.0000
vt 0.9875 0.8413 0.0000
vt 0.9824 0.8465 0.0000
vt 0.9781 0.8428 0.0000
vt 0.9825 0.8369 0.0000
vt 0.9734 0.8398 0.0000
vt 0.9769 0.8334 0.0000
vt 0.9683 0.8373 0.0000
vt 0.9710 0.8306 0.0000
vt 0.9630 0.8357 0.0000
vt 0.9647 0.8286 0.0000
vt 0.7420 0.3137 0.0000
vt 0.7420 0.3294 0.0000
vt 0.7355 0.3294 0.0000
vt 0.7355 0.3137 0.0000
vt 0.7288 0.3294 0.0000
vt 0.7288 0.3137 0.0000
vt 0.7223 0.3294 0.0000
vt 0.7223 0.3137 0.0000
vt 0.7156 0.3294 0.0000
vt 0.7156 0.3137 0.0000
vt 0.7091 0.3294 0.0000
vt 0.7091 0.3137 0.0000
vt 0.7024 0.3294 0.0000
vt 0.7024 0.3137 0.0000
vt 0.6959 0.3294 0.0000
vt 0.6959 0.3137 0.0000
vt 0.7750 0.3137 0.0000
vt 0.7750 0.3294 0.0000
vt 0.7684 0.3294 0.0000
vt 0.7684 0.3137 0.0000
vt 0.7618 0.3294 0.0000
vt 0.7618 0.3137 0.0000
vt 0.7552 0.3294 0.0000
vt 0.7552 0.3137 0.0000
vt 0.7486 0.3294 0.0000
vt 0.7486 0.3137 0.0000
vt 0.7420 0.3428 0.0000
vt 0.7355 0.3428 0.0000
vt 0.7355 0.2624 0.0000
vt 0.7420 0.2624 0.0000
vt 0.7288 0.3428 0.0000
vt 0.7288 0.2624 0.0000
vt 0.7223 0.3428 0.0000
vt 0.7223 0.2624 0.0000
vt 0.7156 0.3428 0.0000
vt 0.7156 0.2624 0.0000
vt 0.7091 0.3428 0.0000
vt 0.7091 0.2624 0.0000
vt 0.7024 0.3428 0.0000
vt 0.7024 0.2624 0.0000
vt 0.6959 0.3428 0.0000
vt 0.6959 0.2624 0.0000
vt 0.7750 0.3428 0.0000
vt 0.7684 0.3428 0.0000
vt 0.7684 0.2624 0.0000
vt 0.7750 0.2624 0.0000
vt 0.7618 0.3428 0.0000
vt 0.7618 0.2624 0.0000
vt 0.7552 0.3428 0.0000
vt 0.7552 0.2624 0.0000
vt 0.7486 0.3428 0.0000
vt 0.7486 0.2624 0.0000
# 91 texture coords

g 30_plastic_mid
s 1
f 1/1/1 2/2/1 3/3/1 
f 4/4/1 1/1/1 3/3/1 
f 5/5/1 4/4/1 3/3/1 
f 6/6/1 5/5/1 3/3/1 
f 7/7/1 6/6/1 3/3/1 
f 8/8/1 7/7/1 3/3/1 
f 9/9/1 8/8/1 3/3/1 
f 10/10/1 9/9/1 3/3/1 
f 11/11/1 10/10/1 3/3/1 
f 12/12/1 11/11/1 3/3/1 
f 13/13/1 12/12/1 3/3/1 
f 2/2/1 13/13/1 3/3/1 
s 2
f 14/14/2 2/15/3 1/16/4 15/17/5 
f 15/17/5 1/16/4 4/18/6 16/19/7 
f 16/19/7 4/18/6 5/20/8 17/21/9 
f 17/21/9 5/20/8 6/22/10 18/23/11 
f 18/23/11 6/22/10 7/24/12 19/25/13 
f 19/25/13 7/24/12 8/26/14 20/27/15 
f 20/27/15 8/26/14 9/28/16 21/29/17 
f 21/30/17 9/31/16 10/32/18 22/33/19 
f 22/33/19 10/32/18 11/34/20 23/35/21 
f 23/35/21 11/34/20 12/36/22 24/37/23 
f 24/37/23 12/36/22 13/38/24 25/39/25 
f 25/39/25 13/38/24 2/15/3 14/14/2 
f 26/40/26 27/41/26 28/42/27 29/43/27 
f 29/43/27 28/42/27 30/44/28 31/45/28 
f 31/45/28 30/44/28 32/46/29 33/47/29 
f 33/47/29 32/46/29 34/48/30 35/49/30 
f 35/49/30 34/48/30 36/50/31 37/51/31 
f 37/51/31 36/50/31 38/52/32 39/53/32 
f 39/53/32 38/52/32 40/54/33 41/55/33 
f 41/56/33 40/57/33 42/58/34 43/59/34 
f 43/59/34 42/58/34 44/60/35 45/61/36 
f 45/61/36 44/60/35 46/62/37 47/63/37 
f 47/63/37 46/62/37 48/64/38 49/65/39 
f 49/65/39 48/64/38 27/41/26 26/40/26 
f 27/41/26 14/66/2 15/67/5 28/42/27 
f 29/43/27 50/68/27 51/69/26 26/40/26 
f 28/42/27 15/67/5 16/70/7 30/44/28 
f 31/45/28 52/71/28 50/68/27 29/43/27 
f 30/44/28 16/70/7 17/72/9 32/46/29 
f 33/47/29 53/73/29 52/71/28 31/45/28 
f 32/46/29 17/72/9 18/74/11 34/48/30 
f 35/49/30 54/75/30 53/73/29 33/47/29 
f 34/48/30 18/74/11 19/76/13 36/50/31 
f 37/51/31 55/77/31 54/75/30 35/49/30 
f 36/50/31 19/76/13 20/78/15 38/52/32 
f 39/53/32 56/79/32 55/77/31 37/51/31 
f 38/52/32 20/78/15 21/80/17 40/54/33 
f 41/55/33 57/81/33 56/79/32 39/53/32 
f 40/57/33 21/82/17 22/83/19 42/58/34 
f 43/59/34 58/84/34 57/85/33 41/56/33 
f 42/58/34 22/83/19 23/86/21 44/60/35 
f 45/61/36 59/87/40 58/84/34 43/59/34 
f 44/60/35 23/86/21 24/88/23 46/62/37 
f 47/63/37 60/89/41 59/87/40 45/61/36 
f 46/62/37 24/88/23 25/90/25 48/64/38 
f 49/65/39 61/91/38 60/89/41 47/63/37 
f 48/64/38 25/90/25 14/66/2 27/41/26 
f 26/40/26 51/69/26 61/91/38 49/65/39 
# 48 polygons - 12 triangles

