# 3ds Max Wavefront OBJ Exporter v0.97b - (c)2007 guruware
# File Created: 21.07.2018 03:42:27

#
# object 31_plastic_mid_2
#

v  -1.5634 23.7382 2.7079
v  -0.0000 23.7382 3.1268
v  -0.0000 23.7382 -0.0000
v  -2.7078 23.7382 1.5634
v  -3.1268 23.7382 -0.0000
v  -2.7079 23.7382 -1.5634
v  -1.5634 23.7382 -2.7079
v  -0.0000 23.7382 -3.1268
v  1.5634 23.7382 -2.7079
v  2.7079 23.7382 -1.5634
v  3.1268 23.7382 -0.0000
v  2.7079 23.7382 1.5634
v  1.5634 23.7382 2.7079
v  -0.0000 21.6960 3.6713
v  -1.8356 21.6960 3.1794
v  -3.1794 21.6960 1.8357
v  -3.6713 21.6960 -0.0000
v  -3.1794 21.6960 -1.8357
v  -1.8356 21.6960 -3.1795
v  -0.0000 21.6960 -3.6713
v  1.8357 21.6960 -3.1795
v  3.1795 21.6960 -1.8357
v  3.6714 21.6960 -0.0000
v  3.1795 21.6960 1.8357
v  1.8357 21.6960 3.1794
v  -0.0000 13.2872 3.6713
v  -0.0000 17.8309 3.6713
v  -1.8356 17.8309 3.1794
v  -1.8356 13.2872 3.1794
v  -3.1794 17.8309 1.8357
v  -3.1794 13.2872 1.8357
v  -3.6713 17.8309 -0.0000
v  -3.6713 13.2872 -0.0000
v  -3.1794 17.8309 -1.8357
v  -3.1794 13.2872 -1.8357
v  -1.8356 17.8309 -3.1795
v  -1.8356 13.2872 -3.1795
v  -0.0000 17.8309 -3.6713
v  -0.0000 13.2872 -3.6713
v  1.8357 17.8309 -3.1795
v  1.8357 13.2872 -3.1795
v  3.1795 17.8309 -1.8357
v  3.1795 13.2872 -1.8357
v  3.6714 17.8309 -0.0000
v  3.6714 13.2872 -0.0000
v  3.1795 17.8309 1.8357
v  3.1795 13.2872 1.8357
v  1.8357 17.8309 3.1794
v  1.8357 13.2872 3.1794
v  -1.8356 0.0044 3.1794
v  -0.0000 0.0044 3.6713
v  -3.1794 0.0044 1.8357
v  -3.6713 0.0044 -0.0000
v  -3.1794 0.0044 -1.8357
v  -1.8356 0.0044 -3.1795
v  -0.0000 0.0044 -3.6713
v  1.8357 0.0044 -3.1795
v  3.1795 0.0044 -1.8357
v  3.6714 0.0044 -0.0000
v  3.1795 0.0044 1.8357
v  1.8357 0.0044 3.1794
# 61 vertices

vn 0.0000 1.0000 -0.0000
vn -0.0000 0.1272 0.9919
vn 0.0000 0.2576 0.9662
vn -0.4832 0.2576 0.8368
vn -0.4959 0.1272 0.8590
vn -0.8368 0.2576 0.4831
vn -0.8590 0.1272 0.4960
vn -0.9662 0.2576 0.0000
vn -0.9919 0.1272 0.0000
vn -0.8368 0.2576 -0.4831
vn -0.8590 0.1272 -0.4959
vn -0.4831 0.2576 -0.8368
vn -0.4959 0.1272 -0.8590
vn 0.0000 0.2576 -0.9662
vn -0.0000 0.1272 -0.9919
vn 0.4831 0.2576 -0.8368
vn 0.4959 0.1273 -0.8590
vn 0.8368 0.2577 -0.4831
vn 0.8590 0.1273 -0.4959
vn 0.9662 0.2577 -0.0000
vn 0.9919 0.1273 -0.0000
vn 0.8368 0.2577 0.4831
vn 0.8590 0.1272 0.4960
vn 0.4831 0.2576 0.8368
vn 0.4959 0.1272 0.8590
vn -0.0000 0.0000 1.0000
vn -0.5000 0.0000 0.8660
vn -0.8660 0.0000 0.5000
vn -1.0000 0.0000 0.0000
vn -1.0000 0.0000 -0.0000
vn -0.8660 0.0000 -0.5000
vn -0.5000 0.0000 -0.8660
vn -0.0000 0.0000 -1.0000
vn 0.5000 0.0000 -0.8660
vn 0.8660 0.0000 -0.5000
vn 1.0000 0.0000 -0.0000
vn 0.8660 0.0000 0.5000
vn 0.5000 0.0000 0.8660
vn 1.0000 0.0000 0.0000
# 39 vertex normals

vt 0.5616 0.5033 0.0000
vt 0.5645 0.4986 0.0000
vt 0.5720 0.5064 0.0000
vt 0.5615 0.5090 0.0000
vt 0.5642 0.5139 0.0000
vt 0.5690 0.5168 0.0000
vt 0.5746 0.5169 0.0000
vt 0.5795 0.5141 0.0000
vt 0.5824 0.5094 0.0000
vt 0.5825 0.5037 0.0000
vt 0.5798 0.4988 0.0000
vt 0.5750 0.4959 0.0000
vt 0.5694 0.4958 0.0000
vt 0.6707 0.3049 0.0000
vt 0.6671 0.3113 0.0000
vt 0.6620 0.3089 0.0000
vt 0.6647 0.3021 0.0000
vt 0.6567 0.3072 0.0000
vt 0.6584 0.3001 0.0000
vt 0.6511 0.3061 0.0000
vt 0.6520 0.2989 0.0000
vt 0.6455 0.3058 0.0000
vt 0.6455 0.2985 0.0000
vt 0.6399 0.3062 0.0000
vt 0.6389 0.2990 0.0000
vt 0.6344 0.3075 0.0000
vt 0.6324 0.3003 0.0000
vt 0.6291 0.3093 0.0000
vt 0.6263 0.3026 0.0000
vt 0.6241 0.3119 0.0000
vt 0.6204 0.3056 0.0000
vt 0.6195 0.3151 0.0000
vt 0.6150 0.3094 0.0000
vt 0.6154 0.3188 0.0000
vt 0.6101 0.3138 0.0000
vt 0.6813 0.3127 0.0000
vt 0.6762 0.3180 0.0000
vt 0.6718 0.3143 0.0000
vt 0.6762 0.3084 0.0000
vt 0.8062 0.4096 0.0000
vt 0.7905 0.4096 0.0000
vt 0.7905 0.4030 0.0000
vt 0.8062 0.4030 0.0000
vt 0.7905 0.3965 0.0000
vt 0.8062 0.3965 0.0000
vt 0.7905 0.3898 0.0000
vt 0.8062 0.3898 0.0000
vt 0.7905 0.3833 0.0000
vt 0.8062 0.3833 0.0000
vt 0.7905 0.3766 0.0000
vt 0.8062 0.3766 0.0000
vt 0.7905 0.3701 0.0000
vt 0.8062 0.3701 0.0000
vt 0.7905 0.3635 0.0000
vt 0.8062 0.3635 0.0000
vt 0.7905 0.3569 0.0000
vt 0.8062 0.3569 0.0000
vt 0.7905 0.3503 0.0000
vt 0.8062 0.3503 0.0000
vt 0.7905 0.3437 0.0000
vt 0.8062 0.3437 0.0000
vt 0.8062 0.4228 0.0000
vt 0.7905 0.4228 0.0000
vt 0.7905 0.4162 0.0000
vt 0.8062 0.4162 0.0000
vt 0.7771 0.4097 0.0000
vt 0.7771 0.4030 0.0000
vt 0.8524 0.4030 0.0000
vt 0.8524 0.4096 0.0000
vt 0.7771 0.3965 0.0000
vt 0.8524 0.3965 0.0000
vt 0.7771 0.3898 0.0000
vt 0.8523 0.3898 0.0000
vt 0.7771 0.3833 0.0000
vt 0.8523 0.3833 0.0000
vt 0.7771 0.3766 0.0000
vt 0.8523 0.3766 0.0000
vt 0.7771 0.3701 0.0000
vt 0.8523 0.3701 0.0000
vt 0.7771 0.3635 0.0000
vt 0.8523 0.3635 0.0000
vt 0.7771 0.3569 0.0000
vt 0.8523 0.3569 0.0000
vt 0.7771 0.3503 0.0000
vt 0.8523 0.3503 0.0000
vt 0.7771 0.3437 0.0000
vt 0.8523 0.3437 0.0000
vt 0.7771 0.4228 0.0000
vt 0.7771 0.4162 0.0000
vt 0.8524 0.4162 0.0000
vt 0.8524 0.4228 0.0000
# 91 texture coords

g 31_plastic_mid_2
s 1
f 1/1/1 2/2/1 3/3/1 
f 4/4/1 1/1/1 3/3/1 
f 5/5/1 4/4/1 3/3/1 
f 6/6/1 5/5/1 3/3/1 
f 7/7/1 6/6/1 3/3/1 
f 8/8/1 7/7/1 3/3/1 
f 9/9/1 8/8/1 3/3/1 
f 10/10/1 9/9/1 3/3/1 
f 11/11/1 10/10/1 3/3/1 
f 12/12/1 11/11/1 3/3/1 
f 13/13/1 12/12/1 3/3/1 
f 2/2/1 13/13/1 3/3/1 
s 2
f 14/14/2 2/15/3 1/16/4 15/17/5 
f 15/17/5 1/16/4 4/18/6 16/19/7 
f 16/19/7 4/18/6 5/20/8 17/21/9 
f 17/21/9 5/20/8 6/22/10 18/23/11 
f 18/23/11 6/22/10 7/24/12 19/25/13 
f 19/25/13 7/24/12 8/26/14 20/27/15 
f 20/27/15 8/26/14 9/28/16 21/29/17 
f 21/29/17 9/28/16 10/30/18 22/31/19 
f 22/31/19 10/30/18 11/32/20 23/33/21 
f 23/33/21 11/32/20 12/34/22 24/35/23 
f 24/36/23 12/37/22 13/38/24 25/39/25 
f 25/39/25 13/38/24 2/15/3 14/14/2 
f 26/40/26 27/41/26 28/42/27 29/43/27 
f 29/43/27 28/42/27 30/44/28 31/45/28 
f 31/45/28 30/44/28 32/46/29 33/47/30 
f 33/47/30 32/46/29 34/48/31 35/49/31 
f 35/49/31 34/48/31 36/50/32 37/51/32 
f 37/51/32 36/50/32 38/52/33 39/53/33 
f 39/53/33 38/52/33 40/54/34 41/55/34 
f 41/55/34 40/54/34 42/56/35 43/57/35 
f 43/57/35 42/56/35 44/58/36 45/59/36 
f 45/59/36 44/58/36 46/60/37 47/61/37 
f 47/62/37 46/63/37 48/64/38 49/65/38 
f 49/65/38 48/64/38 27/41/26 26/40/26 
f 27/41/26 14/66/2 15/67/5 28/42/27 
f 29/43/27 50/68/27 51/69/26 26/40/26 
f 28/42/27 15/67/5 16/70/7 30/44/28 
f 31/45/28 52/71/28 50/68/27 29/43/27 
f 30/44/28 16/70/7 17/72/9 32/46/29 
f 33/47/30 53/73/30 52/71/28 31/45/28 
f 32/46/29 17/72/9 18/74/11 34/48/31 
f 35/49/31 54/75/31 53/73/30 33/47/30 
f 34/48/31 18/74/11 19/76/13 36/50/32 
f 37/51/32 55/77/32 54/75/31 35/49/31 
f 36/50/32 19/76/13 20/78/15 38/52/33 
f 39/53/33 56/79/33 55/77/32 37/51/32 
f 38/52/33 20/78/15 21/80/17 40/54/34 
f 41/55/34 57/81/34 56/79/33 39/53/33 
f 40/54/34 21/80/17 22/82/19 42/56/35 
f 43/57/35 58/83/35 57/81/34 41/55/34 
f 42/56/35 22/82/19 23/84/21 44/58/36 
f 45/59/36 59/85/39 58/83/35 43/57/35 
f 44/58/36 23/84/21 24/86/23 46/60/37 
f 47/61/37 60/87/37 59/85/39 45/59/36 
f 46/63/37 24/88/23 25/89/25 48/64/38 
f 49/65/38 61/90/38 60/91/37 47/62/37 
f 48/64/38 25/89/25 14/66/2 27/41/26 
f 26/40/26 51/69/26 61/90/38 49/65/38 
# 48 polygons - 12 triangles

