# 3ds Max Wavefront OBJ Exporter v0.97b - (c)2007 guruware
# File Created: 21.07.2018 03:42:43

#
# object 32_plastic_mid_3
#

v  -1.5634 23.5125 2.7079
v  -0.0000 23.5125 3.1268
v  -0.0000 23.5125 -0.0000
v  -2.7079 23.5125 1.5634
v  -3.1268 23.5125 -0.0000
v  -2.7079 23.5125 -1.5634
v  -1.5634 23.5125 -2.7079
v  -0.0000 23.5125 -3.1268
v  1.5634 23.5125 -2.7079
v  2.7079 23.5125 -1.5634
v  3.1268 23.5125 -0.0000
v  2.7079 23.5125 1.5634
v  1.5634 23.5125 2.7079
v  -0.0000 21.4703 3.6713
v  -1.8357 21.4703 3.1795
v  -3.1795 21.4703 1.8357
v  -3.6713 21.4703 -0.0000
v  -3.1795 21.4703 -1.8356
v  -1.8357 21.4703 -3.1795
v  -0.0000 21.4703 -3.6713
v  1.8357 21.4703 -3.1795
v  3.1795 21.4703 -1.8356
v  3.6713 21.4703 -0.0000
v  3.1795 21.4703 1.8357
v  1.8357 21.4703 3.1795
v  -1.8357 0.0044 3.1795
v  -0.0000 0.0044 3.6713
v  -3.1795 0.0044 1.8357
v  -3.6713 0.0044 -0.0000
v  -3.1795 0.0044 -1.8356
v  -1.8357 0.0044 -3.1795
v  -0.0000 0.0044 -3.6713
v  1.8357 0.0044 -3.1795
v  3.1795 0.0044 -1.8356
v  3.6713 0.0044 -0.0000
v  3.1795 0.0044 1.8357
v  1.8357 0.0044 3.1795
# 37 vertices

vn 0.0000 1.0000 -0.0000
vn -0.0000 0.1272 0.9919
vn -0.0000 0.2576 0.9662
vn -0.4831 0.2576 0.8368
vn -0.4959 0.1273 0.8590
vn -0.8368 0.2577 0.4831
vn -0.8590 0.1272 0.4959
vn -0.9662 0.2576 -0.0000
vn -0.9919 0.1272 -0.0000
vn -0.8368 0.2576 -0.4831
vn -0.8590 0.1272 -0.4959
vn -0.4831 0.2576 -0.8368
vn -0.4959 0.1272 -0.8590
vn 0.0000 0.2576 -0.9662
vn 0.0000 0.1272 -0.9919
vn 0.4831 0.2576 -0.8368
vn 0.4959 0.1272 -0.8590
vn 0.8368 0.2576 -0.4831
vn 0.8590 0.1272 -0.4959
vn 0.9662 0.2576 0.0000
vn 0.9919 0.1272 -0.0000
vn 0.8368 0.2576 0.4831
vn 0.8590 0.1273 0.4959
vn 0.4831 0.2577 0.8368
vn 0.4959 0.1272 0.8590
vn -0.5000 0.0000 0.8660
vn -0.0000 0.0000 1.0000
vn -0.8660 0.0000 0.5000
vn -1.0000 0.0000 -0.0000
vn -0.8660 0.0000 -0.5000
vn -0.5000 0.0000 -0.8660
vn 0.0000 0.0000 -1.0000
vn 0.5000 0.0000 -0.8660
vn 0.8660 0.0000 -0.5000
vn 1.0000 0.0000 -0.0000
vn 0.8660 0.0000 0.5000
vn 0.5000 0.0000 0.8660
# 37 vertex normals

vt 0.6451 0.7335 0.0000
vt 0.6479 0.7384 0.0000
vt 0.6373 0.7410 0.0000
vt 0.6403 0.7306 0.0000
vt 0.6347 0.7305 0.0000
vt 0.6298 0.7332 0.0000
vt 0.6269 0.7380 0.0000
vt 0.6268 0.7436 0.0000
vt 0.6295 0.7485 0.0000
vt 0.6343 0.7514 0.0000
vt 0.6400 0.7515 0.0000
vt 0.6449 0.7488 0.0000
vt 0.6478 0.7440 0.0000
vt 0.7075 0.3539 0.0000
vt 0.7138 0.3577 0.0000
vt 0.7113 0.3627 0.0000
vt 0.7045 0.3598 0.0000
vt 0.7093 0.3680 0.0000
vt 0.7023 0.3660 0.0000
vt 0.7082 0.3734 0.0000
vt 0.7010 0.3725 0.0000
vt 0.7078 0.3791 0.0000
vt 0.7004 0.3790 0.0000
vt 0.7081 0.3847 0.0000
vt 0.7008 0.3856 0.0000
vt 0.7091 0.3902 0.0000
vt 0.7020 0.3921 0.0000
vt 0.7108 0.3956 0.0000
vt 0.7040 0.3983 0.0000
vt 0.7132 0.4007 0.0000
vt 0.7068 0.4043 0.0000
vt 0.7163 0.4054 0.0000
vt 0.7104 0.4098 0.0000
vt 0.7198 0.4098 0.0000
vt 0.7146 0.4148 0.0000
vt 0.7157 0.3437 0.0000
vt 0.7208 0.3490 0.0000
vt 0.7171 0.3531 0.0000
vt 0.7113 0.3485 0.0000
vt 0.8159 0.4994 0.0000
vt 0.8094 0.4994 0.0000
vt 0.8094 0.4249 0.0000
vt 0.8159 0.4249 0.0000
vt 0.8027 0.4994 0.0000
vt 0.8027 0.4249 0.0000
vt 0.7962 0.4994 0.0000
vt 0.7962 0.4249 0.0000
vt 0.7896 0.4994 0.0000
vt 0.7896 0.4249 0.0000
vt 0.7830 0.4994 0.0000
vt 0.7830 0.4249 0.0000
vt 0.7764 0.4994 0.0000
vt 0.7764 0.4249 0.0000
vt 0.7698 0.4994 0.0000
vt 0.7698 0.4249 0.0000
vt 0.7632 0.4994 0.0000
vt 0.7632 0.4249 0.0000
vt 0.7567 0.4994 0.0000
vt 0.7567 0.4249 0.0000
vt 0.7500 0.4994 0.0000
vt 0.7500 0.4249 0.0000
vt 0.8291 0.4994 0.0000
vt 0.8226 0.4994 0.0000
vt 0.8226 0.4249 0.0000
vt 0.8291 0.4249 0.0000
# 65 texture coords

g 32_plastic_mid_3
s 1
f 1/1/1 2/2/1 3/3/1 
f 4/4/1 1/1/1 3/3/1 
f 5/5/1 4/4/1 3/3/1 
f 6/6/1 5/5/1 3/3/1 
f 7/7/1 6/6/1 3/3/1 
f 8/8/1 7/7/1 3/3/1 
f 9/9/1 8/8/1 3/3/1 
f 10/10/1 9/9/1 3/3/1 
f 11/11/1 10/10/1 3/3/1 
f 12/12/1 11/11/1 3/3/1 
f 13/13/1 12/12/1 3/3/1 
f 2/2/1 13/13/1 3/3/1 
s 2
f 14/14/2 2/15/3 1/16/4 15/17/5 
f 15/17/5 1/16/4 4/18/6 16/19/7 
f 16/19/7 4/18/6 5/20/8 17/21/9 
f 17/21/9 5/20/8 6/22/10 18/23/11 
f 18/23/11 6/22/10 7/24/12 19/25/13 
f 19/25/13 7/24/12 8/26/14 20/27/15 
f 20/27/15 8/26/14 9/28/16 21/29/17 
f 21/29/17 9/28/16 10/30/18 22/31/19 
f 22/31/19 10/30/18 11/32/20 23/33/21 
f 23/33/21 11/32/20 12/34/22 24/35/23 
f 24/36/23 12/37/22 13/38/24 25/39/25 
f 25/39/25 13/38/24 2/15/3 14/14/2 
f 14/40/2 15/41/5 26/42/26 27/43/27 
f 15/41/5 16/44/7 28/45/28 26/42/26 
f 16/44/7 17/46/9 29/47/29 28/45/28 
f 17/46/9 18/48/11 30/49/30 29/47/29 
f 18/48/11 19/50/13 31/51/31 30/49/30 
f 19/50/13 20/52/15 32/53/32 31/51/31 
f 20/52/15 21/54/17 33/55/33 32/53/32 
f 21/54/17 22/56/19 34/57/34 33/55/33 
f 22/56/19 23/58/21 35/59/35 34/57/34 
f 23/58/21 24/60/23 36/61/36 35/59/35 
f 24/62/23 25/63/25 37/64/37 36/65/36 
f 25/63/25 14/40/2 27/43/27 37/64/37 
# 24 polygons - 12 triangles

