# 3ds Max Wavefront OBJ Exporter v0.97b - (c)2007 guruware
# File Created: 21.07.2018 03:43:13

#
# object 33_plastic_small
#

v  -1.8357 17.3751 3.1795
v  -1.8357 2.0467 3.1795
v  0.0000 2.0467 3.6714
v  0.0000 17.3751 3.6714
v  -3.1795 17.3751 1.8357
v  -3.1795 2.0467 1.8357
v  -3.6713 17.3751 -0.0000
v  -3.6713 2.0467 -0.0000
v  -3.1795 17.3751 -1.8356
v  -3.1795 2.0467 -1.8356
v  -1.8357 17.3751 -3.1794
v  -1.8357 2.0467 -3.1794
v  0.0000 17.3751 -3.6713
v  0.0000 2.0467 -3.6713
v  1.8357 17.3751 -3.1794
v  1.8357 2.0467 -3.1794
v  3.1795 17.3751 -1.8356
v  3.1795 2.0467 -1.8356
v  3.6713 17.3751 -0.0000
v  3.6713 2.0467 -0.0000
v  3.1795 17.3751 1.8357
v  3.1795 2.0467 1.8357
v  1.8357 17.3751 3.1795
v  1.8357 2.0467 3.1795
v  0.0000 0.0044 3.1268
v  -1.5634 0.0044 2.7079
v  0.0000 0.0044 -0.0000
v  -2.7079 0.0044 1.5634
v  -3.1268 0.0044 -0.0000
v  -2.7079 0.0044 -1.5634
v  -1.5634 0.0044 -2.7078
v  0.0000 0.0044 -3.1268
v  1.5634 0.0044 -2.7078
v  2.7079 0.0044 -1.5634
v  3.1268 0.0044 -0.0000
v  2.7079 0.0044 1.5634
v  1.5634 0.0044 2.7079
v  -1.5634 19.4174 2.7079
v  0.0000 19.4174 3.1268
v  0.0000 19.4174 -0.0000
v  -2.7079 19.4174 1.5634
v  -3.1268 19.4174 -0.0000
v  -2.7079 19.4174 -1.5633
v  -1.5634 19.4174 -2.7078
v  0.0000 19.4174 -3.1268
v  1.5634 19.4174 -2.7078
v  2.7079 19.4174 -1.5633
v  3.1268 19.4174 -0.0000
v  2.7079 19.4174 1.5634
v  1.5634 19.4174 2.7079
# 50 vertices

vn -0.4959 0.1272 0.8590
vn -0.4959 -0.1272 0.8590
vn -0.0000 -0.1273 0.9919
vn 0.0000 0.1273 0.9919
vn -0.8590 0.1272 0.4959
vn -0.8590 -0.1272 0.4959
vn -0.9919 0.1272 -0.0000
vn -0.9919 -0.1272 -0.0000
vn -0.8590 0.1272 -0.4959
vn -0.8590 -0.1272 -0.4959
vn -0.4959 0.1272 -0.8590
vn -0.4959 -0.1272 -0.8590
vn 0.0000 0.1272 -0.9919
vn -0.0000 -0.1272 -0.9919
vn 0.4959 0.1272 -0.8590
vn 0.4959 -0.1272 -0.8590
vn 0.8590 0.1272 -0.4959
vn 0.8590 -0.1272 -0.4959
vn 0.9919 0.1272 -0.0000
vn 0.9919 -0.1272 -0.0000
vn 0.8590 0.1272 0.4959
vn 0.8590 -0.1272 0.4959
vn 0.4959 0.1272 0.8590
vn 0.4959 -0.1272 0.8590
vn 0.0000 -1.0000 -0.0000
vn 0.0000 1.0000 -0.0000
vn -0.4831 -0.2576 0.8368
vn -0.0000 -0.2577 0.9662
vn 0.0000 0.2577 0.9662
vn -0.4831 0.2576 0.8368
vn -0.8368 -0.2576 0.4831
vn -0.8368 0.2576 0.4831
vn -0.9662 -0.2576 0.0000
vn -0.9662 0.2576 -0.0000
vn -0.8368 -0.2576 -0.4831
vn -0.8368 0.2576 -0.4831
vn -0.4831 -0.2576 -0.8368
vn -0.4831 0.2576 -0.8368
vn -0.0000 -0.2576 -0.9662
vn 0.0000 0.2576 -0.9662
vn 0.4831 -0.2576 -0.8368
vn 0.4831 0.2576 -0.8368
vn 0.8368 -0.2576 -0.4831
vn 0.8368 0.2576 -0.4831
vn 0.9662 -0.2576 -0.0000
vn 0.9662 0.2576 0.0000
vn 0.8368 -0.2576 0.4831
vn 0.8368 0.2576 0.4831
vn 0.4831 -0.2576 0.8368
vn 0.4831 0.2576 0.8368
# 50 vertex normals

vt 0.8223 0.5569 0.0000
vt 0.8755 0.5569 0.0000
vt 0.8755 0.5635 0.0000
vt 0.8223 0.5635 0.0000
vt 0.8223 0.5503 0.0000
vt 0.8755 0.5503 0.0000
vt 0.8223 0.5437 0.0000
vt 0.8755 0.5437 0.0000
vt 0.8223 0.5371 0.0000
vt 0.8755 0.5371 0.0000
vt 0.8223 0.5306 0.0000
vt 0.8755 0.5306 0.0000
vt 0.8223 0.5239 0.0000
vt 0.8755 0.5239 0.0000
vt 0.8223 0.5174 0.0000
vt 0.8755 0.5174 0.0000
vt 0.8223 0.5107 0.0000
vt 0.8755 0.5107 0.0000
vt 0.8223 0.5833 0.0000
vt 0.8755 0.5833 0.0000
vt 0.8755 0.5898 0.0000
vt 0.8223 0.5898 0.0000
vt 0.8223 0.5766 0.0000
vt 0.8755 0.5766 0.0000
vt 0.8223 0.5701 0.0000
vt 0.8755 0.5701 0.0000
vt 0.6578 0.6820 0.0000
vt 0.6522 0.6821 0.0000
vt 0.6548 0.6716 0.0000
vt 0.6473 0.6794 0.0000
vt 0.6444 0.6746 0.0000
vt 0.6443 0.6690 0.0000
vt 0.6470 0.6641 0.0000
vt 0.6518 0.6612 0.0000
vt 0.6575 0.6611 0.0000
vt 0.6624 0.6638 0.0000
vt 0.6653 0.6686 0.0000
vt 0.6654 0.6742 0.0000
vt 0.6626 0.6791 0.0000
vt 0.6149 0.5969 0.0000
vt 0.6198 0.5942 0.0000
vt 0.6224 0.6048 0.0000
vt 0.6120 0.6018 0.0000
vt 0.6119 0.6074 0.0000
vt 0.6146 0.6123 0.0000
vt 0.6195 0.6152 0.0000
vt 0.6251 0.6153 0.0000
vt 0.6300 0.6126 0.0000
vt 0.6329 0.6077 0.0000
vt 0.6330 0.6021 0.0000
vt 0.6303 0.5972 0.0000
vt 0.6254 0.5943 0.0000
vt 0.6391 0.3531 0.0000
vt 0.6399 0.3603 0.0000
vt 0.6344 0.3615 0.0000
vt 0.6326 0.3543 0.0000
vt 0.6586 0.3364 0.0000
vt 0.6567 0.3434 0.0000
vt 0.6512 0.3423 0.0000
vt 0.6522 0.3350 0.0000
vt 0.6456 0.3527 0.0000
vt 0.6455 0.3600 0.0000
vt 0.6456 0.3420 0.0000
vt 0.6456 0.3346 0.0000
vt 0.6522 0.3532 0.0000
vt 0.6512 0.3604 0.0000
vt 0.6399 0.3423 0.0000
vt 0.6390 0.3351 0.0000
vt 0.6586 0.3545 0.0000
vt 0.6567 0.3616 0.0000
vt 0.6344 0.3435 0.0000
vt 0.6325 0.3364 0.0000
vt 0.6649 0.3567 0.0000
vt 0.6620 0.3635 0.0000
vt 0.6291 0.3453 0.0000
vt 0.6263 0.3386 0.0000
vt 0.6708 0.3597 0.0000
vt 0.6669 0.3660 0.0000
vt 0.6241 0.3478 0.0000
vt 0.6204 0.3416 0.0000
vt 0.6762 0.3635 0.0000
vt 0.6715 0.3693 0.0000
vt 0.6195 0.3510 0.0000
vt 0.6150 0.3452 0.0000
vt 0.6810 0.3679 0.0000
vt 0.6757 0.3730 0.0000
vt 0.6154 0.3548 0.0000
vt 0.6101 0.3497 0.0000
vt 0.6150 0.3631 0.0000
vt 0.6194 0.3689 0.0000
vt 0.6153 0.3726 0.0000
vt 0.6101 0.3674 0.0000
vt 0.6811 0.3496 0.0000
vt 0.6758 0.3547 0.0000
vt 0.6716 0.3509 0.0000
vt 0.6762 0.3451 0.0000
vt 0.6204 0.3593 0.0000
vt 0.6241 0.3657 0.0000
vt 0.6670 0.3477 0.0000
vt 0.6708 0.3415 0.0000
vt 0.6264 0.3565 0.0000
vt 0.6291 0.3632 0.0000
vt 0.6620 0.3452 0.0000
vt 0.6648 0.3385 0.0000
# 104 texture coords

g 33_plastic_small
s 1
f 1/1/1 2/2/2 3/3/3 4/4/4 
f 5/5/5 6/6/6 2/2/2 1/1/1 
f 7/7/7 8/8/8 6/6/6 5/5/5 
f 9/9/9 10/10/10 8/8/8 7/7/7 
f 11/11/11 12/12/12 10/10/10 9/9/9 
f 13/13/13 14/14/14 12/12/12 11/11/11 
f 15/15/15 16/16/16 14/14/14 13/13/13 
f 17/17/17 18/18/18 16/16/16 15/15/15 
f 19/19/19 20/20/20 18/21/18 17/22/17 
f 21/23/21 22/24/22 20/20/20 19/19/19 
f 23/25/23 24/26/24 22/24/22 21/23/21 
f 4/4/4 3/3/3 24/26/24 23/25/23 
s 2
f 25/27/25 26/28/25 27/29/25 
f 26/28/25 28/30/25 27/29/25 
f 28/30/25 29/31/25 27/29/25 
f 29/31/25 30/32/25 27/29/25 
f 30/32/25 31/33/25 27/29/25 
f 31/33/25 32/34/25 27/29/25 
f 32/34/25 33/35/25 27/29/25 
f 33/35/25 34/36/25 27/29/25 
f 34/36/25 35/37/25 27/29/25 
f 35/37/25 36/38/25 27/29/25 
f 36/38/25 37/39/25 27/29/25 
f 37/39/25 25/27/25 27/29/25 
f 38/40/26 39/41/26 40/42/26 
f 41/43/26 38/40/26 40/42/26 
f 42/44/26 41/43/26 40/42/26 
f 43/45/26 42/44/26 40/42/26 
f 44/46/26 43/45/26 40/42/26 
f 45/47/26 44/46/26 40/42/26 
f 46/48/26 45/47/26 40/42/26 
f 47/49/26 46/48/26 40/42/26 
f 48/50/26 47/49/26 40/42/26 
f 49/51/26 48/50/26 40/42/26 
f 50/52/26 49/51/26 40/42/26 
f 39/41/26 50/52/26 40/42/26 
s 1
f 2/53/2 26/54/27 25/55/28 3/56/3 
f 4/57/4 39/58/29 38/59/30 1/60/1 
f 6/61/6 28/62/31 26/54/27 2/53/2 
f 1/60/1 38/59/30 41/63/32 5/64/5 
f 8/65/8 29/66/33 28/62/31 6/61/6 
f 5/64/5 41/63/32 42/67/34 7/68/7 
f 10/69/10 30/70/35 29/66/33 8/65/8 
f 7/68/7 42/67/34 43/71/36 9/72/9 
f 12/73/12 31/74/37 30/70/35 10/69/10 
f 9/72/9 43/71/36 44/75/38 11/76/11 
f 14/77/14 32/78/39 31/74/37 12/73/12 
f 11/76/11 44/75/38 45/79/40 13/80/13 
f 16/81/16 33/82/41 32/78/39 14/77/14 
f 13/80/13 45/79/40 46/83/42 15/84/15 
f 18/85/18 34/86/43 33/82/41 16/81/16 
f 15/84/15 46/83/42 47/87/44 17/88/17 
f 20/89/20 35/90/45 34/91/43 18/92/18 
f 17/93/17 47/94/44 48/95/46 19/96/19 
f 22/97/22 36/98/47 35/90/45 20/89/20 
f 19/96/19 48/95/46 49/99/48 21/100/21 
f 24/101/24 37/102/49 36/98/47 22/97/22 
f 21/100/21 49/99/48 50/103/50 23/104/23 
f 3/56/3 25/55/28 37/102/49 24/101/24 
f 23/104/23 50/103/50 39/58/29 4/57/4 
# 36 polygons - 24 triangles

