# 3ds Max Wavefront OBJ Exporter v0.97b - (c)2007 guruware
# File Created: 21.07.2018 03:44:48

#
# object 35_plastic_med
#

v  -0.6557 22.2413 1.1357
v  -0.6557 0.7339 1.1357
v  0.0000 0.7339 1.3114
v  0.0000 22.2413 1.3114
v  -1.1357 22.2413 0.6557
v  -1.1357 0.7339 0.6557
v  -1.3114 22.2413 -0.0000
v  -1.3114 0.7339 -0.0000
v  -1.1357 22.2413 -0.6557
v  -1.1357 0.7339 -0.6557
v  -0.6557 22.2413 -1.1357
v  -0.6557 0.7339 -1.1357
v  0.0000 22.2413 -1.3114
v  0.0000 0.7339 -1.3114
v  0.6557 22.2413 -1.1357
v  0.6557 0.7339 -1.1357
v  1.1357 22.2413 -0.6557
v  1.1357 0.7339 -0.6557
v  1.3114 22.2413 -0.0000
v  1.3114 0.7339 -0.0000
v  1.1357 22.2413 0.6557
v  1.1357 0.7339 0.6557
v  0.6557 22.2413 1.1357
v  0.6557 0.7339 1.1357
v  0.0000 0.0044 1.1169
v  -0.5584 0.0044 0.9673
v  0.0000 0.0044 -0.0000
v  -0.9673 0.0044 0.5585
v  -1.1169 0.0044 -0.0000
v  -0.9673 0.0044 -0.5584
v  -0.5584 0.0044 -0.9673
v  0.0000 0.0044 -1.1169
v  0.5585 0.0044 -0.9673
v  0.9673 0.0044 -0.5584
v  1.1169 0.0044 -0.0000
v  0.9673 0.0044 0.5585
v  0.5585 0.0044 0.9673
v  -0.5584 22.9708 0.9673
v  0.0000 22.9708 1.1169
v  0.0000 22.9708 -0.0000
v  -0.9673 22.9708 0.5585
v  -1.1169 22.9708 -0.0000
v  -0.9673 22.9708 -0.5584
v  -0.5584 22.9708 -0.9673
v  0.0000 22.9708 -1.1169
v  0.5585 22.9708 -0.9672
v  0.9673 22.9708 -0.5584
v  1.1169 22.9708 -0.0000
v  0.9673 22.9708 0.5585
v  0.5585 22.9708 0.9673
# 50 vertices

vn -0.4959 0.1272 0.8590
vn -0.4959 -0.1272 0.8590
vn -0.0000 -0.1272 0.9919
vn 0.0000 0.1272 0.9919
vn -0.8590 0.1272 0.4959
vn -0.8590 -0.1272 0.4959
vn -0.9919 0.1272 0.0000
vn -0.9919 -0.1272 -0.0000
vn -0.8590 0.1272 -0.4959
vn -0.8590 -0.1272 -0.4959
vn -0.4959 0.1272 -0.8590
vn -0.4959 -0.1272 -0.8590
vn 0.0000 0.1272 -0.9919
vn 0.0000 -0.1272 -0.9919
vn 0.4959 0.1273 -0.8590
vn 0.4959 -0.1272 -0.8590
vn 0.8590 0.1272 -0.4959
vn 0.8590 -0.1272 -0.4959
vn 0.9919 0.1272 -0.0000
vn 0.9919 -0.1272 0.0000
vn 0.8590 0.1272 0.4959
vn 0.8590 -0.1272 0.4959
vn 0.4959 0.1272 0.8590
vn 0.4959 -0.1272 0.8590
vn 0.0000 -1.0000 -0.0000
vn 0.0000 1.0000 -0.0000
vn -0.4831 -0.2576 0.8368
vn -0.0000 -0.2576 0.9662
vn 0.0000 0.2576 0.9663
vn -0.4831 0.2576 0.8368
vn -0.8368 -0.2576 0.4832
vn -0.8368 0.2576 0.4831
vn -0.9662 -0.2576 -0.0000
vn -0.9663 0.2576 -0.0000
vn -0.8368 -0.2576 -0.4831
vn -0.8368 0.2576 -0.4831
vn -0.4831 -0.2576 -0.8368
vn -0.4831 0.2576 -0.8368
vn 0.0000 -0.2576 -0.9663
vn 0.0001 0.2576 -0.9662
vn 0.4831 -0.2576 -0.8368
vn 0.4832 0.2576 -0.8368
vn 0.8368 -0.2576 -0.4830
vn 0.8368 0.2576 -0.4831
vn 0.9663 -0.2576 -0.0000
vn 0.9663 0.2576 -0.0000
vn 0.8368 -0.2575 0.4831
vn 0.8368 0.2576 0.4831
vn 0.4831 -0.2576 0.8368
vn 0.4831 0.2575 0.8368
# 50 vertex normals

vt 0.6056 0.2814 0.0000
vt 0.6802 0.2814 0.0000
vt 0.6802 0.2837 0.0000
vt 0.6056 0.2837 0.0000
vt 0.6056 0.2791 0.0000
vt 0.6802 0.2791 0.0000
vt 0.6056 0.2767 0.0000
vt 0.6802 0.2767 0.0000
vt 0.6056 0.2744 0.0000
vt 0.6802 0.2744 0.0000
vt 0.6056 0.2719 0.0000
vt 0.6802 0.2719 0.0000
vt 0.6056 0.2696 0.0000
vt 0.6802 0.2696 0.0000
vt 0.6056 0.2672 0.0000
vt 0.6802 0.2672 0.0000
vt 0.6056 0.2649 0.0000
vt 0.6802 0.2649 0.0000
vt 0.6056 0.2626 0.0000
vt 0.6802 0.2626 0.0000
vt 0.6056 0.2602 0.0000
vt 0.6802 0.2602 0.0000
vt 0.6056 0.2579 0.0000
vt 0.6802 0.2579 0.0000
vt 0.6802 0.2861 0.0000
vt 0.6056 0.2861 0.0000
vt 0.6925 0.5194 0.0000
vt 0.6907 0.5184 0.0000
vt 0.6934 0.5156 0.0000
vt 0.6897 0.5167 0.0000
vt 0.6897 0.5147 0.0000
vt 0.6906 0.5129 0.0000
vt 0.6924 0.5119 0.0000
vt 0.6943 0.5119 0.0000
vt 0.6961 0.5128 0.0000
vt 0.6971 0.5146 0.0000
vt 0.6972 0.5166 0.0000
vt 0.6962 0.5183 0.0000
vt 0.6945 0.5194 0.0000
vt 0.6442 0.5346 0.0000
vt 0.6421 0.5346 0.0000
vt 0.6431 0.5309 0.0000
vt 0.6459 0.5336 0.0000
vt 0.6469 0.5318 0.0000
vt 0.6468 0.5298 0.0000
vt 0.6458 0.5281 0.0000
vt 0.6440 0.5271 0.0000
vt 0.6420 0.5272 0.0000
vt 0.6403 0.5282 0.0000
vt 0.6393 0.5300 0.0000
vt 0.6393 0.5319 0.0000
vt 0.6404 0.5337 0.0000
vt 0.5584 0.3835 0.0000
vt 0.5607 0.3821 0.0000
vt 0.5618 0.3837 0.0000
vt 0.5598 0.3854 0.0000
vt 0.6174 0.5797 0.0000
vt 0.6152 0.5781 0.0000
vt 0.6164 0.5764 0.0000
vt 0.6186 0.5778 0.0000
vt 0.5573 0.3813 0.0000
vt 0.5598 0.3804 0.0000
vt 0.6174 0.5746 0.0000
vt 0.6197 0.5757 0.0000
vt 0.5566 0.3791 0.0000
vt 0.5591 0.3785 0.0000
vt 0.6179 0.5728 0.0000
vt 0.6205 0.5734 0.0000
vt 0.5561 0.3768 0.0000
vt 0.5587 0.3765 0.0000
vt 0.6183 0.5707 0.0000
vt 0.6209 0.5710 0.0000
vt 0.5559 0.3745 0.0000
vt 0.5586 0.3745 0.0000
vt 0.6184 0.5687 0.0000
vt 0.6210 0.5687 0.0000
vt 0.5561 0.3722 0.0000
vt 0.5587 0.3725 0.0000
vt 0.6182 0.5667 0.0000
vt 0.6208 0.5664 0.0000
vt 0.5565 0.3699 0.0000
vt 0.5591 0.3705 0.0000
vt 0.6178 0.5648 0.0000
vt 0.6204 0.5641 0.0000
vt 0.5572 0.3677 0.0000
vt 0.5596 0.3687 0.0000
vt 0.6172 0.5628 0.0000
vt 0.6196 0.5619 0.0000
vt 0.5582 0.3656 0.0000
vt 0.5605 0.3668 0.0000
vt 0.6163 0.5611 0.0000
vt 0.6185 0.5597 0.0000
vt 0.5594 0.3636 0.0000
vt 0.5616 0.3651 0.0000
vt 0.6151 0.5594 0.0000
vt 0.6173 0.5578 0.0000
vt 0.5610 0.3617 0.0000
vt 0.5629 0.3636 0.0000
vt 0.6138 0.5579 0.0000
vt 0.6156 0.5560 0.0000
vt 0.5631 0.3853 0.0000
vt 0.5613 0.3871 0.0000
vt 0.6158 0.5815 0.0000
vt 0.6140 0.5796 0.0000
# 104 texture coords

g 35_plastic_med
s 1
f 1/1/1 2/2/2 3/3/3 4/4/4 
f 5/5/5 6/6/6 2/2/2 1/1/1 
f 7/7/7 8/8/8 6/6/6 5/5/5 
f 9/9/9 10/10/10 8/8/8 7/7/7 
f 11/11/11 12/12/12 10/10/10 9/9/9 
f 13/13/13 14/14/14 12/12/12 11/11/11 
f 15/15/15 16/16/16 14/14/14 13/13/13 
f 17/17/17 18/18/18 16/16/16 15/15/15 
f 19/19/19 20/20/20 18/18/18 17/17/17 
f 21/21/21 22/22/22 20/20/20 19/19/19 
f 23/23/23 24/24/24 22/22/22 21/21/21 
f 4/4/4 3/3/3 24/25/24 23/26/23 
s 2
f 25/27/25 26/28/25 27/29/25 
f 26/28/25 28/30/25 27/29/25 
f 28/30/25 29/31/25 27/29/25 
f 29/31/25 30/32/25 27/29/25 
f 30/32/25 31/33/25 27/29/25 
f 31/33/25 32/34/25 27/29/25 
f 32/34/25 33/35/25 27/29/25 
f 33/35/25 34/36/25 27/29/25 
f 34/36/25 35/37/25 27/29/25 
f 35/37/25 36/38/25 27/29/25 
f 36/38/25 37/39/25 27/29/25 
f 37/39/25 25/27/25 27/29/25 
f 38/40/26 39/41/26 40/42/26 
f 41/43/26 38/40/26 40/42/26 
f 42/44/26 41/43/26 40/42/26 
f 43/45/26 42/44/26 40/42/26 
f 44/46/26 43/45/26 40/42/26 
f 45/47/26 44/46/26 40/42/26 
f 46/48/26 45/47/26 40/42/26 
f 47/49/26 46/48/26 40/42/26 
f 48/50/26 47/49/26 40/42/26 
f 49/51/26 48/50/26 40/42/26 
f 50/52/26 49/51/26 40/42/26 
f 39/41/26 50/52/26 40/42/26 
s 1
f 2/53/2 26/54/27 25/55/28 3/56/3 
f 4/57/4 39/58/29 38/59/30 1/60/1 
f 6/61/6 28/62/31 26/54/27 2/53/2 
f 1/60/1 38/59/30 41/63/32 5/64/5 
f 8/65/8 29/66/33 28/62/31 6/61/6 
f 5/64/5 41/63/32 42/67/34 7/68/7 
f 10/69/10 30/70/35 29/66/33 8/65/8 
f 7/68/7 42/67/34 43/71/36 9/72/9 
f 12/73/12 31/74/37 30/70/35 10/69/10 
f 9/72/9 43/71/36 44/75/38 11/76/11 
f 14/77/14 32/78/39 31/74/37 12/73/12 
f 11/76/11 44/75/38 45/79/40 13/80/13 
f 16/81/16 33/82/41 32/78/39 14/77/14 
f 13/80/13 45/79/40 46/83/42 15/84/15 
f 18/85/18 34/86/43 33/82/41 16/81/16 
f 15/84/15 46/83/42 47/87/44 17/88/17 
f 20/89/20 35/90/45 34/86/43 18/85/18 
f 17/88/17 47/87/44 48/91/46 19/92/19 
f 22/93/22 36/94/47 35/90/45 20/89/20 
f 19/92/19 48/91/46 49/95/48 21/96/21 
f 24/97/24 37/98/49 36/94/47 22/93/22 
f 21/96/21 49/95/48 50/99/50 23/100/23 
f 3/56/3 25/55/28 37/101/49 24/102/24 
f 23/103/23 50/104/50 39/58/29 4/57/4 
# 36 polygons - 24 triangles

