# 3ds Max Wavefront OBJ Exporter v0.97b - (c)2007 guruware
# File Created: 21.07.2018 03:47:18

#
# object 38_wood_box
#

v  -9.4584 12.7830 9.6816
v  9.4583 12.7830 9.6816
v  9.4583 12.7830 -9.6816
v  -9.4584 12.7830 -9.6816
v  -9.4584 0.0044 9.6816
v  9.4583 0.0044 9.6816
v  9.4583 0.0044 -9.6816
v  -9.4584 0.0044 -9.6816
# 8 vertices

vn 0.0000 1.0000 -0.0000
vn 0.0000 0.0000 1.0000
vn 1.0000 0.0000 -0.0000
vn 0.0000 0.0000 -1.0000
vn -1.0000 0.0000 -0.0000
# 5 vertex normals

vt 0.8021 0.6998 0.0000
vt 0.7365 0.6998 0.0000
vt 0.7365 0.6326 0.0000
vt 0.8021 0.6326 0.0000
vt 0.7365 0.7049 0.0000
vt 0.8021 0.7049 0.0000
vt 0.8021 0.7492 0.0000
vt 0.7365 0.7492 0.0000
vt 0.8036 0.5776 0.0000
vt 0.7365 0.5776 0.0000
vt 0.7365 0.5333 0.0000
vt 0.8036 0.5333 0.0000
vt 0.8021 0.7989 0.0000
vt 0.7365 0.7989 0.0000
vt 0.7365 0.7546 0.0000
vt 0.8021 0.7546 0.0000
vt 0.8036 0.6273 0.0000
vt 0.7365 0.6273 0.0000
vt 0.7365 0.5830 0.0000
vt 0.8036 0.5830 0.0000
# 20 texture coords

g 38_wood_box
s 1
f 1/1/1 2/2/1 3/3/1 4/4/1 
s 2
f 5/5/2 6/6/2 2/7/2 1/8/2 
s 4
f 6/9/3 7/10/3 3/11/3 2/12/3 
s 2
f 7/13/4 8/14/4 4/15/4 3/16/4 
s 4
f 8/17/5 5/18/5 1/19/5 4/20/5 
# 5 polygons

