# 3ds Max Wavefront OBJ Exporter v0.97b - (c)2007 guruware
# File Created: 21.07.2018 03:50:40

#
# object 43_circle
#

v  21.3893 0.9259 -0.0000
v  21.3893 2.0334 -1.9183
v  21.3893 4.2485 -1.9183
v  21.3893 5.3561 -0.0000
v  21.3893 4.2485 1.9183
v  21.3893 2.0334 1.9183
v  16.9051 0.9259 -0.0000
v  16.9051 2.0334 -1.9183
v  16.9051 4.2485 -1.9183
v  16.9051 5.3561 -0.0000
v  16.9051 4.2485 1.9183
v  16.9051 2.0334 1.9183
v  0.0000 1.5727 -2.7164
v  17.3646 1.5727 -2.7164
v  17.3646 0.0044 -0.0000
v  0.0000 0.0044 -0.0000
v  0.0000 4.7093 -2.7164
v  17.3646 4.7093 -2.7164
v  0.0000 6.2776 -0.0000
v  17.3646 6.2776 -0.0000
v  0.0000 4.7093 2.7164
v  17.3646 4.7093 2.7164
v  0.0000 1.5727 2.7164
v  17.3646 1.5727 2.7164
v  -21.3893 0.9259 -0.0000
v  -21.3893 2.0334 1.9183
v  -21.3893 4.2485 1.9183
v  -21.3893 5.3561 -0.0000
v  -21.3893 4.2485 -1.9183
v  -21.3893 2.0334 -1.9183
v  -16.9051 0.9259 -0.0000
v  -16.9051 2.0334 -1.9183
v  -16.9051 4.2485 -1.9183
v  -16.9051 5.3561 -0.0000
v  -16.9051 4.2485 1.9183
v  -16.9051 2.0334 1.9183
v  -17.3646 0.0044 -0.0000
v  -17.3646 1.5727 -2.7164
v  -17.3646 4.7093 -2.7164
v  -17.3646 6.2776 -0.0000
v  -17.3646 4.7093 2.7164
v  -17.3646 1.5727 2.7164
v  17.3646 3.1410 -0.0000
v  -17.3646 3.1410 -0.0000
# 44 vertices

vn 1.0000 0.0000 -0.0000
vn 0.0000 -0.8660 -0.5000
vn 0.0000 0.0000 -1.0000
vn 0.0000 0.8660 -0.5000
vn 0.0000 0.8660 0.5000
vn 0.0000 0.0000 1.0000
vn 0.0000 -0.8660 0.5000
vn -1.0000 0.0000 -0.0000
# 8 vertex normals

vt 0.5920 0.3774 0.0000
vt 0.5959 0.3708 0.0000
vt 0.6036 0.3708 0.0000
vt 0.6074 0.3774 0.0000
vt 0.6036 0.3840 0.0000
vt 0.5959 0.3840 0.0000
vt 0.5219 0.6530 0.0000
vt 0.5219 0.6453 0.0000
vt 0.5375 0.6453 0.0000
vt 0.5375 0.6530 0.0000
vt 0.5219 0.6376 0.0000
vt 0.5375 0.6376 0.0000
vt 0.5219 0.6300 0.0000
vt 0.5375 0.6300 0.0000
vt 0.5219 0.6760 0.0000
vt 0.5219 0.6683 0.0000
vt 0.5375 0.6683 0.0000
vt 0.5375 0.6760 0.0000
vt 0.5219 0.6607 0.0000
vt 0.5375 0.6607 0.0000
vt 0.8921 0.1645 0.0000
vt 0.8921 0.2247 0.0000
vt 0.8812 0.2247 0.0000
vt 0.8812 0.1645 0.0000
vt 0.8377 0.1645 0.0000
vt 0.8377 0.2247 0.0000
vt 0.8268 0.2247 0.0000
vt 0.8268 0.1645 0.0000
vt 0.8486 0.1645 0.0000
vt 0.8486 0.2247 0.0000
vt 0.8595 0.1645 0.0000
vt 0.8595 0.2247 0.0000
vt 0.8703 0.1645 0.0000
vt 0.8703 0.2247 0.0000
vt 0.5875 0.3503 0.0000
vt 0.5913 0.3437 0.0000
vt 0.5990 0.3437 0.0000
vt 0.6029 0.3503 0.0000
vt 0.5990 0.3569 0.0000
vt 0.5913 0.3569 0.0000
vt 0.5195 0.6793 0.0000
vt 0.5195 0.6948 0.0000
vt 0.5118 0.6948 0.0000
vt 0.5118 0.6793 0.0000
vt 0.5041 0.6948 0.0000
vt 0.5041 0.6793 0.0000
vt 0.4964 0.6948 0.0000
vt 0.4964 0.6793 0.0000
vt 0.4888 0.6948 0.0000
vt 0.4888 0.6793 0.0000
vt 0.5349 0.6793 0.0000
vt 0.5349 0.6948 0.0000
vt 0.5272 0.6948 0.0000
vt 0.5272 0.6793 0.0000
vt 0.8812 0.1044 0.0000
vt 0.8921 0.1044 0.0000
vt 0.8268 0.1044 0.0000
vt 0.8377 0.1044 0.0000
vt 0.8486 0.1044 0.0000
vt 0.8595 0.1044 0.0000
vt 0.8703 0.1044 0.0000
vt 0.6464 0.6287 0.0000
vt 0.6409 0.6381 0.0000
vt 0.6355 0.6287 0.0000
vt 0.6301 0.6381 0.0000
vt 0.6245 0.6287 0.0000
vt 0.6301 0.6193 0.0000
vt 0.6409 0.6193 0.0000
vt 0.6136 0.6183 0.0000
vt 0.6136 0.6291 0.0000
vt 0.6041 0.6237 0.0000
vt 0.6041 0.6128 0.0000
vt 0.5947 0.6183 0.0000
vt 0.5947 0.6291 0.0000
vt 0.6041 0.6345 0.0000
# 75 texture coords

g 43_circle
s 1
f 1/1/1 2/2/1 3/3/1 4/4/1 5/5/1 6/6/1 
s 2
f 7/7/2 8/8/2 2/9/2 1/10/2 
s 4
f 8/8/3 9/11/3 3/12/3 2/9/3 
s 2
f 9/11/4 10/13/4 4/14/4 3/12/4 
s 4
f 10/15/5 11/16/5 5/17/5 4/18/5 
s 2
f 11/16/6 12/19/6 6/20/6 5/17/6 
s 4
f 12/19/7 7/7/7 1/10/7 6/20/7 
s 1
f 13/21/2 14/22/2 15/23/2 16/24/2 
s 2
f 17/25/3 18/26/3 14/27/3 13/28/3 
s 1
f 19/29/4 20/30/4 18/26/4 17/25/4 
s 2
f 21/31/5 22/32/5 20/30/5 19/29/5 
s 1
f 23/33/6 24/34/6 22/32/6 21/31/6 
s 2
f 16/24/7 15/23/7 24/34/7 23/33/7 
s 1
f 25/35/8 26/36/8 27/37/8 28/38/8 29/39/8 30/40/8 
s 2
f 31/41/2 25/42/2 30/43/2 32/44/2 
s 4
f 32/44/3 30/43/3 29/45/3 33/46/3 
s 2
f 33/46/4 29/45/4 28/47/4 34/48/4 
s 4
f 34/48/5 28/47/5 27/49/5 35/50/5 
s 2
f 35/51/6 27/52/6 26/53/6 36/54/6 
s 4
f 36/54/7 26/53/7 25/42/7 31/41/7 
s 1
f 13/21/2 16/24/2 37/55/2 38/56/2 
s 2
f 17/25/3 13/28/3 38/57/3 39/58/3 
s 1
f 19/29/4 17/25/4 39/58/4 40/59/4 
s 2
f 21/31/5 19/29/5 40/59/5 41/60/5 
s 1
f 23/33/6 21/31/6 41/60/6 42/61/6 
s 2
f 16/24/7 23/33/7 42/61/7 37/55/7 
s 4
f 15/62/1 14/63/1 43/64/1 
f 14/63/1 18/65/1 43/64/1 
f 18/65/1 20/66/1 43/64/1 
f 20/66/1 22/67/1 43/64/1 
f 22/67/1 24/68/1 43/64/1 
f 24/68/1 15/62/1 43/64/1 
f 38/69/8 37/70/8 44/71/8 
f 39/72/8 38/69/8 44/71/8 
f 40/73/8 39/72/8 44/71/8 
f 41/74/8 40/73/8 44/71/8 
f 42/75/8 41/74/8 44/71/8 
f 37/70/8 42/75/8 44/71/8 
# 26 polygons - 12 triangles

