# 3ds Max Wavefront OBJ Exporter v0.97b - (c)2007 guruware
# File Created: 21.07.2018 03:51:51

#
# object 45_wood_road_2
#

v  7.0000 0.6815 -11.4592
v  8.8382 0.6815 -11.0009
v  9.4184 0.6815 -12.3304
v  -9.4184 -0.0131 -10.4265
v  -7.7579 0.8858 -9.0170
v  -9.2434 0.6815 -11.6107
v  -9.4184 -0.0131 26.6026
v  9.3633 -0.0131 26.6026
v  9.3633 0.6815 26.6026
v  -9.4184 0.6815 26.6026
v  9.3633 -0.0131 2.6389
v  9.0430 -0.0131 0.0000
v  8.6772 0.3321 0.1629
v  9.3633 0.6815 1.9093
v  9.3633 -0.0131 -26.6026
v  -9.4184 -0.0131 -26.6026
v  -9.4184 0.6815 -26.6026
v  9.3633 0.6815 -26.6026
v  9.4184 -0.0131 -12.2012
v  -9.1840 0.4495 20.7386
v  -8.7104 1.7445 21.2749
v  7.8247 1.7445 21.2749
v  9.1288 1.2544 21.0721
v  9.1288 0.4495 20.7386
v  -4.9585 1.5637 22.3515
v  7.4842 2.2809 22.5699
v  -9.1840 1.7445 23.8649
v  9.1288 1.7445 23.8649
v  -9.1840 0.4495 24.4014
v  9.1288 0.4495 24.4014
v  -9.1840 0.4495 11.5739
v  -9.1840 1.7445 12.1102
v  3.9753 1.4461 12.2495
v  1.7062 0.4495 11.5739
v  -8.5984 2.2809 13.4053
v  3.8699 1.9825 13.5444
v  -9.0396 1.7445 14.7003
v  3.7831 1.4461 14.8394
v  -9.1840 0.4495 15.2366
v  1.7062 0.4495 15.2366
v  9.1288 0.4495 11.5739
v  9.1288 1.7445 12.1102
v  8.5999 1.7445 14.7003
v  9.1288 0.4495 15.2366
v  8.3326 2.2809 13.4053
v  -9.1840 0.4495 2.4091
v  -8.6780 1.7445 2.9456
v  9.1288 1.7445 2.9456
v  9.1288 0.4495 2.4091
v  -6.6665 2.2809 4.2406
v  8.4385 2.2809 4.2406
v  -8.6843 1.7445 5.5356
v  9.1288 1.7445 5.5356
v  -9.1840 0.4495 6.0719
v  9.1288 0.4495 6.0719
v  -9.1840 0.4495 -6.7554
v  -9.1840 1.7445 -6.2191
v  8.8536 1.7445 -6.2191
v  9.1288 0.4495 -6.7554
v  -9.1840 2.2809 -4.9241
v  2.5863 2.2809 -4.9241
v  -3.9384 1.7445 -3.6292
v  2.8237 1.3565 -3.4684
v  8.0061 1.7445 -3.6292
v  9.1288 0.4495 -3.0927
v  -9.1840 0.4495 -3.0927
v  -9.1840 1.7445 -3.6292
v  8.3522 2.2809 -4.9241
v  -9.1840 0.4495 -15.9202
v  -9.1840 1.7445 -15.3837
v  9.1288 1.7445 -15.3837
v  9.1288 0.4495 -15.9202
v  -8.9524 1.7445 -12.7939
v  -9.1840 0.4495 -12.2574
v  9.1288 0.4495 -12.2574
v  8.7112 1.7445 -12.7939
v  -8.6267 2.2809 -14.0889
v  7.3633 2.2809 -14.0889
v  -9.1840 0.4526 -25.0849
v  -8.7169 1.7476 -24.5484
v  -3.0876 1.7476 -24.5484
v  9.1288 1.7476 -24.5484
v  9.1288 0.4526 -25.0849
v  -7.5646 2.1703 -22.8253
v  -3.2691 1.7445 -21.9585
v  9.1288 1.7445 -21.9585
v  0.6992 2.4148 -22.9664
v  -8.4440 1.7445 -21.9585
v  -9.1840 0.4495 -21.4221
v  9.1288 0.4495 -21.4221
v  8.5566 2.0697 -23.7063
v  6.0207 0.6815 0.0000
v  -9.4184 -0.0131 0.0000
v  9.3633 0.6815 -2.2240
v  -9.4184 0.6815 0.0000
v  -9.4184 0.6815 7.7643
v  -2.7817 0.6815 8.4297
v  9.3633 -0.0131 -3.2793
v  -8.9483 0.6815 9.3916
v  -9.4184 0.6815 11.3799
v  -9.4184 -0.0131 7.8260
v  -9.2981 -0.0131 9.3226
v  -9.4184 -0.0131 11.6647
v  9.1495 0.6815 -9.9767
v  9.1495 -0.0131 -9.8739
v  9.1061 -0.0131 -10.9202
v  -9.4184 0.8777 -6.7767
v  -9.4184 -0.0131 -7.1212
v  5.8118 1.7445 -3.6292
v  4.5694 2.2809 -14.0889
v  2.5775 1.7161 -14.9577
v  2.1226 1.5950 -13.1951
v  -3.7173 2.2809 -14.0889
# 113 vertices

vn 0.0034 1.0000 -0.0063
vn 0.0000 1.0000 -0.0000
vn -0.6441 0.6975 0.3139
vn 0.0000 0.0000 1.0000
vn 0.9582 -0.0754 -0.2761
vn 0.6648 0.7427 -0.0807
vn 0.7767 0.6165 -0.1293
vn 0.9047 -0.3086 -0.2938
vn 0.0000 0.0000 -1.0000
vn 0.0000 -1.0000 -0.0000
vn 0.0000 0.3826 -0.9239
vn 0.0000 0.3825 -0.9239
vn 0.0000 0.3827 -0.9239
vn -0.0455 0.9861 0.1601
vn -0.0600 0.9291 0.3650
vn -0.0023 0.9336 -0.3584
vn 0.0000 0.9239 -0.3827
vn -0.0407 0.9928 -0.1128
vn 0.0000 0.9239 0.3827
vn -0.0021 0.9330 0.3599
vn -0.0511 0.9648 -0.2579
vn 0.0000 0.3827 0.9239
vn 1.0000 0.0000 -0.0000
vn -0.9902 0.0707 -0.1207
vn -0.9810 -0.0743 -0.1793
vn -0.9641 0.2629 -0.0371
vn -0.9392 0.3434 -0.0000
vn 0.0457 0.9989 0.0084
vn 0.4624 0.8556 -0.2328
vn 0.0174 0.3934 -0.9192
vn 0.0184 0.3826 -0.9237
vn -0.0033 0.5414 -0.8408
vn 0.0000 0.5611 -0.8277
vn 0.0263 0.9198 -0.3916
vn 0.0264 0.9193 -0.3927
vn 0.0251 0.9240 -0.3816
vn 0.0250 0.9243 -0.3808
vn 0.0173 0.9218 0.3874
vn 0.0172 0.9217 0.3876
vn -0.0140 0.9236 0.3830
vn -0.0177 0.9242 0.3816
vn -0.0001 0.3821 0.9241
vn -0.0007 0.3729 0.9279
vn 0.0036 0.3639 0.9314
vn 0.9878 0.0788 0.1345
vn 0.9764 -0.0826 0.1994
vn 0.9561 0.2901 0.0416
vn 0.9258 0.3781 -0.0000
vn -0.9953 0.0892 0.0369
vn -0.9896 0.1332 0.0552
vn -0.9996 0.0269 0.0111
vn -1.0000 0.0000 -0.0000
vn -0.7219 0.6908 0.0402
vn 0.7028 0.6968 0.1435
vn -0.9326 0.3608 -0.0015
vn -0.9333 0.3591 -0.0023
vn -0.9318 0.3629 -0.0005
vn -0.9314 0.3639 -0.0000
vn -0.2573 0.9663 -0.0006
vn 0.6136 0.7896 -0.0000
vn 0.0359 0.8463 0.5315
vn 0.9257 0.3216 0.1992
vn 0.9479 0.0730 0.3102
vn 0.8302 0.5531 0.0690
vn 0.7556 0.6551 -0.0000
vn 0.9415 0.1363 0.3081
vn 0.9923 0.0625 0.1067
vn 0.9851 -0.0658 0.1589
vn 0.9716 0.2346 0.0326
vn 0.9517 0.3070 -0.0000
vn -0.9882 0.1418 0.0587
vn -0.9738 0.2102 0.0871
vn -0.9989 0.0430 0.0178
vn -0.7703 0.6340 0.0689
vn 0.3253 0.9441 0.0525
vn 0.0970 0.9952 0.0080
vn 0.0000 0.8327 0.5538
vn -0.8843 0.4631 0.0601
vn -0.8482 0.5220 0.0900
vn -0.9234 0.3832 0.0212
vn -0.9407 0.3392 0.0003
vn -0.4005 0.9153 0.0433
vn 0.4917 0.8708 0.0010
vn 0.1412 0.9586 -0.2473
vn 1.0000 -0.0007 -0.0039
vn 1.0000 0.0000 -0.0038
vn 1.0000 -0.0000 -0.0038
vn 0.1177 0.9772 0.1769
vn 0.0032 1.0000 0.0071
vn 0.0000 0.9999 0.0145
vn 0.9897 -0.0831 0.1166
vn 0.7219 0.6241 0.2989
vn 0.7962 0.5353 0.2819
vn 0.9846 -0.1461 0.0962
vn -0.9344 0.3302 0.1341
vn -0.9604 0.0246 0.2774
vn -0.9638 0.1384 0.2280
vn -0.8937 0.4429 0.0718
vn -0.9144 0.3642 -0.1764
vn -0.9985 -0.0210 -0.0513
vn -0.9944 0.0679 -0.0811
vn -0.8659 0.4564 -0.2047
vn 0.9680 0.2092 -0.1385
vn 0.9559 -0.0430 -0.2906
vn 0.9734 0.1168 -0.1970
vn 0.9338 0.3558 -0.0387
vn 0.9449 0.1578 0.2869
vn 0.8509 0.3715 0.3714
vn 0.8978 0.2824 0.3379
vn 0.9706 0.0440 0.2366
vn 0.9995 -0.0014 -0.0321
vn 0.9987 0.0418 -0.0275
vn 0.9988 0.0400 -0.0277
vn 0.9995 -0.0048 -0.0324
vn 0.0075 1.0000 -0.0034
vn 0.0069 0.9998 0.0178
vn 0.0094 0.9999 0.0043
vn 0.0094 0.9996 -0.0267
vn -0.9707 0.2402 0.0002
vn -0.9999 0.0000 0.0117
vn -0.9999 0.0074 0.0113
vn -0.9697 0.2444 -0.0000
vn 0.0003 0.9995 -0.0313
vn -0.8765 0.4678 -0.1142
vn -0.3088 0.9240 -0.2255
vn -0.5308 0.8234 -0.2010
vn -0.0000 0.3827 0.9239
vn -0.0793 0.8356 0.5436
vn -0.0315 0.8794 -0.4751
vn -0.0139 0.9055 -0.4242
vn -0.0354 0.8731 -0.4863
vn -0.2712 0.9625 -0.0039
vn 0.0267 0.8808 0.4727
vn 0.0052 0.9162 0.4006
vn 0.0293 0.8761 0.4812
vn 0.1019 0.9903 0.0943
vn 0.0000 0.9371 -0.3492
vn -0.0189 0.9009 0.4337
vn -0.0448 0.8641 0.5012
vn -0.0509 0.8547 0.5167
vn 0.3247 0.9316 -0.1635
vn 0.0035 0.9186 -0.3952
vn 0.0168 0.8966 -0.4425
vn 0.0184 0.8939 -0.4479
vn 0.0000 0.9978 0.0665
vn -0.0471 0.3823 -0.9229
vn -0.0403 0.4094 -0.9115
vn -0.0654 0.9175 -0.3922
vn -0.0736 0.9046 -0.4199
vn -0.0712 0.9085 -0.4117
vn -0.0637 0.9202 -0.3863
vn -0.0457 0.9195 0.3903
vn -0.0464 0.9203 0.3884
vn 0.0003 0.3812 0.9245
vn 0.0000 0.8975 0.4409
vn 0.0003 0.9220 -0.3872
vn 0.0079 0.9358 -0.3526
vn 0.0063 0.9330 -0.3598
vn 0.0000 0.9214 -0.3886
vn 0.0000 0.9712 -0.2382
vn -0.1692 0.9855 -0.0107
vn 0.0587 0.9847 0.1640
# 162 vertex normals

vt 0.0664 0.9364 0.0000
vt 0.0729 0.9347 0.0000
vt 0.0748 0.9393 0.0000
vt 0.6306 0.5356 0.0000
vt 0.6375 0.5399 0.0000
vt 0.6271 0.5389 0.0000
vt 0.8016 0.8066 0.0000
vt 0.7365 0.8066 0.0000
vt 0.7365 0.8042 0.0000
vt 0.8016 0.8042 0.0000
vt 0.3256 0.4218 0.0000
vt 0.3256 0.4127 0.0000
vt 0.3268 0.4133 0.0000
vt 0.3281 0.4194 0.0000
vt 0.8016 0.8112 0.0000
vt 0.7365 0.8112 0.0000
vt 0.7365 0.8087 0.0000
vt 0.8016 0.8087 0.0000
vt 0.0773 0.8042 0.0000
vt 0.1424 0.8042 0.0000
vt 0.1426 0.8542 0.0000
vt 0.0773 0.8604 0.0000
vt 0.3618 0.7916 0.0000
vt 0.3635 0.7866 0.0000
vt 0.4215 0.7867 0.0000
vt 0.4261 0.7885 0.0000
vt 0.4261 0.7916 0.0000
vt 0.3767 0.7828 0.0000
vt 0.4204 0.7821 0.0000
vt 0.3618 0.7775 0.0000
vt 0.4261 0.7774 0.0000
vt 0.3617 0.7726 0.0000
vt 0.4261 0.7726 0.0000
vt 0.7267 0.8358 0.0000
vt 0.7255 0.8386 0.0000
vt 0.7159 0.8403 0.0000
vt 0.7139 0.8358 0.0000
vt 0.5966 0.4469 0.0000
vt 0.5922 0.4449 0.0000
vt 0.5920 0.4358 0.0000
vt 0.5968 0.4340 0.0000
vt 0.6214 0.4733 0.0000
vt 0.6305 0.4780 0.0000
vt 0.6258 0.4793 0.0000
vt 0.5526 0.3839 0.0000
vt 0.5477 0.3838 0.0000
vt 0.5488 0.3379 0.0000
vt 0.5523 0.3461 0.0000
vt 0.5427 0.3814 0.0000
vt 0.5440 0.3378 0.0000
vt 0.5378 0.3827 0.0000
vt 0.5391 0.3377 0.0000
vt 0.3622 0.8227 0.0000
vt 0.3617 0.8178 0.0000
vt 0.3993 0.8178 0.0000
vt 0.4065 0.8215 0.0000
vt 0.5818 0.4474 0.0000
vt 0.5863 0.4492 0.0000
vt 0.5865 0.4585 0.0000
vt 0.5816 0.4602 0.0000
vt 0.6753 0.7580 0.0000
vt 0.6707 0.7561 0.0000
vt 0.6707 0.7469 0.0000
vt 0.6753 0.7449 0.0000
vt 0.6688 0.7515 0.0000
vt 0.5890 0.4542 0.0000
vt 0.4258 0.7952 0.0000
vt 0.4239 0.8001 0.0000
vt 0.3617 0.8000 0.0000
vt 0.3618 0.7952 0.0000
vt 0.4169 0.8048 0.0000
vt 0.3641 0.8048 0.0000
vt 0.4240 0.8095 0.0000
vt 0.3617 0.8095 0.0000
vt 0.4258 0.8145 0.0000
vt 0.3618 0.8145 0.0000
vt 0.6109 0.4608 0.0000
vt 0.6064 0.4590 0.0000
vt 0.6064 0.4500 0.0000
vt 0.6109 0.4482 0.0000
vt 0.6119 0.4783 0.0000
vt 0.6071 0.4764 0.0000
vt 0.6071 0.4675 0.0000
vt 0.6119 0.4656 0.0000
vt 0.6034 0.4545 0.0000
vt 0.5353 0.4522 0.0000
vt 0.5304 0.4522 0.0000
vt 0.5305 0.3899 0.0000
vt 0.5353 0.3889 0.0000
vt 0.5255 0.4522 0.0000
vt 0.5256 0.4115 0.0000
vt 0.5204 0.4340 0.0000
vt 0.5196 0.4106 0.0000
vt 0.6050 0.4167 0.0000
vt 0.6029 0.4211 0.0000
vt 0.5934 0.4220 0.0000
vt 0.5920 0.4159 0.0000
vt 0.6140 0.4430 0.0000
vt 0.6094 0.4412 0.0000
vt 0.6094 0.4322 0.0000
vt 0.6140 0.4304 0.0000
vt 0.6076 0.4366 0.0000
vt 0.5981 0.4234 0.0000
vt 0.7366 0.8324 0.0000
vt 0.7365 0.8273 0.0000
vt 0.8010 0.8276 0.0000
vt 0.8010 0.8324 0.0000
vt 0.7374 0.8182 0.0000
vt 0.7366 0.8133 0.0000
vt 0.8010 0.8133 0.0000
vt 0.7996 0.8181 0.0000
vt 0.9946 0.8721 0.0000
vt 0.9928 0.8767 0.0000
vt 0.9837 0.8767 0.0000
vt 0.9818 0.8721 0.0000
vt 0.6702 0.7329 0.0000
vt 0.6656 0.7309 0.0000
vt 0.6656 0.7217 0.0000
vt 0.6702 0.7198 0.0000
vt 0.6637 0.7263 0.0000
vt 0.7947 0.8228 0.0000
vt 0.5344 0.3764 0.0000
vt 0.5295 0.3747 0.0000
vt 0.5296 0.3550 0.0000
vt 0.5297 0.3122 0.0000
vt 0.5346 0.3122 0.0000
vt 0.5234 0.3707 0.0000
vt 0.5203 0.3557 0.0000
vt 0.5205 0.3121 0.0000
vt 0.5240 0.3417 0.0000
vt 0.5202 0.3739 0.0000
vt 0.5152 0.3764 0.0000
vt 0.6736 0.4268 0.0000
vt 0.6691 0.4250 0.0000
vt 0.6691 0.4160 0.0000
vt 0.6736 0.4142 0.0000
vt 0.6981 0.4052 0.0000
vt 0.6964 0.4104 0.0000
vt 0.6873 0.4101 0.0000
vt 0.6854 0.4054 0.0000
vt 0.5266 0.3142 0.0000
vt 0.0747 0.8899 0.0000
vt 0.0723 0.8960 0.0000
vt 0.0631 0.8966 0.0000
vt 0.3256 0.3707 0.0000
vt 0.3256 0.3211 0.0000
vt 0.3281 0.3211 0.0000
vt 0.3281 0.3703 0.0000
vt 0.1412 0.8965 0.0000
vt 0.1424 0.9057 0.0000
vt 0.0773 0.8965 0.0000
vt 0.0747 0.9043 0.0000
vt 0.0095 0.8966 0.0000
vt 0.0095 0.8696 0.0000
vt 0.0325 0.8673 0.0000
vt 0.3281 0.4051 0.0000
vt 0.3256 0.4014 0.0000
vt 0.3281 0.5044 0.0000
vt 0.3256 0.5044 0.0000
vt 0.0112 0.8640 0.0000
vt 0.0095 0.8571 0.0000
vt 0.8328 0.2319 0.0000
vt 0.8384 0.2319 0.0000
vt 0.8383 0.2343 0.0000
vt 0.8330 0.2343 0.0000
vt 0.8656 0.2319 0.0000
vt 0.8656 0.2343 0.0000
vt 0.8248 0.2343 0.0000
vt 0.8259 0.2319 0.0000
vt 0.3281 0.3749 0.0000
vt 0.3281 0.3784 0.0000
vt 0.3256 0.3788 0.0000
vt 0.3256 0.3752 0.0000
vt 0.0740 0.9312 0.0000
vt 0.0095 0.9201 0.0000
vt 0.0153 0.9279 0.0000
vt 0.7723 0.8494 0.0000
vt 0.8249 0.8494 0.0000
vt 0.8249 0.8518 0.0000
vt 0.7681 0.8518 0.0000
vt 0.8904 0.2343 0.0000
vt 0.8892 0.2312 0.0000
vt 0.0101 0.9368 0.0000
vt 0.0095 0.9328 0.0000
vt 0.0095 0.9213 0.0000
vt 0.7727 0.2319 0.0000
vt 0.7727 0.2343 0.0000
vt 0.0095 0.8042 0.0000
vt 0.0747 0.8042 0.0000
vt 0.5152 0.4521 0.0000
vt 0.5210 0.4003 0.0000
vt 0.5210 0.3928 0.0000
vt 0.5256 0.3916 0.0000
vt 0.5204 0.4522 0.0000
vt 0.0747 0.9889 0.0000
vt 0.0095 0.9889 0.0000
vt 0.7851 0.8229 0.0000
vt 0.7780 0.8262 0.0000
vt 0.7763 0.8195 0.0000
vt 0.7558 0.8228 0.0000
vt 0.7385 0.8228 0.0000
vt 0.6315 0.4732 0.0000
vt 0.5515 0.3200 0.0000
vt 0.5563 0.3207 0.0000
vt 0.5465 0.3225 0.0000
vt 0.5420 0.3206 0.0000
vt 0.4249 0.8178 0.0000
vt 0.4231 0.8227 0.0000
vt 0.0773 0.9237 0.0000
vt 0.1424 0.8851 0.0000
vt 0.1416 0.8623 0.0000
vt 0.0773 0.8718 0.0000
vt 0.5165 0.3888 0.0000
vt 0.1415 0.8587 0.0000
vt 0.1424 0.9888 0.0000
vt 0.0773 0.9888 0.0000
vt 0.0773 0.9370 0.0000
vt 0.0776 0.9289 0.0000
vt 0.5156 0.3122 0.0000
# 219 texture coords

g 45_wood_road_2
s 1
f 1/1/1 2/2/2 3/3/2 
s 2
f 4/4/3 5/5/3 6/6/3 
f 7/7/4 8/8/4 9/9/4 10/10/4 
f 11/11/5 12/12/6 13/13/7 14/14/8 
f 15/15/9 16/16/9 17/17/9 18/18/9 
s 1
f 16/19/10 15/20/10 19/21/10 4/22/10 
f 20/23/11 21/24/11 22/25/12 23/26/13 24/27/13 
s 2
f 21/24/14 25/28/15 26/29/16 22/25/17 
s 1
f 27/30/18 28/31/19 26/29/20 25/28/21 
s 2
f 27/30/22 29/32/22 30/33/22 28/31/22 
s 4
f 24/34/23 23/35/23 28/36/23 30/37/23 
f 29/38/24 27/39/25 21/40/26 20/41/27 
s 8
f 21/24/28 27/30/28 25/28/28 
f 28/42/29 22/43/29 26/44/29 
s 1
f 31/45/30 32/46/31 33/47/32 34/48/33 
s 2
f 32/46/34 35/49/35 36/50/36 33/47/37 
s 1
f 35/49/38 37/51/39 38/52/40 36/50/41 
s 2
f 37/53/42 39/54/22 40/55/43 38/56/44 
s 4
f 41/57/45 42/58/46 43/59/47 44/60/48 
f 39/61/49 37/62/50 32/63/51 31/64/52 
s 8
f 37/62/53 35/65/53 32/63/53 
f 42/58/54 45/66/54 43/59/54 
s 1
f 46/67/13 47/68/13 48/69/13 49/70/13 
s 2
f 47/68/17 50/71/17 51/72/17 48/69/17 
s 1
f 52/73/19 53/74/19 51/72/19 50/71/19 
s 2
f 52/73/22 54/75/22 55/76/22 53/74/22 
s 4
f 49/77/23 48/78/23 53/79/23 55/80/23 
f 54/81/55 52/82/56 47/83/57 46/84/58 
s 8
f 47/68/59 52/73/59 50/71/59 
f 48/78/60 51/85/60 53/79/60 
s 1
f 56/86/11 57/87/11 58/88/11 59/89/11 
s 2
f 57/87/17 60/90/17 61/91/17 58/88/17 
s 1
f 62/92/61 63/93/61 61/91/61 
s 4
f 59/94/62 58/95/63 64/96/64 65/97/65 
f 66/98/52 67/99/52 57/100/52 56/101/52 
f 67/99/52 60/102/52 57/100/52 
s 8
f 58/95/66 68/103/66 64/96/66 
s 1
f 69/104/13 70/105/13 71/106/13 72/107/13 
f 73/108/22 74/109/22 75/110/22 76/111/22 
s 2
f 72/112/67 71/113/68 76/114/69 75/115/70 
f 74/116/71 73/117/72 70/118/73 69/119/52 
s 4
f 73/117/74 77/120/74 70/118/74 
f 71/106/75 78/121/75 76/111/75 
s 1
f 79/122/13 80/123/13 81/124/13 82/125/13 83/126/13 
s 2
f 84/127/76 85/128/76 81/124/76 
s 1
f 85/128/77 86/129/77 87/130/77 
s 4
f 88/131/22 89/132/22 86/129/22 85/128/23 
s 2
f 83/133/23 82/134/23 86/135/23 90/136/23 
f 89/137/78 88/138/79 80/139/80 79/140/81 
s 8
f 88/131/82 84/127/82 80/123/82 
f 82/125/83 91/141/83 86/129/83 
s 4
f 14/142/84 13/143/84 92/144/84 
f 19/145/85 15/146/86 18/147/87 3/148/85 
s 1
f 12/149/10 11/150/10 93/151/10 
s 8
f 92/144/88 13/143/88 94/152/88 
s 1
f 92/144/89 95/153/90 96/154/2 97/155/2 14/142/2 
s 16
f 94/156/91 13/13/92 12/12/93 98/157/94 
s 8
f 14/14/23 9/158/23 8/159/23 11/11/23 
s 1
f 97/155/2 99/160/2 100/161/2 
s 2
f 99/162/95 96/163/96 101/164/97 102/165/98 
s 4
f 96/163/52 95/166/52 93/167/52 101/164/52 
f 102/165/99 103/168/100 100/169/101 99/162/102 
s 1
f 97/155/2 96/154/2 99/160/2 
s 2
f 2/170/103 104/171/104 105/172/105 106/173/106 
s 8
f 3/148/107 2/170/108 106/173/109 19/145/110 
s 4
f 104/171/111 94/156/112 98/157/113 105/172/114 
s 1
f 104/174/115 2/2/2 1/1/1 
f 107/175/116 95/153/90 92/144/89 94/152/117 104/174/115 1/1/1 
f 1/1/1 5/176/118 107/175/116 
s 4
f 6/177/119 17/178/120 16/179/121 4/180/122 
f 108/181/52 93/167/52 95/166/52 107/182/52 
s 1
f 1/1/1 6/183/123 5/176/118 
s 8
f 107/175/124 5/176/125 4/184/126 108/185/52 
f 10/186/52 100/169/52 103/168/52 7/187/52 
s 1
f 10/188/2 9/189/2 97/155/2 100/161/2 
s 2
f 62/92/22 66/190/22 63/93/127 
s 16
f 109/191/19 64/192/19 68/193/19 61/91/19 
s 8
f 61/91/19 60/90/19 67/194/19 62/92/19 
s 4
f 63/93/128 109/191/128 61/91/128 
s 1
f 1/1/1 3/3/2 18/195/2 17/196/2 6/183/123 
s 8
f 110/197/129 78/121/17 71/106/130 111/198/131 
s 1
f 111/198/132 112/199/132 110/197/132 
s 8
f 113/200/133 77/201/19 73/108/134 112/199/135 
s 2
f 111/198/136 113/200/136 112/199/136 
s 16
f 73/108/137 76/111/137 112/199/137 
s 32
f 76/111/138 78/121/19 110/197/139 112/199/140 
s 16
f 28/42/141 23/202/141 22/43/141 
f 70/105/142 77/201/17 113/200/143 111/198/144 
s 32
f 71/106/145 70/105/145 111/198/145 
s 1
f 33/47/32 42/203/146 41/204/147 34/48/33 
s 16
f 36/50/148 45/205/149 42/203/150 33/47/151 
s 1
f 38/52/40 43/206/152 45/205/153 36/50/41 
s 2
f 40/55/43 44/207/22 43/208/154 38/56/44 
s 16
f 84/127/155 88/131/155 85/128/155 
s 4
f 87/130/156 91/141/157 82/125/158 81/124/159 
s 32
f 81/124/160 80/123/160 84/127/160 
s 8
f 85/128/161 87/130/161 81/124/161 
s 1
f 11/150/10 101/209/10 93/151/10 
f 98/210/10 12/149/10 93/151/10 
f 105/211/10 98/210/10 93/151/10 108/212/10 
s 2
f 61/91/17 68/193/17 58/88/17 
f 65/213/127 64/192/22 109/191/127 
f 65/213/127 109/191/127 63/93/127 
f 62/92/22 67/194/22 66/190/22 
f 66/190/22 65/213/127 63/93/127 
s 1
f 19/21/10 106/214/2 105/211/10 108/212/10 4/22/10 
f 9/189/2 14/142/2 97/155/2 
f 8/215/10 7/216/10 103/217/10 
f 8/215/10 103/217/10 102/218/10 
f 11/150/10 8/215/10 102/218/10 101/209/10 
s 16
f 86/129/162 91/141/162 87/130/162 
s 4
f 89/132/22 90/219/22 86/129/22 
# 65 polygons - 47 triangles

