# 3ds Max Wavefront OBJ Exporter v0.97b - (c)2007 guruware
# File Created: 21.07.2018 03:52:31

#
# object 46_wood_huge
#

v  1.0565 0.9018 47.7692
v  0.5282 -0.0131 47.7692
v  0.5282 -0.0131 -47.7693
v  1.0565 0.9018 -47.7693
v  -0.5283 -0.0131 47.7692
v  -0.5283 -0.0131 -47.7693
v  -1.0565 0.9018 47.7692
v  -1.0565 0.9018 -47.7693
v  -0.5283 1.8168 47.7692
v  -0.5283 1.8168 -47.7693
v  0.5282 1.8168 47.7692
v  0.5282 1.8168 -47.7693
v  0.0000 0.9018 -47.7693
v  0.0000 0.9018 47.7692
# 14 vertices

vn 0.8660 -0.5001 -0.0000
vn 0.0000 -1.0000 -0.0000
vn -0.8660 -0.5000 -0.0000
vn -0.8661 0.4999 -0.0000
vn 0.0000 1.0000 -0.0000
vn 0.8660 0.5000 -0.0000
vn 0.0000 0.0000 -1.0000
vn 0.0000 0.0000 1.0000
# 8 vertex normals

vt 0.1811 0.2390 0.0000
vt 0.1811 0.2353 0.0000
vt 0.5125 0.2353 0.0000
vt 0.5125 0.2390 0.0000
vt 0.1811 0.2209 0.0000
vt 0.1811 0.2172 0.0000
vt 0.5125 0.2172 0.0000
vt 0.5125 0.2209 0.0000
vt 0.5125 0.2443 0.0000
vt 0.5125 0.2480 0.0000
vt 0.1811 0.2480 0.0000
vt 0.1811 0.2443 0.0000
vt 0.5125 0.2082 0.0000
vt 0.5125 0.2119 0.0000
vt 0.1811 0.2119 0.0000
vt 0.1811 0.2082 0.0000
vt 0.5125 0.2263 0.0000
vt 0.5125 0.2299 0.0000
vt 0.1811 0.2299 0.0000
vt 0.1811 0.2263 0.0000
vt 0.9009 0.0773 0.0000
vt 0.9009 0.0809 0.0000
vt 0.5694 0.0809 0.0000
vt 0.5694 0.0773 0.0000
vt 0.7265 0.5368 0.0000
vt 0.7297 0.5386 0.0000
vt 0.7265 0.5405 0.0000
vt 0.7297 0.5423 0.0000
vt 0.7265 0.5441 0.0000
vt 0.7234 0.5423 0.0000
vt 0.7234 0.5386 0.0000
vt 0.7062 0.5754 0.0000
vt 0.7031 0.5773 0.0000
vt 0.7031 0.5736 0.0000
vt 0.7062 0.5718 0.0000
vt 0.7031 0.5699 0.0000
vt 0.6999 0.5718 0.0000
vt 0.6999 0.5754 0.0000
# 38 texture coords

g 46_wood_huge
s 1
f 1/1/1 2/2/1 3/3/1 4/4/1 
s 2
f 2/5/2 5/6/2 6/7/2 3/8/2 
s 1
f 5/9/3 7/10/3 8/11/3 6/12/3 
s 2
f 7/13/4 9/14/4 10/15/4 8/16/4 
s 1
f 9/17/5 11/18/5 12/19/5 10/20/5 
s 2
f 11/21/6 1/22/6 4/23/6 12/24/6 
s 4
f 4/25/7 3/26/7 13/27/7 
f 3/26/7 6/28/7 13/27/7 
f 6/28/7 8/29/7 13/27/7 
f 8/29/7 10/30/7 13/27/7 
f 10/30/7 12/31/7 13/27/7 
f 12/31/7 4/25/7 13/27/7 
f 2/32/8 1/33/8 14/34/8 
f 5/35/8 2/32/8 14/34/8 
f 7/36/8 5/35/8 14/34/8 
f 9/37/8 7/36/8 14/34/8 
f 11/38/8 9/37/8 14/34/8 
f 1/33/8 11/38/8 14/34/8 
# 6 polygons - 12 triangles

