# 3ds Max Wavefront OBJ Exporter v0.97b - (c)2007 guruware
# File Created: 21.07.2018 03:53:13

#
# object 47_wood_bridge_2
#

v  -15.5777 0.0044 -23.2433
v  -11.6566 0.0044 -23.2433
v  -11.6566 0.0044 23.2433
v  -15.5777 0.0044 23.2433
v  -15.5777 1.6732 23.2433
v  -11.6566 1.6732 23.2433
v  -11.6566 1.6732 -23.2433
v  -15.5777 1.6732 -23.2433
v  -19.9123 0.0044 -23.2433
v  -19.9123 0.0044 23.2433
v  -19.9123 1.6732 23.2433
v  -19.9123 1.6732 -23.2433
v  11.6564 0.0044 23.2433
v  11.6564 1.6732 23.2433
v  15.5777 0.0044 -23.2433
v  15.5777 0.0044 23.2433
v  11.6564 0.0044 -23.2433
v  15.5777 1.6732 23.2433
v  15.5777 1.6732 -23.2433
v  11.6564 1.6732 -23.2433
v  19.9123 0.0044 -23.2433
v  19.9123 1.6732 -23.2433
v  19.9123 1.6732 23.2433
v  19.9123 0.0044 23.2433
# 24 vertices

vn 0.0000 -1.0000 -0.0000
vn 0.0000 1.0000 -0.0000
vn 0.0000 0.0000 1.0000
vn 0.0000 0.0000 -1.0000
vn -1.0000 0.0000 -0.0000
vn 1.0000 0.0000 -0.0000
# 6 vertex normals

vt 0.3767 0.9721 0.0000
vt 0.3767 0.9586 0.0000
vt 0.5378 0.9586 0.0000
vt 0.5378 0.9721 0.0000
vt 0.3580 0.9961 0.0000
vt 0.3444 0.9961 0.0000
vt 0.3444 0.8349 0.0000
vt 0.3580 0.8349 0.0000
vt 0.6767 0.8728 0.0000
vt 0.6767 0.8864 0.0000
vt 0.6709 0.8864 0.0000
vt 0.6709 0.8728 0.0000
vt 0.6349 0.9906 0.0000
vt 0.6485 0.9906 0.0000
vt 0.6485 0.9964 0.0000
vt 0.6349 0.9964 0.0000
vt 0.3414 0.7153 0.0000
vt 0.3414 0.5541 0.0000
vt 0.3472 0.5541 0.0000
vt 0.3472 0.7153 0.0000
vt 0.5378 0.9872 0.0000
vt 0.3767 0.9872 0.0000
vt 0.3730 0.8349 0.0000
vt 0.3730 0.9961 0.0000
vt 0.6767 0.9674 0.0000
vt 0.6709 0.9674 0.0000
vt 0.6709 0.8578 0.0000
vt 0.6767 0.8578 0.0000
vt 0.6635 0.9906 0.0000
vt 0.6635 0.9964 0.0000
vt 0.3767 0.8641 0.0000
vt 0.5378 0.8641 0.0000
vt 0.5378 0.8777 0.0000
vt 0.3767 0.8777 0.0000
vt 0.2500 0.9961 0.0000
vt 0.2500 0.8349 0.0000
vt 0.2635 0.8349 0.0000
vt 0.2635 0.9961 0.0000
vt 0.6767 0.9809 0.0000
vt 0.6709 0.9809 0.0000
vt 0.5539 0.9906 0.0000
vt 0.5539 0.9964 0.0000
vt 0.5404 0.9964 0.0000
vt 0.5404 0.9906 0.0000
vt 0.3243 0.7275 0.0000
vt 0.3243 0.7333 0.0000
vt 0.1631 0.7333 0.0000
vt 0.1631 0.7275 0.0000
vt 0.3767 0.8490 0.0000
vt 0.5378 0.8490 0.0000
vt 0.2349 0.9961 0.0000
vt 0.2349 0.8349 0.0000
vt 0.6767 0.9960 0.0000
vt 0.6709 0.9960 0.0000
vt 0.5253 0.9964 0.0000
vt 0.5253 0.9906 0.0000
# 56 texture coords

g 47_wood_bridge_2
s 1
f 1/1/1 2/2/1 3/3/1 4/4/1 
f 5/5/2 6/6/2 7/7/2 8/8/2 
s 2
f 4/9/3 3/10/3 6/11/3 5/12/3 
f 2/13/4 1/14/4 8/15/4 7/16/4 
s 4
f 9/17/5 10/18/5 11/19/5 12/20/5 
s 1
f 4/4/1 10/21/1 9/22/1 1/1/1 
f 8/8/2 12/23/2 11/24/2 5/5/2 
s 2
f 3/10/3 13/25/3 14/26/3 6/11/3 
f 5/12/3 11/27/3 10/28/3 4/9/3 
f 1/14/4 9/29/4 12/30/4 8/15/4 
s 1
f 15/31/1 16/32/1 13/33/1 17/34/1 
f 18/35/2 19/36/2 20/37/2 14/38/2 
s 2
f 16/39/3 18/40/3 14/26/3 13/25/3 
f 17/41/4 20/42/4 19/43/4 15/44/4 
s 4
f 21/45/6 22/46/6 23/47/6 24/48/6 
s 1
f 17/34/1 13/33/1 3/3/1 2/2/1 
f 16/32/1 15/31/1 21/49/1 24/50/1 
f 14/38/2 20/37/2 7/7/2 6/6/2 
f 19/36/2 18/35/2 23/51/2 22/52/2 
s 2
f 18/40/3 16/39/3 24/53/3 23/54/3 
f 15/44/4 19/43/4 22/55/4 21/56/4 
f 20/42/4 17/41/4 2/13/4 7/16/4 
# 22 polygons

