# 3ds Max Wavefront OBJ Exporter v0.97b - (c)2007 guruware
# File Created: 21.07.2018 03:53:34

#
# object 48_wood_bridge_3
#

v  -7.8093 0.0044 -23.2433
v  -5.8436 0.0044 -23.2433
v  -5.8436 0.0044 23.2433
v  -7.8093 0.0044 23.2433
v  -7.8093 1.6732 23.2433
v  -5.8436 1.6732 23.2433
v  -5.8436 1.6732 -23.2433
v  -7.8093 1.6732 -23.2433
v  -9.9824 0.0044 -23.2433
v  -9.9824 0.0044 23.2433
v  -9.9824 1.6732 23.2433
v  -9.9824 1.6732 -23.2433
v  5.8436 0.0044 23.2433
v  5.8436 1.6732 23.2433
v  7.8093 0.0044 -23.2433
v  7.8093 0.0044 23.2433
v  5.8436 0.0044 -23.2433
v  7.8093 1.6732 23.2433
v  7.8093 1.6732 -23.2433
v  5.8436 1.6732 -23.2433
v  9.9824 0.0044 -23.2433
v  9.9824 1.6732 -23.2433
v  9.9824 1.6732 23.2433
v  9.9824 0.0044 23.2433
# 24 vertices

vn 0.0000 -1.0000 -0.0000
vn 0.0000 1.0000 -0.0000
vn 0.0000 0.0000 1.0000
vn 0.0000 0.0000 -1.0000
vn -1.0000 0.0000 -0.0000
vn 1.0000 0.0000 -0.0000
# 6 vertex normals

vt 0.2247 0.9881 0.0000
vt 0.2179 0.9881 0.0000
vt 0.2179 0.8268 0.0000
vt 0.2247 0.8268 0.0000
vt 0.3963 0.3030 0.0000
vt 0.4032 0.3030 0.0000
vt 0.4032 0.4642 0.0000
vt 0.3963 0.4642 0.0000
vt 0.8209 0.7952 0.0000
vt 0.8276 0.7952 0.0000
vt 0.8276 0.8010 0.0000
vt 0.8209 0.8010 0.0000
vt 0.8276 0.7920 0.0000
vt 0.8209 0.7920 0.0000
vt 0.8209 0.7862 0.0000
vt 0.8276 0.7862 0.0000
vt 0.3243 0.7242 0.0000
vt 0.1631 0.7242 0.0000
vt 0.1631 0.7184 0.0000
vt 0.3243 0.7184 0.0000
vt 0.2322 0.8268 0.0000
vt 0.2322 0.9881 0.0000
vt 0.3888 0.4642 0.0000
vt 0.3888 0.3030 0.0000
vt 0.8682 0.7952 0.0000
vt 0.8682 0.8010 0.0000
vt 0.8133 0.8010 0.0000
vt 0.8133 0.7952 0.0000
vt 0.8133 0.7920 0.0000
vt 0.8133 0.7862 0.0000
vt 0.1706 0.9881 0.0000
vt 0.1706 0.8268 0.0000
vt 0.1774 0.8268 0.0000
vt 0.1774 0.9881 0.0000
vt 0.4506 0.3030 0.0000
vt 0.4506 0.4642 0.0000
vt 0.4437 0.4642 0.0000
vt 0.4437 0.3030 0.0000
vt 0.8750 0.7952 0.0000
vt 0.8750 0.8010 0.0000
vt 0.8682 0.7920 0.0000
vt 0.8682 0.7862 0.0000
vt 0.8750 0.7862 0.0000
vt 0.8750 0.7920 0.0000
vt 0.5063 0.5402 0.0000
vt 0.5063 0.5460 0.0000
vt 0.3450 0.5460 0.0000
vt 0.3450 0.5402 0.0000
vt 0.1631 0.9881 0.0000
vt 0.1631 0.8268 0.0000
vt 0.4581 0.3030 0.0000
vt 0.4581 0.4642 0.0000
vt 0.8825 0.7952 0.0000
vt 0.8825 0.8010 0.0000
vt 0.8825 0.7862 0.0000
vt 0.8825 0.7920 0.0000
# 56 texture coords

g 48_wood_bridge_3
s 1
f 1/1/1 2/2/1 3/3/1 4/4/1 
f 5/5/2 6/6/2 7/7/2 8/8/2 
s 2
f 4/9/3 3/10/3 6/11/3 5/12/3 
f 2/13/4 1/14/4 8/15/4 7/16/4 
s 4
f 9/17/5 10/18/5 11/19/5 12/20/5 
s 1
f 4/4/1 10/21/1 9/22/1 1/1/1 
f 8/8/2 12/23/2 11/24/2 5/5/2 
s 2
f 3/10/3 13/25/3 14/26/3 6/11/3 
f 5/12/3 11/27/3 10/28/3 4/9/3 
f 1/14/4 9/29/4 12/30/4 8/15/4 
s 1
f 15/31/1 16/32/1 13/33/1 17/34/1 
f 18/35/2 19/36/2 20/37/2 14/38/2 
s 2
f 16/39/3 18/40/3 14/26/3 13/25/3 
f 17/41/4 20/42/4 19/43/4 15/44/4 
s 4
f 21/45/6 22/46/6 23/47/6 24/48/6 
s 1
f 17/34/1 13/33/1 3/3/1 2/2/1 
f 16/32/1 15/31/1 21/49/1 24/50/1 
f 14/38/2 20/37/2 7/7/2 6/6/2 
f 19/36/2 18/35/2 23/51/2 22/52/2 
s 2
f 18/40/3 16/39/3 24/53/3 23/54/3 
f 15/44/4 19/43/4 22/55/4 21/56/4 
f 20/42/4 17/41/4 2/13/4 7/16/4 
# 22 polygons

