# 3ds Max Wavefront OBJ Exporter v0.97b - (c)2007 guruware
# File Created: 21.07.2018 03:54:05

#
# object 49_simple_wood
#

v  13.7339 -0.0131 2.7086
v  13.7339 -0.0131 1.5602
v  13.7339 1.4783 1.5468
v  13.7339 1.4783 2.7086
v  -13.7339 1.4783 2.7086
v  -9.6322 1.4783 2.3976
v  -13.4360 1.4783 -0.4142
v  -13.7339 -0.0131 2.7086
v  -9.4330 -0.0131 2.3976
v  -13.7339 -0.0131 -2.9189
v  -8.5589 -0.0131 -2.5011
v  -13.4360 -0.0131 -0.5567
v  -13.7339 1.4783 -2.9189
v  13.7339 -0.0131 -1.7381
v  13.7339 -0.0131 -2.9189
v  13.7339 1.4783 -2.9189
v  13.7339 1.4783 -1.6526
v  0.4310 1.4783 -2.9189
v  -3.9598 0.4045 -2.6234
v  -4.6166 1.4783 -1.6667
v  13.1920 1.4783 -0.7079
v  13.1920 -0.0131 -0.8102
v  4.0783 0.4259 2.8956
v  2.3719 0.2060 0.4850
v  -8.3592 1.4783 -2.9189
v  0.7100 -0.0131 -2.9189
v  -3.9030 0.1649 -2.3396
v  -8.8980 0.0382 -0.9752
v  -3.4439 0.5539 2.9189
v  -3.5642 1.4783 2.9189
v  4.2267 1.4783 2.8956
v  -5.0161 0.2494 0.0132
# 32 vertices

vn 1.0000 0.0000 -0.0000
vn 0.0000 1.0000 -0.0000
vn 0.0749 0.0021 0.9972
vn 0.0721 0.0096 0.9973
vn 0.0729 0.0077 0.9973
vn 0.0756 0.0000 0.9971
vn 0.0000 -1.0000 -0.0000
vn 0.0247 -0.9991 0.0342
vn 0.0034 -1.0000 0.0002
vn -0.9924 -0.0040 0.1226
vn -0.9921 0.0000 0.1251
vn -0.9927 -0.0075 0.1205
vn -0.9929 -0.0113 0.1181
vn -0.1956 0.5829 -0.7886
vn 0.8655 -0.0320 0.5000
vn 0.8669 -0.0341 0.4972
vn 0.8647 -0.0310 0.5014
vn 0.8632 -0.0289 0.5041
vn 0.9732 0.0042 -0.2298
vn 0.9747 0.0153 -0.2228
vn 0.9739 0.0092 -0.2266
vn 0.9723 -0.0021 -0.2337
vn -0.0332 -0.9994 0.0109
vn -0.0454 -0.9990 -0.0000
vn -0.0263 -0.9942 0.1046
vn -0.0157 -0.9962 0.0857
vn -0.9956 0.0064 -0.0938
vn -0.9959 0.0000 -0.0909
vn -0.9958 0.0025 -0.0920
vn -0.9954 0.0091 -0.0950
vn 0.0134 -0.2263 -0.9740
vn 0.0805 0.0000 -0.9968
vn 0.0661 -0.0499 -0.9966
vn 0.0000 -0.2698 -0.9629
vn 0.2200 0.7205 -0.6576
vn -0.1062 -0.6644 -0.7398
vn -0.0642 -0.0120 -0.9979
vn -0.0681 -0.0571 -0.9960
vn -0.1086 -0.7702 -0.6285
vn 0.0344 -0.3033 -0.9523
vn -0.1463 -0.7701 -0.6209
vn -0.1068 -0.6817 -0.7238
vn 0.0438 -0.2749 -0.9605
vn 0.0000 0.0000 -1.0000
vn 0.0347 -0.9991 0.0250
vn -0.0132 -0.9981 0.0598
vn 0.0462 -0.9989 -0.0046
vn -0.0856 -0.0114 0.9963
vn -0.0857 -0.0111 0.9963
vn -0.0857 -0.0112 0.9963
vn 0.0108 -0.0014 0.9999
vn 0.0194 0.0000 0.9998
vn 0.0194 -0.0002 0.9998
vn 0.0121 -0.0017 0.9999
vn -0.0094 -0.9999 0.0071
vn 0.0164 -0.9972 0.0733
vn 0.0120 -0.9961 0.0871
vn 0.0030 0.0003 1.0000
vn 0.0030 0.0004 1.0000
vn -0.0095 -0.9995 0.0303
# 60 vertex normals

vt 0.6692 0.5943 0.0000
vt 0.6692 0.5984 0.0000
vt 0.6640 0.5985 0.0000
vt 0.6640 0.5943 0.0000
vt 0.4547 0.6446 0.0000
vt 0.4557 0.6304 0.0000
vt 0.4655 0.6436 0.0000
vt 0.4850 0.5514 0.0000
vt 0.4850 0.5663 0.0000
vt 0.4798 0.5656 0.0000
vt 0.4798 0.5514 0.0000
vt 0.4198 0.6476 0.0000
vt 0.4212 0.6296 0.0000
vt 0.4280 0.6465 0.0000
vt 0.5882 0.4400 0.0000
vt 0.5830 0.4400 0.0000
vt 0.5830 0.4318 0.0000
vt 0.5882 0.4313 0.0000
vt 0.6692 0.6100 0.0000
vt 0.6692 0.6141 0.0000
vt 0.6640 0.6141 0.0000
vt 0.6640 0.6097 0.0000
vt 0.5975 0.2985 0.0000
vt 0.6013 0.3138 0.0000
vt 0.5965 0.3165 0.0000
vt 0.4665 0.5512 0.0000
vt 0.4698 0.5493 0.0000
vt 0.6640 0.6064 0.0000
vt 0.6692 0.6067 0.0000
vt 0.4587 0.5493 0.0000
vt 0.4353 0.5521 0.0000
vt 0.4393 0.5521 0.0000
vt 0.4399 0.5857 0.0000
vt 0.4316 0.5917 0.0000
vt 0.5830 0.4204 0.0000
vt 0.5882 0.4204 0.0000
vt 0.4698 0.6130 0.0000
vt 0.4742 0.5493 0.0000
vt 0.4742 0.5955 0.0000
vt 0.4592 0.8021 0.0000
vt 0.4773 0.8023 0.0000
vt 0.4772 0.8075 0.0000
vt 0.4585 0.8075 0.0000
vt 0.6010 0.3296 0.0000
vt 0.7410 0.8398 0.0000
vt 0.7563 0.8358 0.0000
vt 0.7573 0.8410 0.0000
vt 0.7411 0.8407 0.0000
vt 0.4431 0.8036 0.0000
vt 0.4429 0.8025 0.0000
vt 0.8027 0.8358 0.0000
vt 0.8027 0.8410 0.0000
vt 0.4265 0.6308 0.0000
vt 0.4198 0.5973 0.0000
vt 0.4198 0.5521 0.0000
vt 0.4238 0.5521 0.0000
vt 0.4742 0.6260 0.0000
vt 0.4742 0.6446 0.0000
vt 0.4393 0.6476 0.0000
vt 0.4383 0.6326 0.0000
vt 0.4829 0.5871 0.0000
vt 0.4798 0.5866 0.0000
vt 0.4834 0.6132 0.0000
vt 0.4850 0.6466 0.0000
vt 0.4798 0.6466 0.0000
vt 0.4798 0.6137 0.0000
vt 0.4271 0.5541 0.0000
vt 0.4299 0.6173 0.0000
vt 0.4400 0.6118 0.0000
vt 0.4539 0.6093 0.0000
vt 0.4540 0.5823 0.0000
vt 0.4547 0.5493 0.0000
vt 0.4218 0.6134 0.0000
# 73 texture coords

g 49_simple_wood
s 1
f 1/1/1 2/2/1 3/3/1 4/4/1 
s 2
f 5/5/2 6/6/2 7/7/2 
s 1
f 8/8/3 9/9/4 6/10/5 5/11/6 
s 2
f 10/12/7 11/13/8 12/14/9 
s 1
f 13/15/10 10/16/11 12/17/12 7/18/13 
f 14/19/1 15/20/1 16/21/1 17/22/1 
f 18/23/14 19/24/14 20/25/14 
s 2
f 7/7/2 21/26/2 17/27/2 
s 4
f 17/22/15 21/28/16 22/29/17 14/19/18 
s 8
f 2/2/19 22/29/20 21/28/21 3/3/22 
s 2
f 3/30/2 21/26/2 7/7/2 
f 2/31/23 1/32/24 23/33/25 24/34/26 
s 4
f 12/17/27 8/35/28 5/36/29 7/18/30 
s 2
f 20/37/2 17/27/2 16/38/2 18/39/2 
s 4
f 11/40/31 10/41/32 13/42/33 25/43/34 
s 8
f 19/24/35 25/44/35 20/25/35 
s 4
f 19/45/36 18/46/37 26/47/38 27/48/39 
s 16
f 25/43/40 19/49/41 27/50/42 11/40/43 
s 8
f 18/46/44 16/51/44 15/52/44 26/47/44 
s 2
f 11/13/8 28/53/45 12/14/9 
f 26/54/46 15/55/7 14/56/7 
f 20/37/2 25/57/2 13/58/2 7/7/2 
f 20/37/2 7/7/2 17/27/2 
f 8/59/7 12/14/9 9/60/47 
s 4
f 9/9/48 29/61/49 30/62/50 6/10/48 
s 8
f 23/63/51 1/64/52 4/65/53 31/66/54 
s 2
f 26/54/46 14/56/7 22/67/55 24/34/26 
f 32/68/56 24/34/26 29/69/57 
s 8
f 29/61/58 23/63/51 31/66/54 30/62/59 
s 2
f 6/6/2 30/70/2 7/7/2 
f 30/70/2 31/71/2 3/30/2 7/7/2 
f 31/71/2 4/72/2 3/30/2 
f 12/14/9 28/53/45 9/60/47 
f 22/67/55 2/31/23 24/34/26 
f 24/34/26 23/33/25 29/69/57 
f 32/68/56 27/73/60 26/54/46 24/34/26 
f 11/13/8 27/73/60 28/53/45 
f 28/53/45 27/73/60 32/68/56 
f 28/53/45 32/68/56 29/69/57 9/60/47 
# 21 polygons - 18 triangles

