# 3ds Max Wavefront OBJ Exporter v0.97b - (c)2007 guruware
# File Created: 21.07.2018 03:56:10

#
# object 54_simple_wood_6
#

v  -0.3995 0.0044 1.5197
v  0.3995 0.0044 0.9391
v  0.3995 7.2026 0.9391
v  0.3995 13.7391 0.9391
v  -0.3995 13.7391 1.5197
v  0.3995 0.0044 -0.9392
v  0.3995 5.6332 -0.9392
v  -0.3995 8.4902 -1.5197
v  -0.3995 13.7391 -1.5197
v  0.3995 13.7391 -0.9392
v  0.3995 10.2478 -0.9392
v  -0.3995 0.0044 -1.5197
# 12 vertices

vn 0.5879 0.0000 0.8089
vn 1.0000 0.0000 -0.0000
vn 0.8910 0.0000 -0.4540
vn 0.8936 0.0450 -0.4467
vn 0.9875 0.0378 -0.1528
vn 0.8703 -0.0704 -0.4874
vn 0.5878 0.0000 -0.8090
vn 0.8904 -0.0435 -0.4531
vn 0.0000 1.0000 -0.0000
vn -1.0000 0.0000 -0.0000
vn 0.0000 -1.0000 -0.0000
# 11 vertex normals

vt 0.6780 0.7774 0.0000
vt 0.6779 0.7738 0.0000
vt 0.7031 0.7734 0.0000
vt 0.7260 0.7733 0.0000
vt 0.7261 0.7766 0.0000
vt 0.6779 0.7672 0.0000
vt 0.6974 0.7672 0.0000
vt 0.7076 0.7640 0.0000
vt 0.7260 0.7636 0.0000
vt 0.7260 0.7670 0.0000
vt 0.7138 0.7671 0.0000
vt 0.4347 0.7685 0.0000
vt 0.4367 0.7657 0.0000
vt 0.4432 0.7657 0.0000
vt 0.4452 0.7685 0.0000
vt 0.5017 0.7462 0.0000
vt 0.4912 0.7462 0.0000
vt 0.4912 0.7280 0.0000
vt 0.4912 0.6985 0.0000
vt 0.5017 0.6985 0.0000
vt 0.6778 0.7638 0.0000
vt 0.5948 0.5268 0.0000
vt 0.6053 0.5268 0.0000
vt 0.6033 0.5296 0.0000
vt 0.5968 0.5296 0.0000
# 25 texture coords

g 54_simple_wood_6
s 1
f 1/1/1 2/2/1 3/3/1 4/4/1 5/5/1 
s 2
f 2/2/2 6/6/3 7/7/4 3/3/5 
f 8/8/6 9/9/7 10/10/3 11/11/8 
s 4
f 5/12/9 4/13/9 10/14/9 9/15/9 
s 8
f 5/16/10 9/17/10 8/18/10 12/19/10 1/20/10 
s 2
f 7/7/4 6/6/3 12/21/7 8/8/6 
f 11/11/8 10/10/3 4/4/2 3/3/5 
f 3/3/5 8/8/6 11/11/8 
f 3/3/5 7/7/4 8/8/6 
s off
f 1/22/11 12/23/11 6/24/11 2/25/11 
# 8 polygons - 2 triangles

