# 3ds Max Wavefront OBJ Exporter v0.97b - (c)2007 guruware
# File Created: 21.07.2018 03:56:49

#
# object 55_simple_wood_7
#

v  -0.5520 0.0044 1.4727
v  0.2469 0.0044 0.8923
v  0.2469 8.8279 0.9675
v  0.2469 13.4592 0.9862
v  -0.5520 13.4592 1.5666
v  0.5520 6.6782 0.0133
v  0.2469 8.7057 -0.9117
v  0.2469 0.0044 -0.9862
v  -0.5520 0.0044 -1.5667
v  -0.5520 13.4592 -1.4727
v  0.2469 13.4592 -0.8922
v  0.5520 0.0044 -0.0471
v  0.5520 13.4592 0.0470
v  0.5520 12.3770 0.0395
# 14 vertices

vn 0.5872 -0.0068 0.8094
vn 0.8098 -0.0050 0.5866
vn 0.8665 0.0052 0.4991
vn 0.8083 -0.0038 0.5887
vn 0.5878 -0.0056 0.8090
vn 0.9998 0.0202 0.0012
vn 0.9993 0.0113 -0.0360
vn 0.8085 0.0044 -0.5885
vn 0.5878 0.0057 -0.8090
vn 0.8099 0.0036 -0.5866
vn 0.0000 1.0000 -0.0000
vn -1.0000 0.0000 -0.0000
vn 1.0000 0.0001 -0.0018
vn 1.0000 -0.0004 0.0011
vn 1.0000 -0.0068 -0.0027
vn 0.0000 -1.0000 -0.0000
# 16 vertex normals

vt 0.5380 0.3888 0.0000
vt 0.5415 0.3888 0.0000
vt 0.5413 0.4195 0.0000
vt 0.5412 0.4357 0.0000
vt 0.5378 0.4356 0.0000
vt 0.5447 0.4121 0.0000
vt 0.5479 0.4191 0.0000
vt 0.5483 0.3888 0.0000
vt 0.5518 0.3888 0.0000
vt 0.5512 0.4357 0.0000
vt 0.5479 0.4357 0.0000
vt 0.6193 0.7521 0.0000
vt 0.6221 0.7541 0.0000
vt 0.6221 0.7606 0.0000
vt 0.6193 0.7626 0.0000
vt 0.5217 0.6985 0.0000
vt 0.5322 0.6986 0.0000
vt 0.5320 0.7453 0.0000
vt 0.5215 0.7452 0.0000
vt 0.5448 0.3888 0.0000
vt 0.5446 0.4357 0.0000
vt 0.5446 0.4319 0.0000
vt 0.6593 0.4219 0.0000
vt 0.6593 0.4114 0.0000
vt 0.6621 0.4134 0.0000
vt 0.6621 0.4199 0.0000
vt 0.6631 0.4167 0.0000
vt 0.6232 0.7573 0.0000
# 28 texture coords

g 55_simple_wood_7
s 1
f 1/1/1 2/2/2 3/3/3 4/4/4 5/5/5 
f 6/6/6 7/7/7 3/3/3 
f 8/8/8 9/9/9 10/10/9 11/11/10 7/7/7 
s 2
f 5/12/11 4/13/11 11/14/11 10/15/11 
s 4
f 5/16/12 10/17/12 9/18/12 1/19/12 
s 1
f 6/6/6 12/20/13 8/8/8 7/7/7 
f 7/7/7 11/11/10 13/21/14 14/22/15 
f 14/22/15 13/21/14 4/4/4 3/3/3 
f 3/3/3 2/2/2 12/20/13 6/6/6 
f 7/7/7 14/22/15 3/3/3 
s off
f 1/23/16 9/24/16 8/25/16 2/26/16 
f 8/25/16 12/27/16 2/26/16 
s 2
f 4/13/11 13/28/11 11/14/11 
# 9 polygons - 4 triangles

