# 3ds Max Wavefront OBJ Exporter v0.97b - (c)2007 guruware
# File Created: 21.07.2018 03:57:14

#
# object 56_Color
#

v  1.0968 1.0023 -2.6835
v  0.8005 1.7204 -2.7094
v  0.6301 1.8619 2.8346
v  0.9264 1.1438 2.8605
v  0.0852 2.0178 -2.7720
v  -0.0852 2.1593 2.7720
v  -0.6301 1.7204 -2.8346
v  -0.8005 1.8619 2.7094
v  -0.9264 1.0023 -2.8605
v  -1.0968 1.1438 2.6835
v  -0.6301 0.2843 -2.8346
v  -0.8005 0.4258 2.7094
v  0.0852 -0.0131 -2.7720
v  -0.0852 0.1284 2.7720
v  0.8005 0.2843 -2.7094
v  0.6301 0.4258 2.8346
v  -0.0852 1.1438 2.7720
v  0.0852 1.0023 -2.7720
# 18 vertices

vn 0.9240 0.3819 0.0187
vn 0.3848 0.9229 -0.0117
vn -0.3810 0.9239 -0.0353
vn -0.9232 0.3823 -0.0381
vn -0.9240 -0.3820 -0.0187
vn -0.3848 -0.9229 0.0117
vn 0.3810 -0.9239 0.0353
vn 0.9232 -0.3824 0.0381
vn -0.0872 0.0000 0.9962
vn -0.0872 -0.0000 0.9962
vn 0.0872 0.0000 -0.9962
vn 0.0872 -0.0000 -0.9962
# 12 vertex normals

vt 0.5336 0.4707 0.0000
vt 0.5336 0.4680 0.0000
vt 0.5528 0.4680 0.0000
vt 0.5528 0.4707 0.0000
vt 0.5336 0.4653 0.0000
vt 0.5528 0.4653 0.0000
vt 0.5336 0.4868 0.0000
vt 0.5336 0.4842 0.0000
vt 0.5528 0.4842 0.0000
vt 0.5528 0.4868 0.0000
vt 0.5336 0.4815 0.0000
vt 0.5528 0.4815 0.0000
vt 0.5336 0.4788 0.0000
vt 0.5528 0.4788 0.0000
vt 0.5336 0.4761 0.0000
vt 0.5528 0.4761 0.0000
vt 0.5336 0.4734 0.0000
vt 0.5528 0.4734 0.0000
vt 0.6381 0.5599 0.0000
vt 0.6399 0.5580 0.0000
vt 0.6413 0.5613 0.0000
vt 0.6426 0.5580 0.0000
vt 0.6446 0.5598 0.0000
vt 0.6446 0.5625 0.0000
vt 0.6427 0.5645 0.0000
vt 0.6400 0.5645 0.0000
vt 0.6381 0.5626 0.0000
vt 0.6225 0.4474 0.0000
vt 0.6224 0.4447 0.0000
vt 0.6257 0.4459 0.0000
vt 0.6244 0.4492 0.0000
vt 0.6271 0.4492 0.0000
vt 0.6290 0.4473 0.0000
vt 0.6290 0.4446 0.0000
vt 0.6271 0.4427 0.0000
vt 0.6243 0.4427 0.0000
# 36 texture coords

g 56_Color
s 1
f 1/1/1 2/2/1 3/3/1 4/4/1 
s 2
f 2/2/2 5/5/2 6/6/2 3/3/2 
s 1
f 5/7/3 7/8/3 8/9/3 6/10/3 
s 2
f 7/8/4 9/11/4 10/12/4 8/9/4 
s 1
f 9/11/5 11/13/5 12/14/5 10/12/5 
s 2
f 11/13/6 13/15/6 14/16/6 12/14/6 
s 1
f 13/15/7 15/17/7 16/18/7 14/16/7 
s 2
f 15/17/8 1/1/8 4/4/8 16/18/8 
s 4
f 4/19/9 3/20/10 17/21/9 
f 3/20/10 6/22/9 17/21/9 
f 6/22/9 8/23/9 17/21/9 
f 8/23/9 10/24/10 17/21/9 
f 10/24/10 12/25/10 17/21/9 
f 12/25/10 14/26/9 17/21/9 
f 14/26/9 16/27/9 17/21/9 
f 16/27/9 4/19/9 17/21/9 
f 2/28/11 1/29/12 18/30/11 
f 5/31/11 2/28/11 18/30/11 
f 7/32/12 5/31/11 18/30/11 
f 9/33/11 7/32/12 18/30/11 
f 11/34/11 9/33/11 18/30/11 
f 13/35/11 11/34/11 18/30/11 
f 15/36/12 13/35/11 18/30/11 
f 1/29/12 15/36/12 18/30/11 
# 8 polygons - 16 triangles

