# 3ds Max Wavefront OBJ Exporter v0.97b - (c)2007 guruware
# File Created: 21.07.2018 03:57:33

#
# object 57_Color_2
#

v  1.0512 1.0023 -2.6835
v  0.7549 1.7204 -2.7094
v  0.6758 1.7763 2.8345
v  0.9720 1.0582 2.8605
v  0.0396 2.0178 -2.7720
v  -0.0396 2.0737 2.7720
v  -0.6757 1.7204 -2.8346
v  -0.7549 1.7763 2.7094
v  -0.9720 1.0023 -2.8605
v  -1.0512 1.0582 2.6835
v  -0.6757 0.2843 -2.8346
v  -0.7549 0.3402 2.7094
v  0.0396 -0.0131 -2.7720
v  -0.0396 0.0427 2.7720
v  0.7549 0.2843 -2.7094
v  0.6758 0.3402 2.8345
v  -0.0396 1.0582 2.7720
v  0.0396 1.0023 -2.7720
# 18 vertices

vn 0.9242 0.3817 0.0093
vn 0.9243 0.3816 0.0094
vn 0.3842 0.9232 -0.0038
vn 0.3841 0.9233 -0.0038
vn -0.3828 0.9237 -0.0148
vn -0.9240 0.3819 -0.0171
vn -0.9242 -0.3817 -0.0094
vn -0.3842 -0.9232 0.0038
vn -0.3843 -0.9232 0.0038
vn 0.3828 -0.9237 0.0148
vn 0.9240 -0.3819 0.0171
vn 0.9241 -0.3818 0.0170
vn -0.0872 -0.0000 0.9962
vn -0.0871 0.0001 0.9962
vn -0.0871 -0.0000 0.9962
vn -0.0871 0.0000 0.9962
vn -0.0872 0.0000 0.9962
vn -0.0871 -0.0001 0.9962
vn 0.0872 0.0000 -0.9962
vn 0.0872 -0.0000 -0.9962
# 20 vertex normals

vt 0.5549 0.5081 0.0000
vt 0.5549 0.5108 0.0000
vt 0.5356 0.5108 0.0000
vt 0.5356 0.5081 0.0000
vt 0.5549 0.5135 0.0000
vt 0.5356 0.5135 0.0000
vt 0.5549 0.4920 0.0000
vt 0.5549 0.4947 0.0000
vt 0.5356 0.4947 0.0000
vt 0.5356 0.4920 0.0000
vt 0.5549 0.4974 0.0000
vt 0.5356 0.4974 0.0000
vt 0.5549 0.5001 0.0000
vt 0.5356 0.5001 0.0000
vt 0.5549 0.5028 0.0000
vt 0.5356 0.5028 0.0000
vt 0.5549 0.5055 0.0000
vt 0.5356 0.5055 0.0000
vt 0.5845 0.5308 0.0000
vt 0.5826 0.5289 0.0000
vt 0.5858 0.5275 0.0000
vt 0.5825 0.5263 0.0000
vt 0.5844 0.5243 0.0000
vt 0.5871 0.5242 0.0000
vt 0.5890 0.5262 0.0000
vt 0.5890 0.5289 0.0000
vt 0.5872 0.5308 0.0000
vt 0.6435 0.5486 0.0000
vt 0.6436 0.5513 0.0000
vt 0.6403 0.5500 0.0000
vt 0.6417 0.5467 0.0000
vt 0.6390 0.5468 0.0000
vt 0.6370 0.5487 0.0000
vt 0.6370 0.5514 0.0000
vt 0.6390 0.5533 0.0000
vt 0.6417 0.5533 0.0000
# 36 texture coords

g 57_Color_2
s 1
f 1/1/1 2/2/1 3/3/2 4/4/2 
s 2
f 2/2/3 5/5/3 6/6/4 3/3/4 
s 1
f 5/7/5 7/8/5 8/9/5 6/10/5 
s 2
f 7/8/6 9/11/6 10/12/6 8/9/6 
s 1
f 9/11/7 11/13/7 12/14/7 10/12/7 
s 2
f 11/13/8 13/15/8 14/16/9 12/14/9 
s 1
f 13/15/10 15/17/10 16/18/10 14/16/10 
s 2
f 15/17/11 1/1/11 4/4/12 16/18/12 
s 4
f 4/19/13 3/20/14 17/21/15 
f 3/20/14 6/22/16 17/21/15 
f 6/22/16 8/23/17 17/21/15 
f 8/23/17 10/24/13 17/21/15 
f 10/24/13 12/25/13 17/21/15 
f 12/25/13 14/26/16 17/21/15 
f 14/26/16 16/27/18 17/21/15 
f 16/27/18 4/19/13 17/21/15 
f 2/28/19 1/29/20 18/30/20 
f 5/31/19 2/28/19 18/30/20 
f 7/32/20 5/31/19 18/30/20 
f 9/33/19 7/32/20 18/30/20 
f 11/34/19 9/33/19 18/30/20 
f 13/35/19 11/34/19 18/30/20 
f 15/36/20 13/35/19 18/30/20 
f 1/29/20 15/36/20 18/30/20 
# 8 polygons - 16 triangles

