# 3ds Max Wavefront OBJ Exporter v0.97b - (c)2007 guruware
# File Created: 21.07.2018 03:58:05

#
# object 58_plastic_ball_pool
#

v  -10.1390 0.9649 5.0574
v  -10.1390 0.9649 10.1148
v  -5.0695 0.9649 10.1148
v  -5.0695 -0.3398 5.0574
v  -0.0000 0.9649 10.1148
v  -0.0000 -0.3398 5.0574
v  5.0695 0.9649 10.1148
v  5.0695 -0.3398 5.0574
v  10.1390 0.9649 10.1148
v  10.1390 0.9649 5.0574
v  -10.1390 0.9649 -0.0000
v  -5.0695 -0.3398 -0.0000
v  -0.0000 -0.9561 -0.0000
v  5.0695 -0.3398 -0.0000
v  10.1390 0.9649 -0.0000
v  -10.1390 0.9649 -5.0574
v  -5.0695 -0.3398 -5.0574
v  -0.0000 -0.3398 -5.0574
v  5.0695 -0.3398 -5.0574
v  10.1390 0.9649 -5.0574
v  -10.1390 0.9649 -10.1148
v  -5.0695 0.9649 -10.1148
v  -0.0000 0.9649 -10.1148
v  5.0695 0.9649 -10.1148
v  10.1390 0.9649 -10.1148
# 25 vertices

vn 0.1877 0.9802 -0.0630
vn 0.0000 1.0000 -0.0000
vn 0.0631 0.9801 -0.1883
vn 0.1235 0.9846 -0.1238
vn 0.0000 0.9683 -0.2498
vn 0.0152 0.9852 -0.1709
vn -0.1099 0.9878 -0.1102
vn -0.1268 0.9838 -0.1267
vn -0.2492 0.9684 -0.0000
vn 0.2492 0.9684 -0.0000
vn 0.1705 0.9852 -0.0152
vn -0.1705 0.9852 0.0152
vn 0.1099 0.9878 0.1102
vn -0.0152 0.9852 0.1709
vn -0.1235 0.9846 0.1238
vn -0.1877 0.9802 0.0630
vn 0.1268 0.9838 0.1267
vn 0.0000 0.9683 0.2498
vn -0.0631 0.9801 0.1883
# 19 vertex normals

vt 0.9594 0.7531 0.0000
vt 0.9772 0.7531 0.0000
vt 0.9772 0.7709 0.0000
vt 0.9594 0.7709 0.0000
vt 0.9772 0.7887 0.0000
vt 0.9594 0.7887 0.0000
vt 0.9772 0.8065 0.0000
vt 0.9594 0.8065 0.0000
vt 0.9772 0.8243 0.0000
vt 0.9594 0.8243 0.0000
vt 0.9417 0.7531 0.0000
vt 0.9417 0.7709 0.0000
vt 0.9417 0.7887 0.0000
vt 0.9417 0.8065 0.0000
vt 0.9417 0.8243 0.0000
vt 0.9238 0.7531 0.0000
vt 0.9238 0.7709 0.0000
vt 0.9238 0.7887 0.0000
vt 0.9238 0.8065 0.0000
vt 0.9238 0.8243 0.0000
vt 0.9061 0.7531 0.0000
vt 0.9061 0.7709 0.0000
vt 0.9061 0.7887 0.0000
vt 0.9061 0.8065 0.0000
vt 0.9061 0.8243 0.0000
# 25 texture coords

g 58_plastic_ball_pool
s 1
f 1/1/1 2/2/2 3/3/3 4/4/4 
f 4/4/4 3/3/3 5/5/5 6/6/6 
f 6/6/6 5/5/5 7/7/5 8/8/7 
f 8/8/7 7/7/5 9/9/8 10/10/9 
f 11/11/10 1/1/1 4/4/4 12/12/11 
f 12/12/11 4/4/4 6/6/6 13/13/2 
f 13/13/2 6/6/6 8/8/7 14/14/12 
f 14/14/12 8/8/7 10/10/9 15/15/9 
f 16/16/10 11/11/10 12/12/11 17/17/13 
f 17/17/13 12/12/11 13/13/2 18/18/14 
f 18/18/14 13/13/2 14/14/12 19/19/15 
f 19/19/15 14/14/12 15/15/9 20/20/16 
f 21/21/17 16/16/10 17/17/13 22/22/18 
f 22/22/18 17/17/13 18/18/14 23/23/18 
f 23/23/18 18/18/14 19/19/15 24/24/19 
f 24/24/19 19/19/15 20/20/16 25/25/2 
# 16 polygons

