# 3ds Max Wavefront OBJ Exporter v0.97b - (c)2007 guruware
# File Created: 21.07.2018 02:59:40

#
# object 5_Wood_long_3
#

v  -0.7538 13.6727 0.8045
v  -0.6588 8.5911 1.0299
v  0.7166 8.7760 0.9009
v  0.6907 13.7192 0.6188
v  0.9745 47.4762 -1.0469
v  0.9745 47.3337 1.0299
v  0.6677 37.5022 0.8366
v  0.4897 37.2384 -0.6779
v  -0.9467 47.3738 -1.0469
v  -0.9467 47.4762 1.0299
v  -0.5551 13.1988 -1.0469
v  -0.6923 8.5606 -1.0469
v  0.9745 13.5167 -0.6548
v  0.9745 8.6413 -0.6738
v  -0.9467 -0.0548 1.0299
v  -0.9467 -0.0548 -1.0469
v  0.9745 -0.0548 -1.0469
v  0.9745 0.1642 1.0299
v  -0.9467 37.5901 0.7365
v  -0.9745 38.3161 -0.8487
v  -0.8760 26.1461 1.0470
v  -0.8451 26.9974 -0.9099
v  0.9745 26.0258 -0.6060
v  0.6212 26.1758 0.8561
# 24 vertices

vn 0.1235 0.0191 0.9922
vn 0.0829 0.0292 0.9961
vn 0.0925 0.0338 0.9951
vn 0.1268 0.0189 0.9917
vn 0.9994 -0.0332 -0.0131
vn 0.9995 -0.0311 -0.0021
vn 0.9955 -0.0103 -0.0937
vn 0.9932 0.0000 -0.1167
vn 0.0073 0.9999 0.0126
vn 0.0739 0.9961 -0.0491
vn 0.0136 0.9999 0.0067
vn -0.0531 0.9962 0.0684
vn -0.9997 0.0250 0.0013
vn -0.9950 -0.0208 -0.0976
vn -0.9962 -0.0146 -0.0855
vn -0.9994 0.0312 0.0145
vn 0.2216 -0.0027 -0.9751
vn 0.2455 -0.0021 -0.9694
vn 0.2452 0.0001 -0.9695
vn 0.2037 0.0023 -0.9790
vn 0.0595 -0.9967 0.0550
vn 0.0000 -1.0000 -0.0000
vn 0.0539 -0.9973 0.0499
vn 0.1126 -0.9882 0.1042
vn 0.9773 0.0018 0.2120
vn 0.9888 0.0068 0.1491
vn 0.9861 0.0018 0.1659
vn 0.9759 0.0000 0.2181
vn -0.9999 -0.0026 0.0152
vn -1.0000 0.0000 -0.0000
vn -1.0000 0.0003 0.0019
vn -0.9999 -0.0001 0.0158
vn -0.9998 -0.0099 -0.0187
vn -0.9997 -0.0111 -0.0240
vn 0.9995 0.0299 -0.0032
vn 0.9995 0.0254 0.0174
vn 0.1654 0.0054 -0.9862
vn 0.0912 -0.0249 -0.9955
vn 0.1128 -0.0078 -0.9936
vn 0.1725 0.0088 -0.9850
vn -0.0589 -0.0129 0.9982
vn -0.0015 -0.0196 0.9998
vn -0.0081 -0.0207 0.9998
vn -0.0548 -0.0133 0.9984
vn 0.1264 0.0046 0.9920
vn 0.1181 0.0039 0.9930
vn 0.9721 -0.0023 0.2345
vn 0.9754 -0.0002 0.2206
vn 0.0012 -0.0219 -0.9998
vn 0.0106 -0.0239 -0.9997
vn 0.0000 0.0429 -0.9991
vn 0.0273 0.0368 -0.9989
vn -0.9996 0.0295 -0.0000
vn -0.9995 0.0301 0.0024
vn 0.0000 0.0000 1.0000
vn 0.0089 0.0017 1.0000
# 56 vertex normals

vt 0.2788 0.6454 0.0000
vt 0.2964 0.6457 0.0000
vt 0.2957 0.6505 0.0000
vt 0.2786 0.6504 0.0000
vt 0.1706 0.6018 0.0000
vt 0.1711 0.5946 0.0000
vt 0.2055 0.5953 0.0000
vt 0.2064 0.6006 0.0000
vt 0.5383 0.5539 0.0000
vt 0.5455 0.5539 0.0000
vt 0.5455 0.5606 0.0000
vt 0.5383 0.5606 0.0000
vt 0.2970 0.7156 0.0000
vt 0.2794 0.7149 0.0000
vt 0.2810 0.7084 0.0000
vt 0.2971 0.7084 0.0000
vt 0.2965 0.6258 0.0000
vt 0.2804 0.6253 0.0000
vt 0.2792 0.6199 0.0000
vt 0.2962 0.6199 0.0000
vt 0.6576 0.7293 0.0000
vt 0.6504 0.7293 0.0000
vt 0.6504 0.7227 0.0000
vt 0.6576 0.7227 0.0000
vt 0.2886 0.5961 0.0000
vt 0.3058 0.5951 0.0000
vt 0.3063 0.6006 0.0000
vt 0.2892 0.6005 0.0000
vt 0.1965 0.7146 0.0000
vt 0.1623 0.7156 0.0000
vt 0.1627 0.7084 0.0000
vt 0.1940 0.7091 0.0000
vt 0.2361 0.7157 0.0000
vt 0.2333 0.7089 0.0000
vt 0.3359 0.5946 0.0000
vt 0.3367 0.6018 0.0000
vt 0.2323 0.6263 0.0000
vt 0.1928 0.6267 0.0000
vt 0.1965 0.6216 0.0000
vt 0.2357 0.6199 0.0000
vt 0.1958 0.6503 0.0000
vt 0.1615 0.6513 0.0000
vt 0.1610 0.6447 0.0000
vt 0.1955 0.6447 0.0000
vt 0.2353 0.6450 0.0000
vt 0.2352 0.6502 0.0000
vt 0.2450 0.5952 0.0000
vt 0.2456 0.6003 0.0000
vt 0.1613 0.6266 0.0000
vt 0.1609 0.6199 0.0000
vt 0.3265 0.6199 0.0000
vt 0.3265 0.6266 0.0000
vt 0.3269 0.7084 0.0000
vt 0.3269 0.7156 0.0000
vt 0.3265 0.6447 0.0000
vt 0.3258 0.6513 0.0000
# 56 texture coords

g 5_Wood_long_3
s 1
f 1/1/1 2/2/2 3/3/3 4/4/4 
s 2
f 5/5/5 6/6/6 7/7/7 8/8/8 
s 4
f 9/9/9 10/10/10 6/11/11 5/12/12 
s 2
f 2/13/13 1/14/14 11/15/15 12/16/16 
s 1
f 12/17/17 11/18/18 13/19/19 14/20/20 
s 4
f 15/21/21 16/22/22 17/23/23 18/24/24 
s 2
f 4/25/25 3/26/26 14/27/27 13/28/28 
f 19/29/29 10/30/30 9/31/31 20/32/32 
f 1/14/14 21/33/33 22/34/34 11/15/15 
f 3/26/26 18/35/35 17/36/36 14/27/27 
s 1
f 22/37/37 20/38/38 8/39/39 23/40/40 
f 7/41/41 6/42/42 10/43/43 19/44/44 
s 2
f 21/33/33 19/29/29 20/32/32 22/34/34 
s 1
f 19/44/44 21/45/45 24/46/46 7/41/41 
s 2
f 7/7/7 24/47/47 23/48/48 8/8/8 
s 1
f 20/38/38 9/49/49 5/50/50 8/39/39 
f 14/20/20 17/51/51 16/52/52 12/17/17 
s 2
f 12/16/16 16/53/53 15/54/54 2/13/13 
s 1
f 2/2/2 15/55/55 18/56/56 3/3/3 
f 11/18/18 22/37/37 23/40/40 13/19/19 
s 2
f 13/28/28 23/48/48 24/47/47 4/25/25 
s 1
f 4/4/4 24/46/46 21/45/45 1/1/1 
# 22 polygons

