# 3ds Max Wavefront OBJ Exporter v0.97b - (c)2007 guruware
# File Created: 21.07.2018 03:59:06

#
# object 60_wood_rail_2
#

v  0.7043 -0.0325 21.3738
v  -0.0664 -0.0252 21.1205
v  0.2314 4.2189 21.4608
v  0.7476 4.2162 21.6345
v  -0.7782 -0.0190 21.5067
v  -0.2513 4.2172 21.7239
v  -0.6552 -0.0198 22.9156
v  -0.1799 4.2138 22.6424
v  0.1132 -0.0301 23.1730
v  0.3531 4.2116 22.9435
v  0.8279 -0.0336 22.7898
v  0.8942 4.2126 22.4741
v  0.6122 11.1793 21.8333
v  -0.0282 11.1734 21.6136
v  -0.0440 12.1043 21.5157
v  0.5537 12.1980 21.6970
v  -0.8233 11.1836 21.9387
v  -0.5939 12.2539 21.7806
v  -0.7165 11.1897 23.1149
v  -0.4943 12.7643 22.7199
v  0.1182 11.1924 23.3253
v  0.0934 12.8530 22.8922
v  0.7092 11.1891 23.0058
v  0.6400 12.7124 22.6346
v  -0.0368 12.9284 21.0890
v  0.5022 13.0710 21.2163
v  -0.5327 13.1381 21.2784
v  -0.4366 13.8031 21.9432
v  0.0857 13.9320 22.0574
v  0.5709 13.7484 21.8731
v  -0.0367 13.0359 20.7083
v  0.4963 13.2102 20.7626
v  -0.5136 13.2742 20.7806
v  -0.6723 13.7426 20.9515
v  -0.4117 14.3903 21.0996
v  0.1082 14.4071 21.1481
v  0.5753 14.1051 21.0620
v  0.6963 0.0045 -21.6809
v  0.2518 4.5581 -22.2707
v  -0.2610 4.5575 -22.1095
v  -0.0641 0.0021 -21.4402
v  -0.7516 4.5552 -22.3816
v  -0.7882 -0.0077 -21.8264
v  -0.6667 4.5533 -23.3253
v  -0.6657 -0.0180 -23.2631
v  0.8280 -0.0076 -23.1510
v  0.3365 4.5554 -23.2589
v  0.4993 4.5572 -22.7477
v  0.9048 0.0006 -22.3879
v  0.4768 12.2039 -21.9463
v  0.4648 12.6233 -21.8524
v  -0.0455 12.2349 -21.7855
v  -0.5183 12.6649 -21.9466
v  -0.5276 12.2119 -22.0553
v  -0.4192 13.1426 -22.8044
v  -0.4406 12.2311 -23.0011
v  0.5412 13.1121 -22.7403
v  0.5604 12.2282 -22.9323
v  0.7235 12.8523 -22.2852
v  0.7233 12.2149 -22.4229
v  0.4654 13.0301 -21.5422
v  -0.5237 13.1145 -21.6142
v  -0.4184 13.8222 -22.2806
v  0.5378 13.7736 -22.2314
v  0.7236 13.3946 -21.8690
v  0.4778 13.1913 -21.0888
v  -0.0350 13.0350 -21.0488
v  -0.5287 13.2970 -21.1228
v  -0.4186 14.2100 -21.4313
v  0.5392 14.1451 -21.4039
v  0.7235 13.6466 -21.2352
v  0.2834 13.3155 -13.5625
v  -0.3187 13.1339 -13.5625
v  -0.8788 13.4143 -13.5651
v  -1.0696 13.9960 -13.5699
v  0.3664 14.4575 -13.5683
v  0.5773 13.8574 -13.5651
v  -0.4312 13.3557 15.7157
v  0.1706 13.0602 15.7165
v  -0.2941 14.4059 15.7132
v  -0.6350 13.9861 15.7155
v  0.8407 14.3933 15.7164
v  0.8209 13.2578 15.7178
v  1.0696 13.8347 15.7195
v  -0.6568 12.9869 6.5162
v  -0.0303 12.6792 6.5390
v  -0.5261 14.2152 6.4192
v  -0.8718 13.6310 6.4663
v  0.3858 14.2208 6.4009
v  0.6419 12.8789 6.5214
v  0.9717 13.4997 6.4737
v  -0.7555 14.5508 -13.5707
# 92 vertices

vn 0.3128 0.0542 -0.9483
vn 0.3122 0.0541 -0.9485
vn 0.3186 0.0442 -0.9469
vn 0.3188 0.0440 -0.9468
vn -0.4738 0.1037 -0.8745
vn -0.4736 0.1038 -0.8746
vn -0.4760 0.1035 -0.8733
vn -0.4763 0.1034 -0.8732
vn -0.9893 0.1183 0.0852
vn -0.9902 0.1162 0.0774
vn -0.9900 0.1167 0.0792
vn -0.9892 0.1186 0.0864
vn -0.3328 0.0731 0.9402
vn -0.3160 0.0691 0.9462
vn -0.4687 0.1059 0.8770
vn -0.4885 0.1107 0.8655
vn 0.4932 0.0523 0.8683
vn 0.4720 0.0580 0.8797
vn 0.6397 -0.0055 0.7686
vn 0.6553 -0.0077 0.7553
vn 0.3164 -0.0995 -0.9434
vn 0.3239 -0.0935 -0.9415
vn 0.3114 -0.1034 -0.9446
vn 0.3042 -0.1092 -0.9463
vn -0.3938 -0.0360 -0.9185
vn -0.3786 -0.0277 -0.9251
vn -0.4189 -0.0795 -0.9045
vn -0.4539 -0.1008 -0.8853
vn -0.9826 0.1778 0.0541
vn -0.9830 0.1609 0.0884
vn -0.9893 0.1375 0.0484
vn -0.9873 0.1578 0.0180
vn -0.2536 0.2487 0.9348
vn -0.2379 0.2418 0.9407
vn -0.2863 0.2628 0.9214
vn -0.3083 0.2722 0.9115
vn 0.4636 0.2297 0.8558
vn 0.4638 0.2296 0.8557
vn 0.4629 0.2301 0.8560
vn 0.4627 0.2302 0.8561
vn 0.9956 0.0329 -0.0875
vn 0.9955 0.0393 -0.0860
vn 0.9953 0.0168 -0.0955
vn 0.9953 0.0093 -0.0967
vn 0.3204 -0.4395 -0.8392
vn 0.3231 -0.4374 -0.8392
vn 0.3182 -0.4412 -0.8391
vn 0.3155 -0.4434 -0.8390
vn -0.4795 -0.4053 -0.7783
vn -0.4839 -0.4066 -0.7749
vn -0.4755 -0.4041 -0.7814
vn -0.4702 -0.4026 -0.7854
vn -0.9941 0.0956 0.0508
vn -0.9942 0.0959 0.0478
vn -0.3084 0.5807 0.7535
vn -0.3085 0.5807 0.7534
vn -0.3082 0.5806 0.7536
vn -0.3081 0.5806 0.7536
vn 0.4686 0.5431 0.6967
vn 0.4682 0.5434 0.6968
vn 0.4694 0.5426 0.6966
vn 0.4698 0.5423 0.6966
vn 0.9952 0.0001 -0.0977
vn 0.9945 0.0009 -0.1049
vn 0.3161 -0.9087 -0.2726
vn 0.3037 -0.9169 -0.2588
vn 0.3128 -0.9110 -0.2689
vn 0.3240 -0.9032 -0.2813
vn -0.4599 -0.8533 -0.2457
vn -0.4567 -0.8535 -0.2509
vn -0.4591 -0.8533 -0.2470
vn -0.4628 -0.8531 -0.2410
vn -0.9800 -0.1715 0.1014
vn -0.9671 -0.0959 0.2357
vn -0.9800 -0.1785 0.0884
vn -0.9528 -0.2814 -0.1135
vn -0.9240 0.3261 0.1997
vn -0.2389 0.8451 0.4783
vn -0.3043 0.8474 0.4352
vn -0.1500 0.8341 0.5308
vn -0.0794 0.8192 0.5679
vn 0.4857 0.7891 0.3761
vn 0.4471 0.8179 0.3621
vn 0.5186 0.7621 0.3876
vn 0.5487 0.7353 0.3978
vn 0.9967 -0.0754 -0.0304
vn 0.9971 -0.0682 -0.0339
vn 0.9968 -0.0734 -0.0314
vn 0.9965 -0.0783 -0.0290
vn 0.2978 0.1513 0.9426
vn 0.2963 0.1511 0.9431
vn 0.2964 0.1511 0.9430
vn 0.2979 0.1514 0.9425
vn -0.4700 0.1101 0.8758
vn -0.4826 0.1069 0.8693
vn -0.4810 0.1073 0.8701
vn -0.4689 0.1104 0.8763
vn -0.9963 -0.0016 -0.0856
vn -0.9959 0.0147 -0.0897
vn -0.9959 0.0151 -0.0892
vn -0.9964 -0.0014 -0.0849
vn 0.9899 0.0815 -0.1156
vn 0.9484 0.0950 -0.3024
vn 0.9546 0.0937 -0.2828
vn 0.9917 0.0803 -0.1007
vn 0.9475 0.1282 0.2930
vn 0.8819 0.1146 0.4574
vn 0.8901 0.1162 0.4407
vn 0.9513 0.1291 0.2798
vn 0.2772 -0.2024 0.9393
vn -0.2102 0.1318 0.9687
vn -0.0805 0.2709 0.9592
vn -0.3232 -0.0008 0.9463
vn -0.4717 -0.1966 0.8596
vn -0.9947 0.0511 -0.0895
vn -0.9949 0.0534 -0.0852
vn -0.9952 0.0375 -0.0908
vn -0.9952 0.0379 -0.0908
vn 0.0698 0.2109 -0.9750
vn 0.0717 0.2088 -0.9753
vn 0.0696 0.2111 -0.9750
vn 0.0676 0.2132 -0.9747
vn 0.9468 0.0766 -0.3125
vn 0.9413 0.0911 -0.3251
vn 0.9446 0.0825 -0.3176
vn 0.9510 0.0650 -0.3024
vn 0.8848 -0.0670 0.4612
vn 0.8767 -0.1018 0.4701
vn 0.8810 -0.0910 0.4643
vn 0.8871 -0.0621 0.4574
vn -0.1066 -0.5993 0.7934
vn -0.1090 -0.6026 0.7905
vn -0.1039 -0.5954 0.7967
vn -0.1017 -0.5922 0.7994
vn -0.9941 0.0822 -0.0702
vn -0.9944 0.0810 -0.0674
vn 0.0718 0.6086 -0.7902
vn 0.0716 0.6088 -0.7900
vn 0.0719 0.6086 -0.7902
vn 0.0721 0.6084 -0.7904
vn 0.9427 0.2046 -0.2637
vn 0.9415 0.2085 -0.2647
vn 0.9423 0.2059 -0.2640
vn 0.9435 0.2016 -0.2629
vn 0.8813 -0.2876 0.3750
vn 0.8812 -0.2880 0.3750
vn 0.8815 -0.2872 0.3749
vn 0.2992 -0.9016 0.3124
vn -0.0797 -0.9943 -0.0709
vn -0.9935 0.1034 -0.0485
vn -0.9935 0.1033 -0.0477
vn 0.0704 0.9086 -0.4116
vn 0.0733 0.9072 -0.4142
vn 0.0703 0.9087 -0.4114
vn 0.0673 0.9102 -0.4087
vn 0.9384 0.3183 -0.1344
vn 0.9433 0.3023 -0.1373
vn 0.9403 0.3121 -0.1355
vn 0.9341 0.3319 -0.1318
vn 0.8784 -0.4505 0.1593
vn 0.8891 -0.4253 0.1693
vn 0.8793 -0.4485 0.1602
vn 0.8646 -0.4805 0.1472
vn 0.2929 -0.9558 0.0237
vn 0.2887 -0.9574 -0.0012
vn 0.2889 -0.9574 -0.0015
vn 0.2932 -0.9558 0.0237
vn -0.9941 0.0758 -0.0782
vn -0.9494 -0.3117 -0.0391
vn -0.9582 -0.2829 -0.0424
vn -0.9925 0.0928 -0.0797
vn 0.9374 0.3481 0.0082
vn 0.9434 0.3316 0.0076
vn 0.9431 0.3323 0.0076
vn 0.9370 0.3492 0.0083
vn 0.8834 -0.4676 0.0305
vn 0.8791 -0.4767 0.0019
vn 0.8791 -0.4765 0.0018
vn 0.8837 -0.4671 0.0305
vn -0.4488 -0.8934 -0.0218
vn -0.4495 -0.8930 -0.0217
vn -0.4411 -0.8974 0.0121
vn -0.4407 -0.8975 0.0125
vn -0.9195 0.3928 -0.0166
vn -0.9260 0.3770 -0.0191
vn -0.7862 0.6179 0.0083
vn -0.7762 0.6304 0.0097
vn -0.0263 0.9996 -0.0056
vn -0.0317 0.9995 -0.0068
vn 0.0098 0.9999 -0.0086
vn 0.0106 0.9999 -0.0080
vn 0.2913 -0.9564 0.0208
vn 0.3098 -0.9507 0.0110
vn 0.3082 -0.9513 0.0107
vn 0.2905 -0.9566 0.0206
vn -0.9514 -0.3078 0.0075
vn -0.9492 -0.3141 -0.0205
vn -0.9494 -0.3135 -0.0206
vn -0.9514 -0.3078 0.0074
vn 0.9284 -0.3667 0.0601
vn 0.9880 -0.1198 0.0975
vn 0.9858 -0.1382 0.0950
vn 0.9168 -0.3954 0.0553
vn -0.4413 -0.8972 0.0155
vn -0.4412 -0.8972 0.0173
vn -0.8601 0.5099 0.0145
vn -0.8586 0.5124 0.0140
vn -0.0039 1.0000 -0.0018
vn -0.0062 1.0000 -0.0018
vn 0.2850 -0.9585 0.0037
vn 0.2849 -0.9585 0.0039
vn -0.9502 -0.3117 0.0037
vn -0.9489 -0.3150 0.0208
vn -0.9488 -0.3152 0.0193
vn -0.9502 -0.3116 0.0037
vn 0.8835 -0.4683 -0.0122
vn 0.8827 -0.4699 -0.0114
vn -0.4481 -0.8939 -0.0097
vn -0.4678 -0.8838 -0.0080
vn -0.4668 -0.8843 -0.0078
vn -0.4475 -0.8942 -0.0096
vn -0.8701 0.4926 -0.0201
vn -0.8688 0.4918 -0.0586
vn -0.8700 0.4928 -0.0192
vn 0.0824 0.9965 -0.0140
vn 0.0686 0.9969 -0.0382
vn 0.0699 0.9968 -0.0384
vn 0.0816 0.9966 -0.0136
vn 0.9183 -0.3959 0.0046
vn 0.9168 -0.3994 0.0045
vn 0.7830 0.6217 -0.0226
vn 0.9434 0.3315 -0.0127
vn 0.9400 0.3410 -0.0121
vn 0.7769 0.6293 -0.0198
vn 0.9181 0.3956 -0.0252
vn 0.9251 0.3790 -0.0235
vn 0.3241 0.0329 -0.9455
vn 0.3238 0.0329 -0.9455
vn -0.4714 0.0011 -0.8819
vn -0.4786 0.0014 -0.8780
vn -0.9934 -0.0838 0.0783
vn -0.9925 -0.0825 0.0905
vn -0.9926 -0.0826 0.0894
vn -0.9935 -0.0839 0.0769
vn -0.4719 -0.0939 0.8766
vn -0.2438 -0.0611 0.9679
vn -0.2583 -0.0633 0.9640
vn -0.4899 -0.0964 0.8665
vn 0.4746 -0.0544 0.8785
vn 0.4874 -0.0521 0.8716
vn 0.9872 0.0104 -0.1589
vn 0.9850 0.0120 -0.1719
vn 0.9950 -0.0191 -0.0980
vn 0.9960 -0.0220 -0.0870
vn 0.5829 0.8123 0.0176
vn 0.5440 0.8391 0.0079
vn 0.9039 0.4116 0.1167
vn 0.9181 0.3769 0.1229
vn 0.2992 -0.0486 0.9530
vn 0.2912 -0.0491 0.9554
vn 0.2916 -0.0491 0.9553
vn 0.2996 -0.0486 0.9528
vn -0.4849 -0.0231 0.8743
vn -0.4874 -0.0232 0.8729
vn -0.4873 -0.0232 0.8729
vn -0.4848 -0.0231 0.8743
vn 0.0684 0.0401 -0.9969
vn 0.0669 0.0127 -0.9977
vn 0.0661 0.0132 -0.9977
vn 0.0686 0.0401 -0.9968
vn 0.9527 -0.0150 -0.3034
vn 0.9523 -0.0148 -0.3049
vn 0.9523 -0.0148 -0.3048
vn 0.9528 -0.0150 -0.3034
vn 0.8867 -0.0456 0.4601
vn -0.4818 -0.8230 0.3008
vn 0.0749 -0.0155 -0.9971
vn 0.0737 -0.0152 -0.9972
# 278 vertex normals

vt 0.7250 0.6919 0.0000
vt 0.7255 0.6947 0.0000
vt 0.7106 0.6963 0.0000
vt 0.7104 0.6943 0.0000
vt 0.7256 0.6974 0.0000
vt 0.7107 0.6982 0.0000
vt 0.7256 0.7023 0.0000
vt 0.7107 0.7015 0.0000
vt 0.7254 0.7050 0.0000
vt 0.7106 0.7039 0.0000
vt 0.7251 0.7078 0.0000
vt 0.7102 0.7065 0.0000
vt 0.6864 0.6914 0.0000
vt 0.6863 0.6938 0.0000
vt 0.6827 0.6939 0.0000
vt 0.6828 0.6916 0.0000
vt 0.6864 0.6964 0.0000
vt 0.6823 0.6962 0.0000
vt 0.6866 0.7003 0.0000
vt 0.6814 0.6998 0.0000
vt 0.6865 0.7029 0.0000
vt 0.6810 0.7017 0.0000
vt 0.6860 0.7049 0.0000
vt 0.6808 0.7038 0.0000
vt 0.6850 0.7088 0.0000
vt 0.6805 0.7073 0.0000
vt 0.6793 0.6936 0.0000
vt 0.6795 0.6915 0.0000
vt 0.6785 0.6957 0.0000
vt 0.6772 0.6990 0.0000
vt 0.6768 0.7008 0.0000
vt 0.6766 0.7027 0.0000
vt 0.6765 0.7061 0.0000
vt 0.6778 0.6932 0.0000
vt 0.6780 0.6913 0.0000
vt 0.6769 0.6946 0.0000
vt 0.6755 0.6960 0.0000
vt 0.6738 0.6983 0.0000
vt 0.6733 0.7006 0.0000
vt 0.6736 0.7031 0.0000
vt 0.6746 0.7065 0.0000
vt 0.6747 0.7094 0.0000
vt 0.6901 0.7137 0.0000
vt 0.6899 0.7156 0.0000
vt 0.6742 0.7121 0.0000
vt 0.6896 0.7175 0.0000
vt 0.6738 0.7149 0.0000
vt 0.6893 0.7208 0.0000
vt 0.6735 0.7198 0.0000
vt 0.6733 0.7251 0.0000
vt 0.6892 0.7243 0.0000
vt 0.6893 0.7264 0.0000
vt 0.6734 0.7277 0.0000
vt 0.6895 0.7283 0.0000
vt 0.6736 0.7303 0.0000
vt 0.7166 0.7152 0.0000
vt 0.7181 0.7155 0.0000
vt 0.7165 0.7171 0.0000
vt 0.7182 0.7189 0.0000
vt 0.7164 0.7189 0.0000
vt 0.7185 0.7222 0.0000
vt 0.7157 0.7221 0.0000
vt 0.7185 0.7253 0.0000
vt 0.7157 0.7256 0.0000
vt 0.7184 0.7271 0.0000
vt 0.7161 0.7273 0.0000
vt 0.7184 0.7290 0.0000
vt 0.7164 0.7291 0.0000
vt 0.7198 0.7154 0.0000
vt 0.7205 0.7188 0.0000
vt 0.7211 0.7221 0.0000
vt 0.7212 0.7253 0.0000
vt 0.7209 0.7271 0.0000
vt 0.7206 0.7290 0.0000
vt 0.7214 0.7147 0.0000
vt 0.7218 0.7165 0.0000
vt 0.7224 0.7183 0.0000
vt 0.7240 0.7216 0.0000
vt 0.7241 0.7256 0.0000
vt 0.7232 0.7278 0.0000
vt 0.7222 0.7296 0.0000
vt 0.4956 0.4500 0.0000
vt 0.4962 0.4238 0.0000
vt 0.4984 0.4239 0.0000
vt 0.4974 0.4500 0.0000
vt 0.4853 0.4501 0.0000
vt 0.4836 0.4238 0.0000
vt 0.4858 0.4237 0.0000
vt 0.4885 0.4510 0.0000
vt 0.4918 0.4510 0.0000
vt 0.4918 0.4238 0.0000
vt 0.4940 0.4238 0.0000
vt 0.4938 0.4505 0.0000
vt 0.4995 0.3046 0.0000
vt 0.5013 0.3043 0.0000
vt 0.5022 0.3219 0.0000
vt 0.4999 0.3220 0.0000
vt 0.4880 0.3036 0.0000
vt 0.4905 0.3031 0.0000
vt 0.4896 0.3219 0.0000
vt 0.4877 0.3218 0.0000
vt 0.4923 0.3030 0.0000
vt 0.4935 0.3220 0.0000
vt 0.4976 0.3220 0.0000
vt 0.4974 0.3045 0.0000
vt 0.4855 0.3217 0.0000
vt 0.4862 0.3041 0.0000
vt 0.4955 0.3220 0.0000
vt 0.4942 0.3034 0.0000
vt 0.5024 0.3540 0.0000
vt 0.5000 0.3539 0.0000
vt 0.4888 0.3542 0.0000
vt 0.4864 0.3540 0.0000
vt 0.4919 0.3543 0.0000
vt 0.4976 0.3540 0.0000
vt 0.4840 0.3538 0.0000
vt 0.4951 0.3541 0.0000
vt 0.5005 0.4239 0.0000
vt 0.4993 0.4501 0.0000
vt 0.4879 0.4237 0.0000
vt 0.7099 0.7094 0.0000
vt 0.7243 0.7127 0.0000
# 122 texture coords

g 60_wood_rail_2
s 1
f 1/1/1 2/2/2 3/3/3 4/4/4 
s 2
f 2/2/5 5/5/6 6/6/7 3/3/8 
s 1
f 7/7/9 8/8/10 6/6/11 5/5/12 
s 2
f 7/7/13 9/9/14 10/10/15 8/8/16 
s 1
f 9/9/17 11/11/18 12/12/19 10/10/20 
s 2
f 13/13/21 14/14/22 15/15/23 16/16/24 
s 4
f 14/14/25 17/17/26 18/18/27 15/15/28 
s 1
f 17/17/29 19/19/30 20/20/31 18/18/32 
s 2
f 19/19/33 21/21/34 22/22/35 20/20/36 
s 4
f 21/21/37 23/23/38 24/24/39 22/22/40 
s 8
f 23/23/41 13/25/42 16/26/43 24/24/44 
s 1
f 16/16/45 15/15/46 25/27/47 26/28/48 
s 8
f 15/15/49 18/18/50 27/29/51 25/27/52 
s 1
f 18/18/32 20/20/31 28/30/53 27/29/54 
s 8
f 20/20/55 22/22/56 29/31/57 28/30/58 
s 1
f 22/22/59 24/24/60 30/32/61 29/31/62 
s 8
f 30/32/63 24/24/44 16/26/43 26/33/64 
s 2
f 26/28/65 25/27/66 31/34/67 32/35/68 
s 4
f 25/27/69 27/29/70 33/36/71 31/34/72 
s 2
f 27/29/73 28/30/74 34/37/75 33/36/76 
s 4
f 28/30/77 35/38/77 34/37/77 
s 16
f 28/30/78 29/31/79 36/39/80 35/38/81 
s 2
f 29/31/82 30/32/83 37/40/84 36/39/85 
s 4
f 30/32/86 26/33/87 32/41/88 37/40/89 
s 1
f 38/42/90 39/43/91 40/44/92 41/45/93 
s 2
f 41/45/94 40/44/95 42/46/96 43/47/97 
s 1
f 43/47/98 42/46/99 44/48/100 45/49/101 
f 46/50/102 47/51/103 48/52/104 49/53/105 
s 2
f 49/53/106 48/52/107 39/54/108 38/55/109 
s 1
f 50/56/110 51/57/110 52/58/110 
s 2
f 52/58/111 51/57/112 53/59/113 54/60/114 
s 1
f 53/59/115 55/61/116 56/62/117 54/60/118 
s 2
f 56/62/119 55/61/120 57/63/121 58/64/122 
s 1
f 58/64/123 57/63/124 59/65/125 60/66/126 
s 4
f 60/66/127 59/65/128 51/67/129 50/68/130 
s 8
f 51/57/131 61/69/132 62/70/133 53/59/134 
s 1
f 53/59/115 62/70/135 63/71/136 55/61/116 
s 4
f 55/61/137 63/71/138 64/72/139 57/63/140 
s 8
f 57/63/141 64/72/142 65/73/143 59/65/144 
s 16
f 59/65/145 65/73/146 61/74/145 51/67/147 
s 1
f 66/75/148 67/76/148 61/69/148 
s 2
f 61/69/149 67/76/149 62/70/149 
s 1
f 62/70/135 68/77/150 69/78/151 63/71/136 
s 2
f 63/71/152 69/78/153 70/79/154 64/72/155 
s 1
f 64/72/156 70/79/157 71/80/158 65/73/159 
s 4
f 65/73/160 71/80/161 66/81/162 61/74/163 
s 8
f 66/82/164 72/83/165 73/84/166 67/85/167 
s 4
f 68/86/168 74/87/169 75/88/170 69/89/171 
s 8
f 70/90/172 76/91/173 77/92/174 71/93/175 
s 2
f 71/93/176 77/92/177 72/83/178 66/82/179 
s 16
f 31/94/180 33/95/181 78/96/182 79/97/183 
s 8
f 34/98/184 35/99/185 80/100/186 81/101/187 
s 32
f 35/99/188 36/102/189 82/103/190 80/100/191 
s 8
f 83/104/192 32/105/193 31/94/194 79/97/195 
s 1
f 78/106/196 33/107/197 34/98/198 81/101/199 
f 84/108/200 37/109/201 32/105/202 83/104/203 
s 16
f 78/96/182 85/110/204 86/111/205 79/97/183 
s 8
f 80/100/186 87/112/206 88/113/207 81/101/187 
s 32
f 80/100/191 82/103/190 89/114/208 87/112/209 
s 8
f 72/83/165 90/115/210 86/111/211 73/84/166 
s 1
f 74/87/212 85/116/213 88/113/214 75/88/215 
s 2
f 77/92/177 91/117/216 90/115/217 72/83/178 
s 16
f 74/118/218 68/119/219 67/85/220 73/84/221 
s 8
f 92/120/222 69/89/223 75/88/224 
s 32
f 76/91/225 70/90/226 69/89/227 92/120/228 
s 16
f 85/110/204 74/118/218 73/84/221 86/111/205 
s 8
f 87/112/206 92/120/222 75/88/224 88/113/207 
s 32
f 89/114/208 76/91/225 92/120/228 87/112/209 
s 8
f 90/115/210 83/104/192 79/97/195 86/111/211 
s 1
f 85/116/213 78/106/196 81/101/199 88/113/214 
s 2
f 91/117/216 84/108/229 83/104/230 90/115/217 
s 4
f 91/117/231 77/92/232 76/91/233 89/114/234 
f 82/103/235 84/108/236 91/117/231 89/114/234 
s 1
f 3/3/3 14/14/237 13/13/238 4/4/4 
s 4
f 6/6/239 17/17/26 14/14/25 3/3/240 
s 8
f 8/8/241 19/19/242 17/17/243 6/6/244 
s 16
f 10/10/245 21/21/246 19/19/247 8/8/248 
s 1
f 12/12/19 23/23/249 21/21/250 10/10/20 
s 8
f 12/12/251 4/121/252 13/25/42 23/23/41 
f 1/122/253 4/121/252 12/12/251 11/11/254 
f 36/102/255 37/109/256 84/108/257 82/103/258 
f 39/43/259 50/56/260 52/58/261 40/44/262 
s 4
f 40/44/263 52/58/264 54/60/265 42/46/266 
s 1
f 42/46/99 54/60/118 56/62/117 44/48/100 
s 4
f 58/64/267 47/51/268 44/48/269 56/62/270 
s 8
f 47/51/271 58/64/272 60/66/273 48/52/274 
s 4
f 48/52/275 60/66/127 50/68/130 39/54/275 
s 32
f 67/76/276 68/77/276 62/70/276 
s 4
f 47/51/268 46/50/277 45/49/278 44/48/269 
# 83 polygons - 6 triangles

