# 3ds Max Wavefront OBJ Exporter v0.97b - (c)2007 guruware
# File Created: 21.07.2018 04:00:13

#
# object 61_disk
#

v  0.0000 0.0044 -4.7410
v  0.0000 1.0786 -4.7410
v  1.6215 1.0786 -4.4552
v  1.6215 0.0044 -4.4552
v  0.0000 1.1071 -3.0364
v  1.0385 1.1071 -2.8533
v  0.0000 -0.0241 -3.0364
v  1.0385 -0.0241 -2.8533
v  3.0475 1.0786 -3.6319
v  3.0475 0.0044 -3.6319
v  1.9517 1.1071 -2.3260
v  1.9517 -0.0241 -2.3260
v  4.1059 1.0786 -2.3706
v  4.1059 0.0044 -2.3706
v  2.6295 1.1071 -1.5181
v  2.6295 -0.0241 -1.5181
v  4.6690 1.0786 -0.8233
v  4.6690 0.0044 -0.8233
v  2.9902 1.1071 -0.5273
v  2.9902 -0.0241 -0.5273
v  4.6690 1.0786 0.8232
v  4.6690 0.0044 0.8232
v  2.9902 1.1071 0.5272
v  2.9902 -0.0241 0.5272
v  4.1058 1.0787 2.3705
v  4.1058 0.0044 2.3705
v  2.6295 1.1071 1.5181
v  2.6295 -0.0241 1.5181
v  3.0475 1.0786 3.6318
v  3.0475 0.0044 3.6318
v  1.9517 1.1071 2.3259
v  1.9517 -0.0241 2.3259
v  1.6215 1.0786 4.4551
v  1.6215 0.0044 4.4551
v  1.0385 1.1071 2.8532
v  1.0385 -0.0241 2.8532
v  0.0000 1.0786 4.7410
v  0.0000 0.0044 4.7410
v  0.0000 1.1071 3.0363
v  0.0000 -0.0241 3.0363
v  -1.6215 1.0786 4.4551
v  -1.6215 0.0044 4.4551
v  -1.0385 1.1071 2.8532
v  -1.0385 -0.0241 2.8532
v  -3.0475 1.0786 3.6318
v  -3.0475 0.0044 3.6318
v  -1.9517 1.1071 2.3259
v  -1.9517 -0.0241 2.3259
v  -4.1059 1.0786 2.3705
v  -4.1059 0.0044 2.3705
v  -2.6295 1.1071 1.5181
v  -2.6295 -0.0241 1.5181
v  -4.6690 1.0786 0.8232
v  -4.6690 0.0044 0.8232
v  -2.9902 1.1071 0.5272
v  -2.9902 -0.0241 0.5272
v  -4.6690 1.0786 -0.8233
v  -4.6690 0.0044 -0.8233
v  -2.9902 1.1071 -0.5273
v  -2.9902 -0.0241 -0.5273
v  -4.1058 1.0787 -2.3706
v  -4.1058 0.0044 -2.3706
v  -2.6295 1.1071 -1.5181
v  -2.6295 -0.0241 -1.5181
v  -3.0475 1.0786 -3.6319
v  -3.0475 0.0044 -3.6319
v  -1.9517 1.1071 -2.3260
v  -1.9517 -0.0241 -2.3260
v  -1.6215 1.0786 -4.4552
v  -1.6215 0.0044 -4.4552
v  -1.0385 1.1071 -2.8532
v  -1.0385 -0.0241 -2.8532
# 72 vertices

vn 0.0000 0.0000 -1.0000
vn 0.3420 0.0000 -0.9397
vn 0.0000 0.9999 -0.0167
vn -0.0000 0.9999 -0.0167
vn 0.0057 0.9999 -0.0157
vn 0.0000 0.0000 1.0000
vn -0.3420 0.0000 0.9397
vn -0.0000 -0.9999 -0.0167
vn 0.0057 -0.9999 -0.0157
vn 0.6428 0.0000 -0.7661
vn 0.0107 0.9999 -0.0128
vn -0.6428 0.0000 0.7660
vn 0.0107 -0.9999 -0.0128
vn 0.8660 0.0000 -0.5000
vn 0.0145 0.9999 -0.0084
vn -0.8660 0.0000 0.5000
vn 0.0145 -0.9999 -0.0084
vn 0.9848 0.0000 -0.1736
vn 0.0165 0.9999 -0.0029
vn -0.9848 0.0000 0.1737
vn 0.0165 -0.9999 -0.0029
vn 0.9848 0.0000 0.1737
vn 0.0165 0.9999 0.0029
vn -0.9848 0.0000 -0.1737
vn 0.0165 -0.9999 0.0029
vn 0.8660 0.0000 0.5000
vn 0.0144 0.9999 0.0083
vn -0.8660 0.0000 -0.5000
vn 0.0145 -0.9999 0.0084
vn 0.6428 0.0000 0.7660
vn 0.0107 0.9999 0.0128
vn -0.6428 0.0000 -0.7660
vn 0.0107 -0.9999 0.0128
vn 0.3420 0.0000 0.9397
vn 0.0057 0.9999 0.0157
vn -0.3420 0.0000 -0.9397
vn 0.0057 -0.9999 0.0157
vn -0.0000 0.0000 1.0000
vn 0.0000 0.9999 0.0167
vn -0.0000 0.0000 -1.0000
vn -0.0000 -0.9999 0.0167
vn -0.0057 0.9999 0.0157
vn -0.0057 -0.9999 0.0157
vn -0.6428 0.0000 0.7661
vn -0.0107 0.9999 0.0128
vn 0.6428 0.0000 -0.7660
vn -0.0107 -0.9999 0.0128
vn -0.0145 0.9999 0.0084
vn -0.0145 -0.9999 0.0084
vn -0.9848 0.0000 0.1736
vn -0.0165 0.9999 0.0029
vn 0.9848 0.0000 -0.1737
vn -0.0165 -0.9999 0.0029
vn -0.0165 0.9999 -0.0029
vn -0.0165 -0.9999 -0.0029
vn -0.0144 0.9999 -0.0083
vn -0.0145 -0.9999 -0.0084
vn -0.0107 0.9999 -0.0128
vn -0.0107 -0.9999 -0.0128
vn -0.0057 0.9999 -0.0157
vn -0.0057 -0.9999 -0.0157
# 61 vertex normals

vt 0.8970 0.5830 0.0000
vt 0.8970 0.5867 0.0000
vt 0.8912 0.5867 0.0000
vt 0.8912 0.5830 0.0000
vt 0.5766 0.3449 0.0000
vt 0.5766 0.3390 0.0000
vt 0.5802 0.3384 0.0000
vt 0.5823 0.3439 0.0000
vt 0.8469 0.8443 0.0000
vt 0.8469 0.8404 0.0000
vt 0.8505 0.8404 0.0000
vt 0.8505 0.8443 0.0000
vt 0.5856 0.2939 0.0000
vt 0.5856 0.2998 0.0000
vt 0.5800 0.2988 0.0000
vt 0.5821 0.2932 0.0000
vt 0.8855 0.5867 0.0000
vt 0.8855 0.5830 0.0000
vt 0.5833 0.3365 0.0000
vt 0.5872 0.3410 0.0000
vt 0.8542 0.8404 0.0000
vt 0.8542 0.8443 0.0000
vt 0.5750 0.2959 0.0000
vt 0.5789 0.2914 0.0000
vt 0.9891 0.5830 0.0000
vt 0.9891 0.5867 0.0000
vt 0.9834 0.5867 0.0000
vt 0.9834 0.5830 0.0000
vt 0.5857 0.3337 0.0000
vt 0.5908 0.3367 0.0000
vt 0.8578 0.8404 0.0000
vt 0.8578 0.8443 0.0000
vt 0.5714 0.2916 0.0000
vt 0.5765 0.2886 0.0000
vt 0.9777 0.5867 0.0000
vt 0.9777 0.5830 0.0000
vt 0.5870 0.3303 0.0000
vt 0.5928 0.3313 0.0000
vt 0.8615 0.8404 0.0000
vt 0.8615 0.8443 0.0000
vt 0.5694 0.2862 0.0000
vt 0.5752 0.2851 0.0000
vt 0.9719 0.5867 0.0000
vt 0.9719 0.5830 0.0000
vt 0.5870 0.3266 0.0000
vt 0.5928 0.3256 0.0000
vt 0.8651 0.8404 0.0000
vt 0.8651 0.8443 0.0000
vt 0.5694 0.2805 0.0000
vt 0.5752 0.2814 0.0000
vt 0.9661 0.5867 0.0000
vt 0.9661 0.5830 0.0000
vt 0.5857 0.3232 0.0000
vt 0.5908 0.3202 0.0000
vt 0.8688 0.8404 0.0000
vt 0.8688 0.8443 0.0000
vt 0.5714 0.2751 0.0000
vt 0.5765 0.2781 0.0000
vt 0.9604 0.5867 0.0000
vt 0.9604 0.5830 0.0000
vt 0.5833 0.3204 0.0000
vt 0.5872 0.3159 0.0000
vt 0.8724 0.8404 0.0000
vt 0.8724 0.8443 0.0000
vt 0.5750 0.2708 0.0000
vt 0.5789 0.2753 0.0000
vt 0.9546 0.5867 0.0000
vt 0.9546 0.5830 0.0000
vt 0.5802 0.3186 0.0000
vt 0.5823 0.3130 0.0000
vt 0.8761 0.8404 0.0000
vt 0.8761 0.8443 0.0000
vt 0.5800 0.2679 0.0000
vt 0.5821 0.2735 0.0000
vt 0.9489 0.5867 0.0000
vt 0.9489 0.5830 0.0000
vt 0.5766 0.3179 0.0000
vt 0.5766 0.3121 0.0000
vt 0.8797 0.8404 0.0000
vt 0.8797 0.8443 0.0000
vt 0.5856 0.2669 0.0000
vt 0.5856 0.2728 0.0000
vt 0.9431 0.5867 0.0000
vt 0.9431 0.5830 0.0000
vt 0.5730 0.3186 0.0000
vt 0.5710 0.3130 0.0000
vt 0.8834 0.8404 0.0000
vt 0.8834 0.8443 0.0000
vt 0.5912 0.2679 0.0000
vt 0.5892 0.2735 0.0000
vt 0.9373 0.5867 0.0000
vt 0.9373 0.5830 0.0000
vt 0.5698 0.3204 0.0000
vt 0.5660 0.3159 0.0000
vt 0.8178 0.8443 0.0000
vt 0.8178 0.8404 0.0000
vt 0.8213 0.8404 0.0000
vt 0.8213 0.8443 0.0000
vt 0.5962 0.2708 0.0000
vt 0.5924 0.2753 0.0000
vt 0.9316 0.5867 0.0000
vt 0.9316 0.5830 0.0000
vt 0.5674 0.3232 0.0000
vt 0.5623 0.3202 0.0000
vt 0.8250 0.8404 0.0000
vt 0.8250 0.8443 0.0000
vt 0.5999 0.2751 0.0000
vt 0.5948 0.2781 0.0000
vt 0.9258 0.5867 0.0000
vt 0.9258 0.5830 0.0000
vt 0.5662 0.3266 0.0000
vt 0.5604 0.3256 0.0000
vt 0.8286 0.8404 0.0000
vt 0.8286 0.8443 0.0000
vt 0.6018 0.2805 0.0000
vt 0.5960 0.2814 0.0000
vt 0.9200 0.5867 0.0000
vt 0.9200 0.5830 0.0000
vt 0.5662 0.3303 0.0000
vt 0.5604 0.3313 0.0000
vt 0.8323 0.8404 0.0000
vt 0.8323 0.8443 0.0000
vt 0.6018 0.2862 0.0000
vt 0.5960 0.2851 0.0000
vt 0.9143 0.5867 0.0000
vt 0.9143 0.5830 0.0000
vt 0.5674 0.3337 0.0000
vt 0.5623 0.3367 0.0000
vt 0.8359 0.8404 0.0000
vt 0.8359 0.8443 0.0000
vt 0.5999 0.2916 0.0000
vt 0.5948 0.2886 0.0000
vt 0.9085 0.5867 0.0000
vt 0.9085 0.5830 0.0000
vt 0.5698 0.3365 0.0000
vt 0.5660 0.3410 0.0000
vt 0.8396 0.8404 0.0000
vt 0.8396 0.8443 0.0000
vt 0.5962 0.2959 0.0000
vt 0.5924 0.2914 0.0000
vt 0.9027 0.5867 0.0000
vt 0.9027 0.5830 0.0000
vt 0.5730 0.3384 0.0000
vt 0.5710 0.3439 0.0000
vt 0.8432 0.8404 0.0000
vt 0.8432 0.8443 0.0000
vt 0.5912 0.2988 0.0000
vt 0.5892 0.2932 0.0000
# 148 texture coords

g 61_disk
s 1
f 1/1/1 2/2/1 3/3/2 4/4/2 
s 2
f 2/5/3 5/6/4 6/7/5 3/8/5 
s 1
f 5/9/6 7/10/6 8/11/7 6/12/7 
s 2
f 7/13/8 1/14/8 4/15/9 8/16/9 
s 1
f 4/4/2 3/3/2 9/17/10 10/18/10 
s 2
f 3/8/5 6/7/5 11/19/11 9/20/11 
s 1
f 6/12/7 8/11/7 12/21/12 11/22/12 
s 2
f 8/16/9 4/15/9 10/23/13 12/24/13 
s 1
f 10/25/10 9/26/10 13/27/14 14/28/14 
s 2
f 9/20/11 11/19/11 15/29/15 13/30/15 
s 1
f 11/22/12 12/21/12 16/31/16 15/32/16 
s 2
f 12/24/13 10/23/13 14/33/17 16/34/17 
s 1
f 14/28/14 13/27/14 17/35/18 18/36/18 
s 2
f 13/30/15 15/29/15 19/37/19 17/38/19 
s 1
f 15/32/16 16/31/16 20/39/20 19/40/20 
s 2
f 16/34/17 14/33/17 18/41/21 20/42/21 
s 1
f 18/36/18 17/35/18 21/43/22 22/44/22 
s 2
f 17/38/19 19/37/19 23/45/23 21/46/23 
s 1
f 19/40/20 20/39/20 24/47/24 23/48/24 
s 2
f 20/42/21 18/41/21 22/49/25 24/50/25 
s 1
f 22/44/22 21/43/22 25/51/26 26/52/26 
s 2
f 21/46/23 23/45/23 27/53/27 25/54/27 
s 1
f 23/48/24 24/47/24 28/55/28 27/56/28 
s 2
f 24/50/25 22/49/25 26/57/29 28/58/29 
s 1
f 26/52/26 25/51/26 29/59/30 30/60/30 
s 2
f 25/54/27 27/53/27 31/61/31 29/62/31 
s 1
f 27/56/28 28/55/28 32/63/32 31/64/32 
s 2
f 28/58/29 26/57/29 30/65/33 32/66/33 
s 1
f 30/60/30 29/59/30 33/67/34 34/68/34 
s 2
f 29/62/31 31/61/31 35/69/35 33/70/35 
s 1
f 31/64/32 32/63/32 36/71/36 35/72/36 
s 2
f 32/66/33 30/65/33 34/73/37 36/74/37 
s 1
f 34/68/34 33/67/34 37/75/6 38/76/38 
s 2
f 33/70/35 35/69/35 39/77/39 37/78/39 
s 1
f 35/72/36 36/71/36 40/79/40 39/80/40 
s 2
f 36/74/37 34/73/37 38/81/41 40/82/41 
s 1
f 38/76/38 37/75/6 41/83/7 42/84/7 
s 2
f 37/78/39 39/77/39 43/85/42 41/86/42 
s 1
f 39/80/40 40/79/40 44/87/2 43/88/2 
s 2
f 40/82/41 38/81/41 42/89/43 44/90/43 
s 1
f 42/84/7 41/83/7 45/91/44 46/92/44 
s 2
f 41/86/42 43/85/42 47/93/45 45/94/45 
s 1
f 43/95/2 44/96/2 48/97/46 47/98/46 
s 2
f 44/90/43 42/89/43 46/99/47 48/100/47 
s 1
f 46/92/44 45/91/44 49/101/16 50/102/16 
s 2
f 45/94/45 47/93/45 51/103/48 49/104/48 
s 1
f 47/98/46 48/97/46 52/105/14 51/106/14 
s 2
f 48/100/47 46/99/47 50/107/49 52/108/49 
s 1
f 50/102/16 49/101/16 53/109/50 54/110/50 
s 2
f 49/104/48 51/103/48 55/111/51 53/112/51 
s 1
f 51/106/14 52/105/14 56/113/52 55/114/52 
s 2
f 52/108/49 50/107/49 54/115/53 56/116/53 
s 1
f 54/110/50 53/109/50 57/117/24 58/118/24 
s 2
f 53/112/51 55/111/51 59/119/54 57/120/54 
s 1
f 55/114/52 56/113/52 60/121/22 59/122/22 
s 2
f 56/116/53 54/115/53 58/123/55 60/124/55 
s 1
f 58/118/24 57/117/24 61/125/28 62/126/28 
s 2
f 57/120/54 59/119/54 63/127/56 61/128/56 
s 1
f 59/122/22 60/121/22 64/129/26 63/130/26 
s 2
f 60/124/55 58/123/55 62/131/57 64/132/57 
s 1
f 62/126/28 61/125/28 65/133/32 66/134/32 
s 2
f 61/128/56 63/127/56 67/135/58 65/136/58 
s 1
f 63/130/26 64/129/26 68/137/30 67/138/30 
s 2
f 64/132/57 62/131/57 66/139/59 68/140/59 
s 1
f 66/134/32 65/133/32 69/141/36 70/142/36 
s 2
f 65/136/58 67/135/58 71/143/60 69/144/60 
s 1
f 67/138/30 68/137/30 72/145/34 71/146/34 
s 2
f 68/140/59 66/139/59 70/147/61 72/148/61 
s 1
f 70/142/36 69/141/36 2/2/1 1/1/1 
s 2
f 69/144/60 71/143/60 5/6/4 2/5/3 
s 1
f 71/146/34 72/145/34 7/10/6 5/9/6 
s 2
f 72/148/61 70/147/61 1/14/8 7/13/8 
# 72 polygons

