# 3ds Max Wavefront OBJ Exporter v0.97b - (c)2007 guruware
# File Created: 21.07.2018 04:01:20

#
# object 64_small_disk_2
#

v  -0.0001 -0.3934 -3.5113
v  -0.0001 0.4021 -3.5113
v  1.2010 0.4021 -3.2995
v  1.2010 -0.3934 -3.2995
v  -0.0001 0.4232 -2.2488
v  0.7691 0.4232 -2.1131
v  -0.0001 -0.4145 -2.2488
v  0.7691 -0.4145 -2.1131
v  2.2569 0.4022 -2.6898
v  2.2569 -0.3934 -2.6898
v  1.4454 0.4232 -1.7226
v  1.4454 -0.4145 -1.7226
v  3.0408 0.4022 -1.7557
v  3.0408 -0.3934 -1.7557
v  1.9474 0.4232 -1.1243
v  1.9474 -0.4145 -1.1243
v  3.4579 0.4021 -0.6097
v  3.4579 -0.3934 -0.6097
v  2.2146 0.4232 -0.3905
v  2.2146 -0.4145 -0.3905
v  3.4578 0.4022 0.6097
v  3.4578 -0.3934 0.6097
v  2.2146 0.4232 0.3905
v  2.2146 -0.4145 0.3905
v  3.0408 0.4022 1.7556
v  3.0408 -0.3934 1.7556
v  1.9474 0.4232 1.1244
v  1.9474 -0.4145 1.1244
v  2.2569 0.4022 2.6898
v  2.2569 -0.3934 2.6898
v  1.4454 0.4232 1.7226
v  1.4454 -0.4145 1.7226
v  1.2010 0.4022 3.2995
v  1.2010 -0.3934 3.2995
v  0.7691 0.4232 2.1131
v  0.7691 -0.4145 2.1131
v  -0.0001 0.4022 3.5113
v  -0.0001 -0.3934 3.5113
v  -0.0001 0.4232 2.2487
v  -0.0001 -0.4145 2.2487
v  -1.2009 0.4021 3.2995
v  -1.2009 -0.3934 3.2995
v  -0.7692 0.4232 2.1131
v  -0.7692 -0.4145 2.1131
v  -2.2571 0.4021 2.6898
v  -2.2571 -0.3934 2.6898
v  -1.4455 0.4232 1.7226
v  -1.4455 -0.4145 1.7226
v  -3.0408 0.4022 1.7557
v  -3.0408 -0.3934 1.7557
v  -1.9474 0.4232 1.1243
v  -1.9474 -0.4145 1.1243
v  -3.4579 0.4022 0.6097
v  -3.4579 -0.3934 0.6097
v  -2.2146 0.4232 0.3905
v  -2.2146 -0.4145 0.3905
v  -3.4579 0.4022 -0.6097
v  -3.4579 -0.3934 -0.6097
v  -2.2146 0.4232 -0.3905
v  -2.2146 -0.4145 -0.3905
v  -3.0408 0.4022 -1.7557
v  -3.0408 -0.3934 -1.7557
v  -1.9474 0.4232 -1.1243
v  -1.9474 -0.4145 -1.1243
v  -2.2571 0.4022 -2.6898
v  -2.2571 -0.3934 -2.6898
v  -1.4455 0.4232 -1.7226
v  -1.4455 -0.4145 -1.7226
v  -1.2009 0.4021 -3.2995
v  -1.2009 -0.3934 -3.2995
v  -0.7692 0.4232 -2.1131
v  -0.7692 -0.4145 -2.1131
# 72 vertices

vn -0.0000 0.0000 -1.0000
vn 0.3420 0.0000 -0.9397
vn 0.0000 0.9999 -0.0167
vn 0.0057 0.9999 -0.0157
vn 0.0000 0.0000 1.0000
vn -0.3421 0.0000 0.9397
vn -0.0000 -0.9999 -0.0167
vn 0.0057 -0.9999 -0.0157
vn 0.6428 0.0000 -0.7661
vn 0.0107 0.9999 -0.0128
vn -0.6428 0.0000 0.7660
vn 0.0107 -0.9999 -0.0128
vn 0.8660 0.0000 -0.5000
vn 0.0144 0.9999 -0.0083
vn -0.8660 0.0000 0.5000
vn 0.0145 -0.9999 -0.0084
vn 0.9848 0.0000 -0.1736
vn 0.0164 0.9999 -0.0029
vn -0.9848 0.0000 0.1737
vn 0.0165 -0.9999 -0.0029
vn 0.9848 0.0000 0.1737
vn 0.0164 0.9999 0.0029
vn 0.0164 0.9999 0.0028
vn -0.9848 0.0000 -0.1736
vn 0.0165 -0.9999 0.0029
vn 0.8660 0.0000 0.5000
vn 0.0144 0.9999 0.0083
vn -0.8660 0.0000 -0.5000
vn 0.0145 -0.9999 0.0084
vn 0.6428 0.0000 0.7660
vn 0.0107 0.9999 0.0127
vn -0.6428 0.0000 -0.7661
vn 0.0107 -0.9999 0.0128
vn 0.3420 0.0000 0.9397
vn 0.0057 0.9999 0.0156
vn -0.3420 0.0000 -0.9397
vn 0.0057 -0.9999 0.0157
vn -0.0000 0.0000 1.0000
vn 0.0000 0.9999 0.0166
vn -0.0000 0.9999 0.0166
vn 0.0000 0.0000 -1.0000
vn -0.0000 -0.9999 0.0167
vn -0.3420 0.0000 0.9397
vn -0.0057 0.9999 0.0157
vn -0.0058 0.9999 0.0157
vn -0.0057 -0.9999 0.0157
vn -0.6428 0.0000 0.7661
vn -0.0107 0.9999 0.0128
vn 0.6428 0.0000 -0.7660
vn -0.0107 -0.9999 0.0128
vn -0.0144 0.9999 0.0083
vn -0.0144 0.9999 0.0084
vn -0.0145 -0.9999 0.0084
vn -0.9848 0.0000 0.1736
vn -0.0164 0.9999 0.0029
vn 0.9848 0.0000 -0.1737
vn -0.0165 -0.9999 0.0029
vn -0.0164 0.9999 -0.0029
vn -0.0165 -0.9999 -0.0029
vn -0.0144 0.9999 -0.0083
vn -0.0145 -0.9999 -0.0084
vn -0.6428 0.0000 -0.7660
vn -0.0107 0.9999 -0.0127
vn -0.0107 0.9999 -0.0128
vn -0.0107 -0.9999 -0.0128
vn -0.0057 0.9999 -0.0157
vn 0.3421 0.0000 0.9397
vn -0.0057 -0.9999 -0.0157
# 68 vertex normals

vt 0.2697 0.7636 0.0000
vt 0.2697 0.7663 0.0000
vt 0.2654 0.7663 0.0000
vt 0.2654 0.7636 0.0000
vt 0.5847 0.3601 0.0000
vt 0.5819 0.3635 0.0000
vt 0.5796 0.3621 0.0000
vt 0.5810 0.3580 0.0000
vt 0.9020 0.7837 0.0000
vt 0.8991 0.7837 0.0000
vt 0.8991 0.7810 0.0000
vt 0.9020 0.7810 0.0000
vt 0.5679 0.4248 0.0000
vt 0.5679 0.4204 0.0000
vt 0.5721 0.4212 0.0000
vt 0.5705 0.4252 0.0000
vt 0.2612 0.7663 0.0000
vt 0.2612 0.7636 0.0000
vt 0.5769 0.3616 0.0000
vt 0.5769 0.3572 0.0000
vt 0.8991 0.7784 0.0000
vt 0.9020 0.7784 0.0000
vt 0.5757 0.4232 0.0000
vt 0.5729 0.4266 0.0000
vt 0.2569 0.7663 0.0000
vt 0.2569 0.7636 0.0000
vt 0.5742 0.3621 0.0000
vt 0.5727 0.3580 0.0000
vt 0.8991 0.7757 0.0000
vt 0.9020 0.7757 0.0000
vt 0.5784 0.4265 0.0000
vt 0.5746 0.4287 0.0000
vt 0.2526 0.7663 0.0000
vt 0.2526 0.7636 0.0000
vt 0.5719 0.3635 0.0000
vt 0.5691 0.3601 0.0000
vt 0.8991 0.7730 0.0000
vt 0.9020 0.7730 0.0000
vt 0.5798 0.4304 0.0000
vt 0.5755 0.4312 0.0000
vt 0.2483 0.7663 0.0000
vt 0.2483 0.7636 0.0000
vt 0.5701 0.3655 0.0000
vt 0.5664 0.3633 0.0000
vt 0.8991 0.7704 0.0000
vt 0.9020 0.7704 0.0000
vt 0.5798 0.4347 0.0000
vt 0.5755 0.4339 0.0000
vt 0.2440 0.7663 0.0000
vt 0.2440 0.7636 0.0000
vt 0.5692 0.3681 0.0000
vt 0.5649 0.3673 0.0000
vt 0.8991 0.7677 0.0000
vt 0.9020 0.7677 0.0000
vt 0.5784 0.4386 0.0000
vt 0.5746 0.4365 0.0000
vt 0.2398 0.7663 0.0000
vt 0.2398 0.7636 0.0000
vt 0.5692 0.3708 0.0000
vt 0.5649 0.3716 0.0000
vt 0.8991 0.7651 0.0000
vt 0.9020 0.7651 0.0000
vt 0.5757 0.4419 0.0000
vt 0.5729 0.4385 0.0000
vt 0.3168 0.7636 0.0000
vt 0.3168 0.7663 0.0000
vt 0.3125 0.7663 0.0000
vt 0.3125 0.7636 0.0000
vt 0.5701 0.3733 0.0000
vt 0.5664 0.3755 0.0000
vt 0.8991 0.7624 0.0000
vt 0.9020 0.7624 0.0000
vt 0.5721 0.4440 0.0000
vt 0.5705 0.4399 0.0000
vt 0.3082 0.7663 0.0000
vt 0.3082 0.7636 0.0000
vt 0.5719 0.3754 0.0000
vt 0.5691 0.3788 0.0000
vt 0.8991 0.7596 0.0000
vt 0.9020 0.7596 0.0000
vt 0.5679 0.4448 0.0000
vt 0.5679 0.4403 0.0000
vt 0.3039 0.7663 0.0000
vt 0.3039 0.7636 0.0000
vt 0.5742 0.3768 0.0000
vt 0.5727 0.3808 0.0000
vt 0.8991 0.7570 0.0000
vt 0.9020 0.7570 0.0000
vt 0.5637 0.4440 0.0000
vt 0.5652 0.4399 0.0000
vt 0.2996 0.7663 0.0000
vt 0.2996 0.7636 0.0000
vt 0.5769 0.3773 0.0000
vt 0.5769 0.3816 0.0000
vt 0.8991 0.7543 0.0000
vt 0.9020 0.7543 0.0000
vt 0.5600 0.4419 0.0000
vt 0.5629 0.4385 0.0000
vt 0.2953 0.7663 0.0000
vt 0.2953 0.7636 0.0000
vt 0.5796 0.3768 0.0000
vt 0.5810 0.3808 0.0000
vt 0.8991 0.7517 0.0000
vt 0.9020 0.7517 0.0000
vt 0.5573 0.4386 0.0000
vt 0.5612 0.4365 0.0000
vt 0.2911 0.7663 0.0000
vt 0.2911 0.7636 0.0000
vt 0.5819 0.3754 0.0000
vt 0.5847 0.3788 0.0000
vt 0.8991 0.7490 0.0000
vt 0.9020 0.7490 0.0000
vt 0.5559 0.4347 0.0000
vt 0.5602 0.4339 0.0000
vt 0.2868 0.7663 0.0000
vt 0.2868 0.7636 0.0000
vt 0.5836 0.3733 0.0000
vt 0.5875 0.3755 0.0000
vt 0.8991 0.7463 0.0000
vt 0.9020 0.7463 0.0000
vt 0.5559 0.4304 0.0000
vt 0.5602 0.4312 0.0000
vt 0.2826 0.7663 0.0000
vt 0.2826 0.7636 0.0000
vt 0.5846 0.3708 0.0000
vt 0.5889 0.3716 0.0000
vt 0.8991 0.7437 0.0000
vt 0.9020 0.7437 0.0000
vt 0.5573 0.4265 0.0000
vt 0.5612 0.4287 0.0000
vt 0.2783 0.7663 0.0000
vt 0.2783 0.7636 0.0000
vt 0.5846 0.3681 0.0000
vt 0.5889 0.3673 0.0000
vt 0.8991 0.7410 0.0000
vt 0.9020 0.7410 0.0000
vt 0.5600 0.4232 0.0000
vt 0.5629 0.4266 0.0000
vt 0.2740 0.7663 0.0000
vt 0.2740 0.7636 0.0000
vt 0.5836 0.3655 0.0000
vt 0.5875 0.3633 0.0000
vt 0.9020 0.7891 0.0000
vt 0.8991 0.7891 0.0000
vt 0.8991 0.7864 0.0000
vt 0.9020 0.7864 0.0000
vt 0.5637 0.4212 0.0000
vt 0.5652 0.4252 0.0000
# 148 texture coords

g 64_small_disk_2
s 1
f 1/1/1 2/2/1 3/3/2 4/4/2 
s 2
f 2/5/3 5/6/3 6/7/4 3/8/4 
s 1
f 5/9/5 7/10/5 8/11/6 6/12/6 
s 2
f 7/13/7 1/14/7 4/15/8 8/16/8 
s 1
f 4/4/2 3/3/2 9/17/9 10/18/9 
s 2
f 3/8/4 6/7/4 11/19/10 9/20/10 
s 1
f 6/12/6 8/11/6 12/21/11 11/22/11 
s 2
f 8/16/8 4/15/8 10/23/12 12/24/12 
s 1
f 10/18/9 9/17/9 13/25/13 14/26/13 
s 2
f 9/20/10 11/19/10 15/27/14 13/28/14 
s 1
f 11/22/11 12/21/11 16/29/15 15/30/15 
s 2
f 12/24/12 10/23/12 14/31/16 16/32/16 
s 1
f 14/26/13 13/25/13 17/33/17 18/34/17 
s 2
f 13/28/14 15/27/14 19/35/18 17/36/18 
s 1
f 15/30/15 16/29/15 20/37/19 19/38/19 
s 2
f 16/32/16 14/31/16 18/39/20 20/40/20 
s 1
f 18/34/17 17/33/17 21/41/21 22/42/21 
s 2
f 17/36/18 19/35/18 23/43/22 21/44/23 
s 1
f 19/38/19 20/37/19 24/45/24 23/46/24 
s 2
f 20/40/20 18/39/20 22/47/25 24/48/25 
s 1
f 22/42/21 21/41/21 25/49/26 26/50/26 
s 2
f 21/44/23 23/43/22 27/51/27 25/52/27 
s 1
f 23/46/24 24/45/24 28/53/28 27/54/28 
s 2
f 24/48/25 22/47/25 26/55/29 28/56/29 
s 1
f 26/50/26 25/49/26 29/57/30 30/58/30 
s 2
f 25/52/27 27/51/27 31/59/31 29/60/31 
s 1
f 27/54/28 28/53/28 32/61/32 31/62/32 
s 2
f 28/56/29 26/55/29 30/63/33 32/64/33 
s 1
f 30/65/30 29/66/30 33/67/34 34/68/34 
s 2
f 29/60/31 31/59/31 35/69/35 33/70/35 
s 1
f 31/62/32 32/61/32 36/71/36 35/72/36 
s 2
f 32/64/33 30/63/33 34/73/37 36/74/37 
s 1
f 34/68/34 33/67/34 37/75/38 38/76/38 
s 2
f 33/70/35 35/69/35 39/77/39 37/78/40 
s 1
f 35/72/36 36/71/36 40/79/41 39/80/41 
s 2
f 36/74/37 34/73/37 38/81/42 40/82/42 
s 1
f 38/76/38 37/75/38 41/83/43 42/84/43 
s 2
f 37/78/40 39/77/39 43/85/44 41/86/45 
s 1
f 39/80/41 40/79/41 44/87/2 43/88/2 
s 2
f 40/82/42 38/81/42 42/89/46 44/90/46 
s 1
f 42/84/43 41/83/43 45/91/11 46/92/47 
s 2
f 41/86/45 43/85/44 47/93/48 45/94/48 
s 1
f 43/88/2 44/87/2 48/95/49 47/96/49 
s 2
f 44/90/46 42/89/46 46/97/50 48/98/50 
s 1
f 46/92/47 45/91/11 49/99/15 50/100/15 
s 2
f 45/94/48 47/93/48 51/101/51 49/102/52 
s 1
f 47/96/49 48/95/49 52/103/13 51/104/13 
s 2
f 48/98/50 46/97/50 50/105/53 52/106/53 
s 1
f 50/100/15 49/99/15 53/107/54 54/108/54 
s 2
f 49/102/52 51/101/51 55/109/55 53/110/55 
s 1
f 51/104/13 52/103/13 56/111/56 55/112/56 
s 2
f 52/106/53 50/105/53 54/113/57 56/114/57 
s 1
f 54/108/54 53/107/54 57/115/24 58/116/24 
s 2
f 53/110/55 55/109/55 59/117/58 57/118/58 
s 1
f 55/112/56 56/111/56 60/119/21 59/120/21 
s 2
f 56/114/57 54/113/57 58/121/59 60/122/59 
s 1
f 58/116/24 57/115/24 61/123/28 62/124/28 
s 2
f 57/118/58 59/117/58 63/125/60 61/126/60 
s 1
f 59/120/21 60/119/21 64/127/26 63/128/26 
s 2
f 60/122/59 58/121/59 62/129/61 64/130/61 
s 1
f 62/124/28 61/123/28 65/131/62 66/132/32 
s 2
f 61/126/60 63/125/60 67/133/63 65/134/64 
s 1
f 63/128/26 64/127/26 68/135/30 67/136/30 
s 2
f 64/130/61 62/129/61 66/137/65 68/138/65 
s 1
f 66/132/32 65/131/62 69/139/36 70/140/36 
s 2
f 65/134/64 67/133/63 71/141/66 69/142/66 
s 1
f 67/143/30 68/144/30 72/145/67 71/146/67 
s 2
f 68/138/65 66/137/65 70/147/68 72/148/68 
s 1
f 70/140/36 69/139/36 2/2/1 1/1/1 
s 2
f 69/142/66 71/141/66 5/6/3 2/5/3 
s 1
f 71/146/67 72/145/67 7/10/5 5/9/5 
s 2
f 72/148/68 70/147/68 1/14/7 7/13/7 
# 72 polygons

