# 3ds Max Wavefront OBJ Exporter v0.97b - (c)2007 guruware
# File Created: 23.07.2018 23:35:16

#
# object 65_micro_wood
#

v  -0.7165 -0.0000 0.6174
v  -0.7820 4.7956 0.7329
v  -0.8627 4.7956 -0.7793
v  -0.7165 0.0000 -0.7793
v  0.8627 -0.0000 -0.7793
v  0.8627 4.7956 -0.7793
v  0.8627 4.7956 0.7793
v  0.8627 -0.0000 0.6174
# 8 vertices

vn -0.9999 -0.0137 -0.0000
vn -0.9987 -0.0274 0.0436
vn -0.9981 -0.0304 0.0533
vn -0.9998 -0.0169 0.0104
vn 1.0000 0.0000 -0.0000
vn 0.0000 -0.0338 0.9994
vn -0.0225 -0.0263 0.9994
vn -0.0282 -0.0244 0.9993
vn -0.0059 -0.0318 0.9995
vn 0.0000 0.0000 -1.0000
vn 0.0000 1.0000 -0.0000
vn -0.0000 -1.0000 -0.0000
# 12 vertex normals

vt 0.4923 0.7372 0.0000
vt 0.4916 0.7055 0.0000
vt 0.5016 0.7055 0.0000
vt 0.5016 0.7372 0.0000
vt 0.4919 0.7369 0.0000
vt 0.4919 0.7052 0.0000
vt 0.5022 0.7052 0.0000
vt 0.5012 0.7369 0.0000
vt 0.4910 0.7365 0.0000
vt 0.4910 0.7048 0.0000
vt 0.5019 0.7048 0.0000
vt 0.5014 0.7365 0.0000
vt 0.4912 0.7364 0.0000
vt 0.4902 0.7047 0.0000
vt 0.5016 0.7047 0.0000
vt 0.5016 0.7364 0.0000
vt 0.5017 0.7139 0.0000
vt 0.4909 0.7142 0.0000
vt 0.4909 0.7039 0.0000
vt 0.5023 0.7039 0.0000
vt 0.5017 0.7142 0.0000
vt 0.4913 0.7142 0.0000
vt 0.4913 0.7049 0.0000
vt 0.5017 0.7049 0.0000
# 24 texture coords

g 65_micro_wood
s 2
f 1/1/1 2/2/2 3/3/3 4/4/4 
s 4
f 5/5/5 6/6/5 7/7/5 8/8/5 
s 8
f 8/9/6 7/10/7 2/11/8 1/12/9 
s 32
f 4/13/10 3/14/10 6/15/10 5/16/10 
s off
f 2/17/11 7/18/11 6/19/11 3/20/11 
f 4/21/12 5/22/12 8/23/12 1/24/12 
# 6 polygons

